<svg width="24" height="24" viewBox="0 0 24 24" fill="none" xmlns="http://www.w3.org/2000/svg">
<path d="M2.02499 1.99687C1.89374 2.0625 1.72031 2.19844 1.64062 2.29688C1.34062 2.67656 1.35468 2.17969 1.36874 10.0781L1.38281 17.2734L1.48593 17.4609C1.54218 17.5641 1.65468 17.7141 1.74374 17.7937C2.02031 18.0562 2.17968 18.1125 2.73281 18.1312L3.23437 18.15V18.7781C3.23437 19.2891 3.25312 19.4484 3.32812 19.6547C3.45937 20.0109 3.69843 20.2641 4.05937 20.4422C4.34999 20.5875 4.40156 20.5969 4.99687 20.6156L5.62499 20.6391V20.9437C5.62499 21.3234 5.69531 21.5578 5.86874 21.7734C6.15468 22.1156 6.20156 22.125 7.75781 22.125C9.02812 22.125 9.15937 22.1156 9.31874 22.0359C9.71718 21.8297 9.89062 21.5109 9.89062 20.9766V20.625H12H14.1094V20.9766C14.1094 21.5109 14.2828 21.8297 14.6812 22.0359C14.8406 22.1156 14.9719 22.125 16.2422 22.125C17.7984 22.125 17.8453 22.1156 18.1312 21.7734C18.3047 21.5578 18.375 21.3234 18.375 20.9437V20.6391L19.0031 20.6156C19.5984 20.5969 19.65 20.5875 19.9406 20.4422C20.2922 20.2687 20.5406 20.0016 20.6766 19.6406C20.7469 19.4531 20.7656 19.2844 20.7656 18.7781V18.15L21.2719 18.1312C21.6656 18.1172 21.8156 18.0938 21.9609 18.0141C22.1812 17.8969 22.4062 17.6672 22.5281 17.4375C22.6125 17.2781 22.6172 16.9922 22.6312 10.1016C22.6406 5.00625 22.6312 2.87344 22.5937 2.74219C22.5094 2.44219 22.2609 2.1375 21.9797 1.99687L21.7312 1.875H12H2.26874L2.02499 1.99687ZM21.8297 2.46562C21.9 2.52187 22.0031 2.63437 22.0547 2.72344C22.1484 2.88281 22.1484 2.96719 22.1484 10.0078C22.1484 17.0484 22.1484 17.1328 22.0547 17.2875C22.0031 17.3719 21.8859 17.4891 21.7969 17.5453L21.6328 17.6484H12H2.36718L2.20312 17.5453C2.11406 17.4891 1.99687 17.3719 1.94531 17.2875C1.85156 17.1328 1.85156 17.0391 1.83749 10.1109C1.83281 5.46094 1.84218 3.02344 1.87499 2.90625C1.93593 2.68125 2.08593 2.48906 2.26874 2.40937C2.39062 2.35781 4.05937 2.34844 12.0562 2.35781L21.6984 2.36719L21.8297 2.46562ZM20.2969 18.6844C20.2969 18.9844 20.2734 19.3125 20.2453 19.4109C20.1703 19.6547 19.9453 19.9172 19.7156 20.0203C19.5328 20.1047 19.2187 20.1094 12 20.1094C4.78124 20.1094 4.46718 20.1047 4.28437 20.0203C4.05468 19.9172 3.82968 19.6547 3.75468 19.4109C3.72656 19.3125 3.70312 18.9844 3.70312 18.6844V18.1406H12H20.2969V18.6844ZM9.42187 20.9109C9.42187 21.0797 9.38906 21.2625 9.34687 21.3562C9.21093 21.6469 9.14531 21.6562 7.73906 21.6562H6.47812L6.33281 21.5344C6.17343 21.4031 6.09374 21.1781 6.09374 20.8453V20.625H7.75781H9.42187V20.9109ZM17.9062 20.8453C17.9062 21.1781 17.8266 21.4031 17.6672 21.5344L17.5219 21.6562H16.2609C14.8547 21.6562 14.7891 21.6469 14.6531 21.3562C14.6109 21.2625 14.5781 21.0797 14.5781 20.9109V20.625H16.2422H17.9062V20.8453Z" fill="#2D3F48"/>
<path d="M3.04688 3.60469C3.01406 3.66562 3 5.29219 3 8.55C3 12.8953 3.00938 13.4062 3.075 13.4719C3.14062 13.5375 4.0125 13.5469 12 13.5469C19.9875 13.5469 20.8594 13.5375 20.925 13.4719C20.9906 13.4062 21 12.8953 21 8.55C21 5.29219 20.9859 3.66562 20.9531 3.60469C20.9016 3.51562 20.7563 3.51562 12 3.51562C3.24375 3.51562 3.09844 3.51562 3.04688 3.60469ZM20.5219 6.24375L20.5078 8.50781L19.8234 8.52187C19.2 8.53125 19.1344 8.52656 19.1016 8.45156C19.0828 8.40469 18.9328 7.97812 18.7688 7.50469C18.6047 7.03125 18.4453 6.61406 18.4172 6.57656C18.3469 6.49687 18.1641 6.49687 18.0797 6.58125C18.0469 6.61875 17.8734 7.05937 17.6953 7.56562L17.3766 8.48438H16.6969H16.0172L15.5672 8.14219C14.9719 7.69219 14.9297 7.66875 14.7984 7.73906C14.7422 7.77187 14.4938 7.95 14.2453 8.14219L13.7953 8.48438H12.5016H11.2125L10.5891 9.30469C10.1484 9.89062 9.95625 10.1109 9.92813 10.0641C9.9 10.0125 9.37969 8.55 8.63906 6.43125C8.55938 6.20156 8.44688 6.12187 8.28281 6.18281C8.18906 6.22031 8.10938 6.4125 7.71094 7.54219C7.45781 8.26875 7.2375 8.85938 7.22344 8.85938C7.20938 8.85938 7.10156 8.59219 6.98438 8.25937L6.77344 7.66406L6.60938 7.65C6.45 7.63594 6.43125 7.65469 6.14531 8.03906C5.98125 8.26406 5.81719 8.475 5.77969 8.5125C5.72344 8.56875 5.51719 8.57812 4.60313 8.56875L3.49219 8.55469L3.47813 6.26719L3.46875 3.98438H12H20.5312L20.5219 6.24375ZM9.05156 9.06562C9.69375 10.8937 9.71719 10.9453 9.94219 10.8891C9.98438 10.875 10.3406 10.4391 10.7391 9.90937L11.4609 8.95312H12.7219H13.9828L14.4375 8.60156L14.8922 8.25469L15.3797 8.61562L15.8625 8.97656L16.6828 8.99062C17.2828 9 17.5406 8.98594 17.625 8.94375C17.7188 8.89219 17.7891 8.75156 17.9766 8.2125C18.1078 7.84687 18.225 7.54688 18.2391 7.54688C18.2578 7.54688 18.3797 7.86094 18.5156 8.25C18.6469 8.63437 18.7641 8.95781 18.7688 8.9625C18.7688 8.96719 19.1625 8.98125 19.6406 8.99531L20.5078 9.02344V11.0391V13.0547H12H3.49219L3.47813 11.0484L3.46875 9.04688H4.71094H5.95781L6.07969 8.91562C6.14531 8.84531 6.2625 8.7 6.34219 8.5875C6.42188 8.47969 6.50156 8.40469 6.51563 8.42344C6.53438 8.44687 6.64688 8.75625 6.77344 9.11719C6.89531 9.47812 7.01719 9.80156 7.04531 9.82969C7.06875 9.8625 7.14844 9.89062 7.21875 9.89062C7.28906 9.89062 7.36875 9.8625 7.39688 9.82969C7.42031 9.80156 7.65 9.1875 7.90313 8.47031C8.175 7.69219 8.37188 7.19062 8.39531 7.22812C8.41406 7.26094 8.70938 8.08594 9.05156 9.06562Z" fill="#2D3F48"/>
<path d="M7.9687 14.5781C7.5187 14.789 7.2937 15.1312 7.2937 15.6093C7.2937 15.8109 7.32183 15.9703 7.37808 16.0781C7.7437 16.7812 8.63901 16.9453 9.18276 16.4015C9.6937 15.8859 9.59995 15.0328 8.99058 14.6578C8.69058 14.4703 8.2687 14.4375 7.9687 14.5781ZM8.58745 15C8.7937 15.0609 8.98589 15.2718 9.02808 15.4921C9.14526 16.1156 8.37183 16.4859 7.93589 16.0125C7.80464 15.8718 7.7812 15.8109 7.7812 15.6093C7.7812 15.4171 7.80464 15.3515 7.92651 15.2109C8.0437 15.0796 8.20776 14.9906 8.39058 14.9578C8.40464 14.9531 8.4937 14.9765 8.58745 15Z" fill="#2D3F48"/>
<path d="M11.5922 14.564C11.2125 14.6953 10.875 15.1922 10.875 15.6093C10.875 16.1437 11.3063 16.6265 11.85 16.7156C12.1875 16.7672 12.5063 16.6547 12.7734 16.3875C13.2328 15.9234 13.2469 15.3422 12.8109 14.8593C12.4969 14.5078 12.0516 14.4 11.5922 14.564ZM12.2672 15.0422C12.8719 15.3187 12.6656 16.2187 12 16.2187C11.5125 16.2187 11.2266 15.7312 11.4563 15.2859C11.5359 15.1406 11.8359 14.9531 12 14.9531C12.0375 14.9531 12.1594 14.9953 12.2672 15.0422Z" fill="#2D3F48"/>
<path d="M15.2203 14.55C14.625 14.7656 14.3109 15.4875 14.5734 16.0594C14.9719 16.9312 16.1766 16.9453 16.6219 16.0781C16.7391 15.8437 16.7344 15.3609 16.6078 15.1172C16.3406 14.6109 15.7453 14.3672 15.2203 14.55ZM15.7594 15C15.8531 15.0281 15.9938 15.1219 16.0734 15.2156C16.1953 15.3516 16.2188 15.4172 16.2188 15.6094C16.2188 15.8109 16.1953 15.8719 16.0688 16.0125C15.7313 16.3734 15.1453 16.2656 14.9953 15.8109C14.8688 15.4219 15.1266 15.0328 15.5625 14.9578C15.5766 14.9531 15.6656 14.9766 15.7594 15Z" fill="#2D3F48"/>
<path d="M3.0749 15.45C2.97646 15.5484 2.98115 15.6703 3.08427 15.7641C3.15927 15.8344 3.32802 15.8438 4.48115 15.8438C5.88271 15.8438 5.90615 15.8391 5.90615 15.6094C5.90615 15.3797 5.88271 15.375 4.47177 15.375C3.32802 15.375 3.13583 15.3844 3.0749 15.45Z" fill="#2D3F48"/>
<path d="M18.15 15.4312C18.1172 15.4641 18.0938 15.5437 18.0938 15.6094C18.0938 15.8391 18.1172 15.8438 19.5234 15.8438C20.7422 15.8438 20.85 15.8391 20.9203 15.7594C21.0187 15.6516 21.0234 15.5437 20.925 15.45C20.8641 15.3844 20.6719 15.375 19.5281 15.375C18.5625 15.375 18.1922 15.3891 18.15 15.4312Z" fill="#2D3F48"/>
</svg>
