<svg width="21" height="15" viewBox="0 0 21 15" fill="none" xmlns="http://www.w3.org/2000/svg">
<path d="M20.4817 13.9191C20.4926 13.8846 20.5 13.8483 20.5 13.81V1.18935C20.5 1.15087 20.4926 1.11428 20.4814 1.0796C20.4798 1.07485 20.4789 1.0701 20.477 1.06534C20.4622 1.02472 20.4404 0.988139 20.413 0.956069C20.4111 0.953931 20.4109 0.951318 20.4091 0.94918C20.4079 0.947992 20.4065 0.947517 20.4053 0.946329C20.3761 0.914496 20.3415 0.88884 20.3028 0.869598C20.2998 0.868173 20.2975 0.866272 20.2944 0.864847C20.2578 0.84798 20.2179 0.838478 20.1759 0.835628C20.1717 0.83539 20.1678 0.83444 20.1636 0.83444C20.1596 0.834202 20.1562 0.833252 20.1522 0.833252H0.84824C0.844296 0.833252 0.840583 0.834202 0.836639 0.83444C0.832927 0.834677 0.829215 0.83539 0.825503 0.835628C0.783046 0.838478 0.742445 0.848218 0.705324 0.865322C0.703004 0.866272 0.701148 0.867935 0.698828 0.868885C0.659387 0.888127 0.624355 0.914259 0.59489 0.946566C0.59373 0.947754 0.592338 0.947992 0.591178 0.94918C0.589322 0.95108 0.58909 0.953693 0.587234 0.955831C0.559857 0.987901 0.537817 1.02472 0.522969 1.06534C0.521112 1.0701 0.520184 1.07485 0.51856 1.07984C0.507424 1.11452 0.5 1.1511 0.5 1.18959V13.8105C0.5 13.8494 0.507656 13.8865 0.519024 13.9217C0.520648 13.9264 0.521576 13.9309 0.5232 13.9357C0.538281 13.9765 0.560553 14.0134 0.588162 14.0454C0.589786 14.0473 0.59025 14.0497 0.591874 14.0516C0.593266 14.0533 0.595122 14.0542 0.596746 14.0559C0.608114 14.068 0.620643 14.0787 0.633635 14.0891C0.639435 14.0937 0.644539 14.0991 0.650571 14.1034C0.665884 14.1143 0.682356 14.1231 0.699292 14.1312C0.703468 14.1331 0.707181 14.1362 0.711357 14.1378C0.75335 14.1561 0.799518 14.1666 0.848008 14.1666H20.1518C20.2003 14.1666 20.2464 14.1564 20.2884 14.1378C20.2949 14.135 20.3009 14.1307 20.3072 14.1274C20.3216 14.12 20.336 14.1124 20.3492 14.1032C20.3562 14.0982 20.3624 14.0918 20.3692 14.0863C20.381 14.0766 20.3926 14.0668 20.4028 14.0556C20.4046 14.0537 20.4067 14.0523 20.4086 14.0504C20.4104 14.0483 20.4109 14.0454 20.4128 14.0433C20.4399 14.0115 20.4617 13.9749 20.4766 13.9345C20.4789 13.9293 20.48 13.9243 20.4817 13.9191ZM1.19625 1.99752L7.05368 7.47581L1.19625 12.9978V1.99752ZM13.2016 7.20737C13.1775 7.22352 13.1519 7.23706 13.1318 7.25987C13.1241 7.26842 13.1215 7.27958 13.1148 7.28861L10.5001 9.73402L1.74517 1.54568H19.2551L13.2016 7.20737ZM7.56966 7.95828L10.2653 10.4795C10.3319 10.5417 10.4159 10.5728 10.5001 10.5728C10.5843 10.5728 10.6683 10.5417 10.7347 10.4795L13.3969 7.98964L19.2534 13.4539H1.74007L7.56966 7.95828ZM13.9131 7.50693L19.804 1.99752V13.0035L13.9131 7.50693Z" fill="white"/>
</svg>
