<svg width="30" height="30" viewBox="0 0 30 30" fill="none" xmlns="http://www.w3.org/2000/svg">
<path d="M3.75001 6.25013C3.58437 6.24778 3.41992 6.27838 3.26621 6.34015C3.1125 6.40192 2.9726 6.49362 2.85463 6.60992C2.73667 6.72623 2.643 6.86482 2.57907 7.01764C2.51513 7.17046 2.48221 7.33447 2.48221 7.50013C2.48221 7.66578 2.51513 7.82979 2.57907 7.98261C2.643 8.13543 2.73667 8.27402 2.85463 8.39033C2.9726 8.50663 3.1125 8.59833 3.26621 8.6601C3.41992 8.72187 3.58437 8.75247 3.75001 8.75012H26.25C26.4157 8.75247 26.5801 8.72187 26.7338 8.6601C26.8875 8.59833 27.0274 8.50663 27.1454 8.39033C27.2634 8.27402 27.357 8.13543 27.421 7.98261C27.4849 7.82979 27.5178 7.66578 27.5178 7.50013C27.5178 7.33447 27.4849 7.17046 27.421 7.01764C27.357 6.86482 27.2634 6.72623 27.1454 6.60992C27.0274 6.49362 26.8875 6.40192 26.7338 6.34015C26.5801 6.27838 26.4157 6.24778 26.25 6.25013H3.75001ZM3.75001 13.7501C3.58437 13.7478 3.41992 13.7784 3.26621 13.8402C3.1125 13.9019 2.9726 13.9936 2.85463 14.1099C2.73667 14.2262 2.643 14.3648 2.57907 14.5176C2.51513 14.6705 2.48221 14.8345 2.48221 15.0001C2.48221 15.1658 2.51513 15.3298 2.57907 15.4826C2.643 15.6354 2.73667 15.774 2.85463 15.8903C2.9726 16.0066 3.1125 16.0983 3.26621 16.1601C3.41992 16.2219 3.58437 16.2525 3.75001 16.2501H26.25C26.4157 16.2525 26.5801 16.2219 26.7338 16.1601C26.8875 16.0983 27.0274 16.0066 27.1454 15.8903C27.2634 15.774 27.357 15.6354 27.421 15.4826C27.4849 15.3298 27.5178 15.1658 27.5178 15.0001C27.5178 14.8345 27.4849 14.6705 27.421 14.5176C27.357 14.3648 27.2634 14.2262 27.1454 14.1099C27.0274 13.9936 26.8875 13.9019 26.7338 13.8402C26.5801 13.7784 26.4157 13.7478 26.25 13.7501H3.75001ZM3.75001 21.2501C3.58437 21.2478 3.41992 21.2784 3.26621 21.3402C3.1125 21.4019 2.9726 21.4936 2.85463 21.6099C2.73667 21.7262 2.643 21.8648 2.57907 22.0176C2.51513 22.1705 2.48221 22.3345 2.48221 22.5001C2.48221 22.6658 2.51513 22.8298 2.57907 22.9826C2.643 23.1354 2.73667 23.274 2.85463 23.3903C2.9726 23.5066 3.1125 23.5983 3.26621 23.6601C3.41992 23.7219 3.58437 23.7525 3.75001 23.7501H26.25C26.4157 23.7525 26.5801 23.7219 26.7338 23.6601C26.8875 23.5983 27.0274 23.5066 27.1454 23.3903C27.2634 23.274 27.357 23.1354 27.421 22.9826C27.4849 22.8298 27.5178 22.6658 27.5178 22.5001C27.5178 22.3345 27.4849 22.1705 27.421 22.0176C27.357 21.8648 27.2634 21.7262 27.1454 21.6099C27.0274 21.4936 26.8875 21.4019 26.7338 21.3402C26.5801 21.2784 26.4157 21.2478 26.25 21.2501H3.75001Z" fill="#5BBA4B"/>
</svg>
