<svg width="28" height="28" viewBox="0 0 28 28" fill="none" xmlns="http://www.w3.org/2000/svg">
<path d="M8.95993 1.68018C4.94612 1.68018 1.67993 4.94637 1.67993 8.96018V19.0402C1.67993 23.054 4.94612 26.3202 8.95993 26.3202H19.0399C23.0537 26.3202 26.3199 23.054 26.3199 19.0402V8.96018C26.3199 4.94637 23.0537 1.68018 19.0399 1.68018H8.95993ZM8.95993 2.80018H19.0399C22.4484 2.80018 25.1999 5.55174 25.1999 8.96018V19.0402C25.1999 22.4486 22.4484 25.2002 19.0399 25.2002H8.95993C5.5515 25.2002 2.79993 22.4486 2.79993 19.0402V8.96018C2.79993 5.55174 5.5515 2.80018 8.95993 2.80018ZM20.7199 6.16018C20.4229 6.16018 20.138 6.27818 19.928 6.48822C19.7179 6.69826 19.5999 6.98313 19.5999 7.28018C19.5999 7.57722 19.7179 7.86209 19.928 8.07213C20.138 8.28218 20.4229 8.40018 20.7199 8.40018C21.017 8.40018 21.3018 8.28218 21.5119 8.07213C21.7219 7.86209 21.8399 7.57722 21.8399 7.28018C21.8399 6.98313 21.7219 6.69826 21.5119 6.48822C21.3018 6.27818 21.017 6.16018 20.7199 6.16018ZM13.9999 7.84018C10.6045 7.84018 7.83993 10.6047 7.83993 14.0002C7.83993 17.3956 10.6045 20.1602 13.9999 20.1602C17.3954 20.1602 20.1599 17.3956 20.1599 14.0002C20.1599 10.6047 17.3954 7.84018 13.9999 7.84018ZM13.9999 8.96018C16.7901 8.96018 19.0399 11.21 19.0399 14.0002C19.0399 16.7903 16.7901 19.0402 13.9999 19.0402C11.2098 19.0402 8.95993 16.7903 8.95993 14.0002C8.95993 11.21 11.2098 8.96018 13.9999 8.96018Z" fill="#5BBA4B"/>
</svg>
