<svg width="21" height="21" viewBox="0 0 21 21" fill="none" xmlns="http://www.w3.org/2000/svg">
<g clip-path="url(#clip0_436_1073)">
<path d="M10.4999 2.16675C6.99992 2.16675 3.83325 4.85008 3.83325 9.00008C3.83325 11.6501 5.87492 14.7667 9.94992 18.3584C10.2666 18.6334 10.7416 18.6334 11.0583 18.3584C15.1249 14.7667 17.1666 11.6501 17.1666 9.00008C17.1666 4.85008 13.9999 2.16675 10.4999 2.16675ZM10.4999 10.5001C9.58325 10.5001 8.83325 9.75008 8.83325 8.83341C8.83325 7.91675 9.58325 7.16675 10.4999 7.16675C11.4166 7.16675 12.1666 7.91675 12.1666 8.83341C12.1666 9.75008 11.4166 10.5001 10.4999 10.5001Z" fill="white"/>
</g>
<defs>
<clipPath id="clip0_436_1073">
<rect width="20" height="20" fill="white" transform="translate(0.5 0.5)"/>
</clipPath>
</defs>
</svg>
