<svg width="184" height="56" viewBox="0 0 184 56" fill="none" xmlns="http://www.w3.org/2000/svg">
<path d="M184 0H0V56H184V0Z" fill="#5BBA4B"/>
<path fill-rule="evenodd" clip-rule="evenodd" d="M10.7143 4.20046C10.1885 4.4005 10.802 5.76746 10.9225 6.10086C11.1526 6.74543 11.4155 7.35665 11.6456 8.00122C12.0838 9.24592 12.5768 10.6129 12.8836 11.9576C13.5847 15.1249 13.8696 17.9921 13.1684 21.2816C12.5768 24.0933 11.536 26.5605 10.7143 29.2165C9.3887 33.4952 8.97239 38.2405 10.5829 42.6081C10.9773 43.6749 11.7332 45.0974 12.4015 45.9754C12.5878 46.2088 12.785 46.4644 12.9712 46.6978C13.1575 46.9312 13.3766 47.1645 13.5738 47.3868C13.7819 47.6313 13.9901 47.8091 14.2201 48.0203C15.4472 49.1649 16.4332 49.9318 17.956 50.7875C20.1033 51.9877 23.0614 53.099 25.9975 53.0657C28.9445 53.0324 31.6615 52.3211 34.1046 50.8208C36.241 49.5094 37.9939 47.9091 39.1333 45.4864C40.2946 43.0082 40.7985 39.6964 40.4918 36.6291C40.2069 33.8619 38.947 31.0169 37.7857 28.9609C37.1393 27.8162 36.482 26.7938 35.7808 25.7825C34.5209 23.9711 32.6366 21.6372 31.1247 20.0369C30.0401 18.8811 29.065 17.8921 27.9476 16.7585C27.0492 15.8472 24.7157 13.7023 23.7516 12.8911L23.2147 12.4243C22.2835 11.6242 21.3523 10.8907 20.3663 10.0905C19.5008 9.37928 18.3285 8.52356 17.4192 7.86787C16.729 7.36777 11.7661 3.83374 10.7362 4.2227L10.7143 4.20046ZM26.841 27.5051C28.5173 27.3717 30.4454 27.8496 31.8259 28.4164C37.4461 30.7168 40.7328 37.5071 38.1363 43.9639C37.8734 44.6196 37.4571 45.3975 37.1065 45.9087C35.9233 47.6646 34.4333 49.076 32.4175 50.054C26.4905 52.9323 19.4789 50.3874 16.6852 44.5751C14.8556 40.7633 15.1733 36.3624 17.4411 32.8395C18.5038 31.1836 20.2129 29.5944 22.1192 28.6942C23.6858 27.9496 24.8909 27.6607 26.8191 27.5162L26.841 27.5051ZM28.7145 32.7839C30.7193 32.6061 32.8338 33.4063 34.3785 34.6176C34.5867 34.7843 34.7401 34.9399 34.9373 35.1066C35.5179 35.5956 36.3177 36.6625 36.7559 37.5849C37.227 38.5628 37.5447 39.7297 37.6104 40.9744C37.7529 43.486 36.8107 45.5642 35.3426 47.2757C35.1783 47.4757 34.9701 47.6535 34.7948 47.8091C34.1704 48.3314 33.6993 48.7204 32.8886 49.1205C30.1716 50.4541 26.9835 50.2985 24.4527 48.6315C23.8502 48.2314 23.7625 48.1203 23.2586 47.698C22.9737 47.4535 22.4917 46.8756 22.2397 46.5422C20.1691 43.8528 19.9828 39.4963 21.9329 36.6847C22.3602 36.0623 22.3711 36.0401 22.8642 35.4956C23.4558 34.8288 24.3212 34.1508 25.3182 33.6619C26.4357 33.1062 27.3121 32.9173 28.6925 32.795L28.7145 32.7839Z" fill="white"/>
<path d="M60.5409 27.9607H60.3766L60.278 28.094C59.8507 28.6608 59.3358 29.0831 58.7442 29.361C58.1526 29.6388 57.5171 29.7721 56.8488 29.7721C55.4684 29.7721 54.2962 29.2832 53.3649 28.3163C52.4228 27.3272 51.9626 26.1714 51.9626 24.7712C51.9626 23.3709 52.4118 22.3151 53.354 21.326C54.2743 20.3592 55.4465 19.8702 56.8269 19.8702C57.6377 19.8702 58.3717 20.048 59.0071 20.4147C59.522 20.7037 59.9931 21.126 60.4204 21.6705L60.519 21.7928H64.4082L64.211 21.326C63.5427 19.7702 62.5458 18.5588 61.253 17.692C59.9602 16.8363 58.4703 16.4028 56.805 16.4028C54.2195 16.4028 52.105 17.3586 50.5165 19.2478C49.158 20.8704 48.4678 22.7263 48.4678 24.7712C48.4678 26.816 49.158 28.7497 50.5274 30.3945C52.1051 32.2838 54.1976 33.2395 56.7612 33.2395C58.4374 33.2395 59.9493 32.795 61.253 31.9059C62.48 31.0724 63.4551 29.9166 64.1234 28.4497L64.3425 27.9718H60.5299L60.5409 27.9607Z" fill="white"/>
<path d="M81.017 32.4064L74.6408 16.87L74.5531 16.6699H71.8361L71.7485 16.87L65.3723 32.4064L65.186 32.8731H69.0315L69.1191 32.662L70.6091 28.8612H75.7911L77.2811 32.662L77.3687 32.8731H81.2141L81.0279 32.4064H81.017ZM74.4655 25.3939H71.9457L73.2056 22.1155L74.4655 25.3939Z" fill="white"/>
<path d="M98.0203 32.4064L91.9509 16.8811L91.8742 16.6699H91.6442H89.1682H88.9381L88.8614 16.8811L82.792 32.4064L82.6167 32.862H83.0988H86.2211H86.4512L86.5388 32.6509L90.4062 21.9487L94.2735 32.6509L94.3611 32.862H94.5912H97.7136H98.1956L98.0203 32.4064Z" fill="white"/>
<path d="M120.008 18.8592C118.419 17.2256 116.436 16.3921 114.103 16.3921C112.175 16.3921 110.433 16.9922 108.932 18.1814C107.409 19.3705 106.434 20.9486 106.028 22.86H104.078V16.6699H100.583V32.8732H104.078V26.4052H105.93C106.28 28.4945 107.277 30.1837 108.91 31.4395C110.433 32.6287 112.186 33.2288 114.092 33.2288C116.403 33.2288 118.386 32.4064 119.986 30.795C121.585 29.1835 122.385 27.172 122.385 24.8493C122.385 22.5267 121.585 20.504 119.997 18.8704L120.008 18.8592ZM114.103 19.8483C115.45 19.8483 116.601 20.3373 117.521 21.2931C118.452 22.2599 118.912 23.4046 118.912 24.7827C118.912 26.1607 118.463 27.3276 117.521 28.3167C116.601 29.2835 115.45 29.7725 114.081 29.7725C112.711 29.7725 111.616 29.2947 110.685 28.3167C109.764 27.3498 109.293 26.1607 109.293 24.7827C109.293 23.4046 109.742 22.271 110.685 21.2931C111.616 20.3262 112.733 19.8483 114.103 19.8483Z" fill="white"/>
<path d="M137.121 16.6699H123.941H123.613V17.0033V19.7928V20.1262H123.941H128.784V32.5286V32.862H129.113H131.95H132.279V32.5286V20.1262H137.121H137.45V19.7928V17.0033V16.6699H137.121Z" fill="white"/>
<path d="M150.827 16.6699H140.266H139.937V17.0033V32.5286V32.862H140.266H150.827H151.156V32.5286V29.7392V29.4058H150.827H143.432V26.5052H150.597H150.926V26.1718V23.3824V23.049H150.597H143.432V20.1262H150.827H151.156V19.7928V17.0033V16.6699H150.827Z" fill="white"/>
<path d="M171.729 16.6699H167.873H167.643L167.566 16.8811L163.611 27.9055L159.656 16.8811L159.579 16.6699H159.349H155.504H155.175V17.0033V32.5286V32.862H155.504H158.331H158.659V32.5286V22.8378L162.099 32.6509L162.176 32.862H162.406H164.816H165.046L165.123 32.6509L168.563 22.8378V32.5286V32.862H168.892H171.729H172.058V32.5286V17.0033V16.6699H171.729Z" fill="white"/>
<path d="M54.592 42.0085H53.9456V38.43L52.4666 42.0085H51.9078L50.4179 38.43V42.0085H49.7715V37.5076H50.7246L52.1817 41.2083L53.6498 37.5076H54.6029V42.0085H54.592Z" fill="white"/>
<path d="M64.5722 39.9746H60.7158C60.7487 40.4414 60.913 40.8082 61.1869 41.0749C61.4718 41.3416 61.8443 41.4749 62.3044 41.4749C63.0056 41.4749 63.4986 41.2193 63.7615 40.7081H64.5174C64.0354 41.6528 63.3013 42.1195 62.3153 42.1195C61.647 42.1195 61.0993 41.8973 60.661 41.4416C60.2228 40.986 60.0146 40.4192 60.0146 39.7413C60.0146 39.0634 60.2338 38.5077 60.672 38.0631C61.1102 37.6075 61.669 37.3853 62.3263 37.3853C63.0384 37.3853 63.5971 37.6408 64.0025 38.1632C64.3859 38.641 64.5722 39.2523 64.5722 39.9858V39.9746ZM60.7158 39.3745H63.871C63.7724 38.4744 63.2466 38.0298 62.2825 38.0298C61.8662 38.0298 61.5265 38.1521 61.2417 38.3966C60.9678 38.6411 60.7815 38.9634 60.7049 39.3745H60.7158Z" fill="white"/>
<path d="M73.8082 42.9535H73.1837V42.0088H70.1928V42.9535H69.5684V41.3865H69.9628L71.3541 37.4968H71.9896L73.3919 41.3865H73.7863V42.9535H73.8082ZM72.7126 41.3865L71.6938 38.4414H71.6609L70.653 41.3865H72.7126Z" fill="white"/>
<path d="M82.7814 42.0085H82.1131V38.4855L79.7029 42.0085H79.0127V37.5076H79.681V41.0194L82.1022 37.5076H82.7924V42.0085H82.7814Z" fill="white"/>
<path d="M91.4895 42.0088H90.8433V40.0862C90.5037 40.2085 90.1094 40.2752 89.6823 40.2752C89.288 40.2752 88.9485 40.164 88.6965 39.9306C88.4337 39.6973 88.3022 39.3861 88.3022 38.986V37.4968H88.9484V38.8527C88.9484 39.3972 89.2004 39.6639 89.7042 39.6639C90.1423 39.6639 90.5147 39.5972 90.8433 39.4527V37.4968H91.4895V41.9977V42.0088Z" fill="white"/>
<path d="M100.703 42.0085H100.035V39.997H97.7892V42.0085H97.1211V37.5076H97.7892V39.408H100.035V37.5076H100.703V42.0085Z" fill="white"/>
<path d="M110.125 42.0085H109.457V38.4855L107.036 42.0085H106.346V37.5076H107.014V41.0194L109.435 37.5076H110.125V42.0085Z" fill="white"/>
<path d="M119.537 42.0084H118.869V38.4855L116.458 42.0084H115.779V37.5075H116.425V41.0305L118.858 37.5075H119.548V42.0084H119.537ZM118.847 35.9405C118.814 36.285 118.693 36.5518 118.474 36.7407C118.266 36.9407 117.992 37.0297 117.652 37.0297C117.313 37.0297 117.061 36.9296 116.842 36.7296C116.623 36.5296 116.502 36.2628 116.469 35.9294H117.039C117.039 36.0961 117.105 36.2406 117.225 36.3518C117.346 36.4629 117.488 36.5184 117.652 36.5184C117.817 36.5184 117.97 36.4629 118.091 36.3518C118.211 36.2406 118.277 36.0961 118.277 35.9294H118.847V35.9405Z" fill="white"/>
<path d="M136.167 42.9531H135.532V42.0085H132.234V37.5076H132.902V41.3972H135.039V37.5076H135.685V41.3972H136.167V42.9642V42.9531Z" fill="white"/>
<path d="M145.71 39.9746H141.854C141.887 40.4414 142.051 40.8082 142.325 41.0749C142.61 41.3416 142.982 41.4749 143.443 41.4749C144.144 41.4749 144.637 41.2193 144.9 40.7081H145.656C145.174 41.6528 144.44 42.1195 143.454 42.1195C142.785 42.1195 142.237 41.8973 141.799 41.4416C141.372 40.986 141.153 40.4192 141.153 39.7413C141.153 39.0634 141.372 38.5077 141.81 38.0631C142.248 37.6075 142.807 37.3853 143.464 37.3853C144.177 37.3853 144.735 37.6408 145.141 38.1632C145.524 38.641 145.71 39.2523 145.71 39.9858V39.9746ZM141.843 39.3745H144.998C144.9 38.4744 144.374 38.0298 143.41 38.0298C142.993 38.0298 142.654 38.1521 142.38 38.3966C142.095 38.6411 141.92 38.9634 141.843 39.3745Z" fill="white"/>
<path d="M154.703 42.0085H154.034V39.997H151.789V42.0085H151.121V37.5076H151.789V39.408H154.034V37.5076H154.703V42.0085Z" fill="white"/>
<path d="M159.953 37.4968H162.91V38.108H161.771V41.9977H161.103V38.108H159.964V37.4968H159.953Z" fill="white"/>
<path d="M172.726 39.7524C172.726 40.4192 172.507 40.9859 172.069 41.4305C171.63 41.8861 171.083 42.1084 170.414 42.1084C169.746 42.1084 169.242 41.8528 168.793 41.3305V43.9532H168.146V37.4853H168.793V38.1965C169.253 37.652 169.801 37.3853 170.436 37.3853C171.072 37.3853 171.63 37.6186 172.069 38.0743C172.507 38.5299 172.715 39.0856 172.715 39.7524H172.726ZM172.036 39.7524C172.036 39.2745 171.882 38.8744 171.565 38.541C171.258 38.2076 170.864 38.0409 170.392 38.0409C169.943 38.0409 169.571 38.2187 169.253 38.5633C168.935 38.9078 168.782 39.319 168.782 39.7746C168.782 40.2303 168.946 40.6081 169.264 40.9637C169.582 41.3194 169.965 41.4972 170.392 41.4972C170.853 41.4972 171.247 41.3305 171.565 40.986C171.882 40.6414 172.036 40.2414 172.036 39.7635V39.7524Z" fill="white"/>
</svg>
