<svg width="21" height="21" viewBox="0 0 21 21" fill="none" xmlns="http://www.w3.org/2000/svg">
<mask id="mask0_2162_863" style="mask-type:luminance" maskUnits="userSpaceOnUse" x="0" y="0" width="21" height="21">
<path d="M20.2817 0.560547H0V20.8422H20.2817V0.560547Z" fill="white"/>
</mask>
<g mask="url(#mask0_2162_863)">
<path d="M4.57689 20.1358C4.08759 20.3868 3.53238 19.947 3.63125 19.3854L4.68336 13.3896L0.217589 9.13554C-0.199453 8.73752 0.017307 8.00991 0.576321 7.93132L6.78505 7.04906L9.55351 1.56413C9.80322 1.06977 10.4789 1.06977 10.7286 1.56413L13.497 7.04906L19.7058 7.93132C20.2648 8.00991 20.4815 8.73752 20.0645 9.13554L15.5987 13.3896L16.6508 19.3854C16.7497 19.947 16.1945 20.3868 15.7052 20.1358L10.1391 17.2761L4.57562 20.1358H4.57689Z" fill="#FFE595"/>
</g>
</svg>
