<?xml version="1.0" encoding="utf-8"?><svg xmlns="http://www.w3.org/2000/svg" xmlns:xlink="http://www.w3.org/1999/xlink"><symbol viewBox="0 0 28 28" id="arrow-down" xmlns="http://www.w3.org/2000/svg">
    <path d="M9.4735 10.8383L14.0002 15.365L18.5268 10.8383C18.9818 10.3833 19.7168 10.3833 20.1718 10.8383C20.6268 11.2933 20.6268 12.0283 20.1718 12.4833L14.8168 17.8383C14.3618 18.2933 13.6268 18.2933 13.1718 17.8383L7.81684 12.4833C7.36184 12.0283 7.36184 11.2933 7.81684 10.8383C8.27184 10.395 9.0185 10.3833 9.4735 10.8383Z"/>
</symbol><symbol viewBox="0 0 21 16" id="arrow-left" xmlns="http://www.w3.org/2000/svg">
    <path d="M0.292892 7.29289C-0.0976315 7.68342 -0.0976315 8.31658 0.292892 8.70711L6.65685 15.0711C7.04738 15.4616 7.68054 15.4616 8.07107 15.0711C8.46159 14.6805 8.46159 14.0474 8.07107 13.6569L2.41421 8L8.07107 2.34315C8.46159 1.95262 8.46159 1.31946 8.07107 0.928932C7.68054 0.538408 7.04738 0.538408 6.65685 0.928932L0.292892 7.29289ZM21 7L1 7V9L21 9V7Z"/>
</symbol><symbol viewBox="0 0 21 16" id="arrow-right" xmlns="http://www.w3.org/2000/svg">
    <path d="M20.7071 8.70711C21.0976 8.31658 21.0976 7.68342 20.7071 7.29289L14.3431 0.928932C13.9526 0.538408 13.3195 0.538408 12.9289 0.928932C12.5384 1.31946 12.5384 1.95262 12.9289 2.34315L18.5858 8L12.9289 13.6569C12.5384 14.0474 12.5384 14.6805 12.9289 15.0711C13.3195 15.4616 13.9526 15.4616 14.3431 15.0711L20.7071 8.70711ZM0 9H20V7H0L0 9Z"/>
</symbol><symbol viewBox="0 0 28 28" id="arrow-up" xmlns="http://www.w3.org/2000/svg">
    <path d="M9.47326 17.1617L13.9999 12.635L18.5266 17.1617C18.9816 17.6167 19.7166 17.6167 20.1716 17.1617C20.6266 16.7067 20.6266 15.9717 20.1716 15.5167L14.8166 10.1617C14.3616 9.70665 13.6266 9.70665 13.1716 10.1617L7.81659 15.5167C7.36159 15.9717 7.36159 16.7067 7.81659 17.1617C8.27159 17.605 9.01826 17.6167 9.47326 17.1617Z"/>
</symbol><symbol viewBox="0 0 24 24" id="cardiogram" xmlns="http://www.w3.org/2000/svg">
    <path d="M2.02499 1.99687C1.89374 2.0625 1.72031 2.19844 1.64062 2.29688C1.34062 2.67656 1.35468 2.17969 1.36874 10.0781L1.38281 17.2734L1.48593 17.4609C1.54218 17.5641 1.65468 17.7141 1.74374 17.7937C2.02031 18.0562 2.17968 18.1125 2.73281 18.1312L3.23437 18.15V18.7781C3.23437 19.2891 3.25312 19.4484 3.32812 19.6547C3.45937 20.0109 3.69843 20.2641 4.05937 20.4422C4.34999 20.5875 4.40156 20.5969 4.99687 20.6156L5.62499 20.6391V20.9437C5.62499 21.3234 5.69531 21.5578 5.86874 21.7734C6.15468 22.1156 6.20156 22.125 7.75781 22.125C9.02812 22.125 9.15937 22.1156 9.31874 22.0359C9.71718 21.8297 9.89062 21.5109 9.89062 20.9766V20.625H12H14.1094V20.9766C14.1094 21.5109 14.2828 21.8297 14.6812 22.0359C14.8406 22.1156 14.9719 22.125 16.2422 22.125C17.7984 22.125 17.8453 22.1156 18.1312 21.7734C18.3047 21.5578 18.375 21.3234 18.375 20.9437V20.6391L19.0031 20.6156C19.5984 20.5969 19.65 20.5875 19.9406 20.4422C20.2922 20.2687 20.5406 20.0016 20.6766 19.6406C20.7469 19.4531 20.7656 19.2844 20.7656 18.7781V18.15L21.2719 18.1312C21.6656 18.1172 21.8156 18.0938 21.9609 18.0141C22.1812 17.8969 22.4062 17.6672 22.5281 17.4375C22.6125 17.2781 22.6172 16.9922 22.6312 10.1016C22.6406 5.00625 22.6312 2.87344 22.5937 2.74219C22.5094 2.44219 22.2609 2.1375 21.9797 1.99687L21.7312 1.875H12H2.26874L2.02499 1.99687ZM21.8297 2.46562C21.9 2.52187 22.0031 2.63437 22.0547 2.72344C22.1484 2.88281 22.1484 2.96719 22.1484 10.0078C22.1484 17.0484 22.1484 17.1328 22.0547 17.2875C22.0031 17.3719 21.8859 17.4891 21.7969 17.5453L21.6328 17.6484H12H2.36718L2.20312 17.5453C2.11406 17.4891 1.99687 17.3719 1.94531 17.2875C1.85156 17.1328 1.85156 17.0391 1.83749 10.1109C1.83281 5.46094 1.84218 3.02344 1.87499 2.90625C1.93593 2.68125 2.08593 2.48906 2.26874 2.40937C2.39062 2.35781 4.05937 2.34844 12.0562 2.35781L21.6984 2.36719L21.8297 2.46562ZM20.2969 18.6844C20.2969 18.9844 20.2734 19.3125 20.2453 19.4109C20.1703 19.6547 19.9453 19.9172 19.7156 20.0203C19.5328 20.1047 19.2187 20.1094 12 20.1094C4.78124 20.1094 4.46718 20.1047 4.28437 20.0203C4.05468 19.9172 3.82968 19.6547 3.75468 19.4109C3.72656 19.3125 3.70312 18.9844 3.70312 18.6844V18.1406H12H20.2969V18.6844ZM9.42187 20.9109C9.42187 21.0797 9.38906 21.2625 9.34687 21.3562C9.21093 21.6469 9.14531 21.6562 7.73906 21.6562H6.47812L6.33281 21.5344C6.17343 21.4031 6.09374 21.1781 6.09374 20.8453V20.625H7.75781H9.42187V20.9109ZM17.9062 20.8453C17.9062 21.1781 17.8266 21.4031 17.6672 21.5344L17.5219 21.6562H16.2609C14.8547 21.6562 14.7891 21.6469 14.6531 21.3562C14.6109 21.2625 14.5781 21.0797 14.5781 20.9109V20.625H16.2422H17.9062V20.8453Z"/>
    <path d="M3.04688 3.60469C3.01406 3.66562 3 5.29219 3 8.55C3 12.8953 3.00938 13.4062 3.075 13.4719C3.14062 13.5375 4.0125 13.5469 12 13.5469C19.9875 13.5469 20.8594 13.5375 20.925 13.4719C20.9906 13.4062 21 12.8953 21 8.55C21 5.29219 20.9859 3.66562 20.9531 3.60469C20.9016 3.51562 20.7563 3.51562 12 3.51562C3.24375 3.51562 3.09844 3.51562 3.04688 3.60469ZM20.5219 6.24375L20.5078 8.50781L19.8234 8.52187C19.2 8.53125 19.1344 8.52656 19.1016 8.45156C19.0828 8.40469 18.9328 7.97812 18.7688 7.50469C18.6047 7.03125 18.4453 6.61406 18.4172 6.57656C18.3469 6.49687 18.1641 6.49687 18.0797 6.58125C18.0469 6.61875 17.8734 7.05937 17.6953 7.56562L17.3766 8.48438H16.6969H16.0172L15.5672 8.14219C14.9719 7.69219 14.9297 7.66875 14.7984 7.73906C14.7422 7.77187 14.4938 7.95 14.2453 8.14219L13.7953 8.48438H12.5016H11.2125L10.5891 9.30469C10.1484 9.89062 9.95625 10.1109 9.92813 10.0641C9.9 10.0125 9.37969 8.55 8.63906 6.43125C8.55938 6.20156 8.44688 6.12187 8.28281 6.18281C8.18906 6.22031 8.10938 6.4125 7.71094 7.54219C7.45781 8.26875 7.2375 8.85938 7.22344 8.85938C7.20938 8.85938 7.10156 8.59219 6.98438 8.25937L6.77344 7.66406L6.60938 7.65C6.45 7.63594 6.43125 7.65469 6.14531 8.03906C5.98125 8.26406 5.81719 8.475 5.77969 8.5125C5.72344 8.56875 5.51719 8.57812 4.60313 8.56875L3.49219 8.55469L3.47813 6.26719L3.46875 3.98438H12H20.5312L20.5219 6.24375ZM9.05156 9.06562C9.69375 10.8937 9.71719 10.9453 9.94219 10.8891C9.98438 10.875 10.3406 10.4391 10.7391 9.90937L11.4609 8.95312H12.7219H13.9828L14.4375 8.60156L14.8922 8.25469L15.3797 8.61562L15.8625 8.97656L16.6828 8.99062C17.2828 9 17.5406 8.98594 17.625 8.94375C17.7188 8.89219 17.7891 8.75156 17.9766 8.2125C18.1078 7.84687 18.225 7.54688 18.2391 7.54688C18.2578 7.54688 18.3797 7.86094 18.5156 8.25C18.6469 8.63437 18.7641 8.95781 18.7688 8.9625C18.7688 8.96719 19.1625 8.98125 19.6406 8.99531L20.5078 9.02344V11.0391V13.0547H12H3.49219L3.47813 11.0484L3.46875 9.04688H4.71094H5.95781L6.07969 8.91562C6.14531 8.84531 6.2625 8.7 6.34219 8.5875C6.42188 8.47969 6.50156 8.40469 6.51563 8.42344C6.53438 8.44687 6.64688 8.75625 6.77344 9.11719C6.89531 9.47812 7.01719 9.80156 7.04531 9.82969C7.06875 9.8625 7.14844 9.89062 7.21875 9.89062C7.28906 9.89062 7.36875 9.8625 7.39688 9.82969C7.42031 9.80156 7.65 9.1875 7.90313 8.47031C8.175 7.69219 8.37188 7.19062 8.39531 7.22812C8.41406 7.26094 8.70938 8.08594 9.05156 9.06562Z"/>
    <path d="M7.9687 14.5781C7.5187 14.789 7.2937 15.1312 7.2937 15.6093C7.2937 15.8109 7.32183 15.9703 7.37808 16.0781C7.7437 16.7812 8.63901 16.9453 9.18276 16.4015C9.6937 15.8859 9.59995 15.0328 8.99058 14.6578C8.69058 14.4703 8.2687 14.4375 7.9687 14.5781ZM8.58745 15C8.7937 15.0609 8.98589 15.2718 9.02808 15.4921C9.14526 16.1156 8.37183 16.4859 7.93589 16.0125C7.80464 15.8718 7.7812 15.8109 7.7812 15.6093C7.7812 15.4171 7.80464 15.3515 7.92651 15.2109C8.0437 15.0796 8.20776 14.9906 8.39058 14.9578C8.40464 14.9531 8.4937 14.9765 8.58745 15Z"/>
    <path d="M11.5922 14.564C11.2125 14.6953 10.875 15.1922 10.875 15.6093C10.875 16.1437 11.3063 16.6265 11.85 16.7156C12.1875 16.7672 12.5063 16.6547 12.7734 16.3875C13.2328 15.9234 13.2469 15.3422 12.8109 14.8593C12.4969 14.5078 12.0516 14.4 11.5922 14.564ZM12.2672 15.0422C12.8719 15.3187 12.6656 16.2187 12 16.2187C11.5125 16.2187 11.2266 15.7312 11.4563 15.2859C11.5359 15.1406 11.8359 14.9531 12 14.9531C12.0375 14.9531 12.1594 14.9953 12.2672 15.0422Z"/>
    <path d="M15.2203 14.55C14.625 14.7656 14.3109 15.4875 14.5734 16.0594C14.9719 16.9312 16.1766 16.9453 16.6219 16.0781C16.7391 15.8437 16.7344 15.3609 16.6078 15.1172C16.3406 14.6109 15.7453 14.3672 15.2203 14.55ZM15.7594 15C15.8531 15.0281 15.9938 15.1219 16.0734 15.2156C16.1953 15.3516 16.2188 15.4172 16.2188 15.6094C16.2188 15.8109 16.1953 15.8719 16.0688 16.0125C15.7313 16.3734 15.1453 16.2656 14.9953 15.8109C14.8688 15.4219 15.1266 15.0328 15.5625 14.9578C15.5766 14.9531 15.6656 14.9766 15.7594 15Z"/>
    <path d="M3.0749 15.45C2.97646 15.5484 2.98115 15.6703 3.08427 15.7641C3.15927 15.8344 3.32802 15.8438 4.48115 15.8438C5.88271 15.8438 5.90615 15.8391 5.90615 15.6094C5.90615 15.3797 5.88271 15.375 4.47177 15.375C3.32802 15.375 3.13583 15.3844 3.0749 15.45Z"/>
    <path d="M18.15 15.4312C18.1172 15.4641 18.0938 15.5437 18.0938 15.6094C18.0938 15.8391 18.1172 15.8438 19.5234 15.8438C20.7422 15.8438 20.85 15.8391 20.9203 15.7594C21.0187 15.6516 21.0234 15.5437 20.925 15.45C20.8641 15.3844 20.6719 15.375 19.5281 15.375C18.5625 15.375 18.1922 15.3891 18.15 15.4312Z"/>
</symbol><symbol viewBox="0 0 26 26" id="close" xmlns="http://www.w3.org/2000/svg">
    <path d="M6.9082 6.63599L19.6361 19.3639" stroke-width="2" stroke-linecap="round"/>
    <path d="M19.636 6.63599L6.90806 19.3639" stroke-width="2" stroke-linecap="round"/>
</symbol><symbol viewBox="0 0 24 24" id="diagnostic" xmlns="http://www.w3.org/2000/svg">
    <g clip-path="url(#agclip0_2032_1017)">
        <path d="M3.15475 0.37977C2.70944 0.43602 2.25006 0.801645 2.086 1.22821C2.01569 1.42508 1.99225 1.44383 1.81413 1.47196C1.03131 1.59852 0.22975 2.41883 0.0516252 3.27196C-0.0139998 3.5954 -0.0186873 7.70633 0.0469377 8.41415C0.164125 9.63758 0.496938 10.8048 1.03131 11.8829C1.42975 12.6751 1.84694 13.2704 2.43756 13.8891C3.42194 14.9204 4.5985 15.5673 5.85944 15.7735C6.10319 15.811 6.31881 15.8438 6.34225 15.8438C6.361 15.8438 6.37506 17.072 6.37506 18.5766C6.37506 21.5766 6.37506 21.5673 6.66569 22.1579C7.20944 23.2641 8.58288 23.8782 9.79694 23.5595C10.6782 23.3251 11.4282 22.6032 11.7282 21.7032C11.8266 21.4126 11.8313 21.2954 11.8547 19.0548C11.8876 16.4626 11.8735 16.561 12.1969 16.2891C12.6329 15.9188 13.2282 15.9516 13.6313 16.3641C13.8516 16.5891 13.9219 16.8798 13.9219 17.5548C13.9219 18.197 13.9876 18.5063 14.2079 18.947C14.6391 19.8048 15.7219 20.3345 16.6829 20.161C17.0579 20.0954 17.5501 19.8657 17.8313 19.636C18.0798 19.4251 18.3938 18.9891 18.5251 18.6657L18.6329 18.3985L18.6563 14.7423C18.6891 10.7345 18.6704 10.9266 18.9797 10.5141C19.2282 10.186 19.6407 9.98446 20.0579 9.98446C20.2313 9.98446 20.4704 10.0173 20.5922 10.0595C20.8876 10.1579 21.2016 10.4485 21.361 10.772L21.4922 11.0391V15.2251V19.411L21.211 19.5095C19.6782 20.0251 19.2422 21.9563 20.4094 23.0532C20.7657 23.386 21.1032 23.5548 21.5485 23.6298C23.0204 23.8735 24.3047 22.4673 23.9297 21.0329C23.7329 20.2829 23.2454 19.7532 22.5188 19.5048L22.2422 19.411L22.2188 15.1079C22.1954 10.997 22.1907 10.7954 22.1063 10.5938C21.8766 10.0595 21.5297 9.6704 21.0797 9.44071C19.9313 8.85477 18.5766 9.3704 18.0844 10.5845L17.9766 10.8516L17.9532 14.5548C17.9344 17.5876 17.9157 18.286 17.8641 18.422C17.4844 19.3688 16.4157 19.7954 15.5485 19.3548C15.1782 19.1626 14.836 18.7641 14.7094 18.3657C14.686 18.2813 14.6485 17.8407 14.6297 17.3907C14.5969 16.5938 14.5922 16.561 14.4516 16.2891C13.6922 14.8079 11.5313 15.0751 11.1563 16.697C11.1329 16.8141 11.1094 17.8079 11.1094 19.0641C11.1094 21.0235 11.1001 21.2532 11.0251 21.5016C10.5751 22.9313 8.80787 23.3954 7.72038 22.3641C7.57975 22.2329 7.411 22.022 7.34538 21.9001C7.08288 21.4173 7.07819 21.3516 7.07819 18.4876V15.8532L7.20944 15.8251C7.27975 15.811 7.45319 15.7876 7.59381 15.7688C7.9735 15.722 8.56413 15.5438 9.01881 15.3329C10.9641 14.4329 12.4735 12.4688 13.1016 10.0126C13.3969 8.85477 13.4251 8.51727 13.4251 5.81258C13.4297 3.44071 13.4297 3.39383 13.3266 3.06571C13.2001 2.67665 12.9188 2.23133 12.6423 1.98758C12.4079 1.78602 11.8594 1.50946 11.6157 1.47196C11.4563 1.44383 11.4282 1.41571 11.3298 1.20008C11.1657 0.853209 11.0016 0.679771 10.6688 0.515709C10.4204 0.393833 10.3173 0.370396 10.0407 0.370396C9.59069 0.370396 9.30006 0.496958 9.00475 0.825083C8.70944 1.14852 8.60631 1.44383 8.63444 1.8704C8.71412 2.98602 9.99381 3.56727 10.8844 2.89227C11.0485 2.76571 11.3438 2.37196 11.4001 2.19383C11.4094 2.17039 11.536 2.19383 11.6813 2.25008C12.0329 2.38133 12.3797 2.70946 12.5485 3.0704L12.6797 3.35165L12.6938 5.53133C12.7126 7.80946 12.6751 8.51258 12.5157 9.32821C12.1829 10.9688 11.4563 12.3985 10.4063 13.4579C8.96725 14.911 7.17663 15.4407 5.40475 14.9251C3.81569 14.4657 2.47975 13.2282 1.61725 11.4235C1.30319 10.7626 1.13913 10.2985 0.984438 9.65165C0.7735 8.75165 0.750063 8.40477 0.750063 5.85008C0.750063 3.51571 0.75475 3.41727 0.8485 3.16883C0.970375 2.83602 1.2985 2.47508 1.60788 2.32508C2.01569 2.1329 2.03444 2.1329 2.10475 2.32977C2.1985 2.58758 2.60162 2.96727 2.87819 3.06102C3.80163 3.37508 4.72038 2.77977 4.77194 1.82821C4.8235 0.928207 4.07819 0.262583 3.15475 0.37977ZM3.74069 1.17196C4.19069 1.44852 4.19069 2.13758 3.74069 2.37196C3.26725 2.61571 2.71881 2.29227 2.71881 1.77196C2.71881 1.25165 3.30475 0.90477 3.74069 1.17196ZM10.3407 1.15321C10.7719 1.35946 10.8563 1.93133 10.5048 2.26883C10.1204 2.63914 9.44069 2.40946 9.35162 1.88446C9.3235 1.7204 9.33756 1.64071 9.43131 1.46727C9.60944 1.11102 9.98444 0.984459 10.3407 1.15321ZM22.4485 20.2548C22.711 20.3673 22.936 20.5782 23.1001 20.8548C23.1938 21.0188 23.2266 21.1407 23.2407 21.4501C23.2594 21.7876 23.2454 21.8673 23.1469 22.0876C22.6641 23.1423 21.2344 23.1985 20.6391 22.186C20.4797 21.9095 20.4376 21.4032 20.5501 21.061C20.8032 20.3016 21.6985 19.922 22.4485 20.2548Z"/>
        <path d="M21.6561 21.2813C21.5342 21.4031 21.5342 21.661 21.6467 21.7641C21.7827 21.886 22.0077 21.8672 22.1202 21.7219C22.2467 21.5578 22.242 21.4453 22.1014 21.3047C21.9655 21.1641 21.7827 21.1547 21.6561 21.2813Z"/>
        <path d="M3.19708 12.1547C3.06114 12.3 3.06114 12.5157 3.20177 12.6469C3.25802 12.6985 3.5252 12.8344 3.79239 12.9375C5.49864 13.6266 7.4627 13.6828 9.22052 13.1016C10.2705 12.75 10.5658 12.4828 10.2424 12.1641C10.0877 12.0047 9.95645 12.0141 9.41739 12.2297C7.6877 12.9282 5.70958 12.9188 3.95645 12.2157C3.47364 12.0188 3.33302 12.0094 3.19708 12.1547Z"/>
    </g>
    <defs>
        <clipPath id="agclip0_2032_1017">
            <rect width="24" height="24"/>
        </clipPath>
    </defs>
</symbol><symbol viewBox="0 0 24 25" id="earth-globe" xmlns="http://www.w3.org/2000/svg">
    <g clip-path="url(#ahclip0_2032_1010)">
        <path d="M4.6172 0.617188C4.50002 0.729687 4.50002 0.739061 4.50002 1.625C4.50002 2.51094 4.50002 2.52031 4.6172 2.63281C4.7297 2.74531 4.74845 2.75 5.46095 2.75H6.18752V4.83125V6.9125L5.80314 7.23125C2.69064 9.79531 1.48127 14.0141 2.76095 17.8437C4.08752 21.8094 7.82345 24.5 12 24.5C14.8078 24.5 17.5172 23.2625 19.3453 21.1484C20.3578 19.9812 21.0703 18.6172 21.4453 17.1453C21.6703 16.2453 21.7219 15.8234 21.7219 14.75C21.7219 13.6766 21.6703 13.2547 21.4453 12.3547C20.9344 10.3531 19.7813 8.53437 18.1735 7.20781L17.8125 6.90781V4.83125V2.75H18.2813H18.75V4.13281V5.52031L18.8672 5.63281C19.0172 5.7875 19.2328 5.7875 19.3828 5.63281L19.5 5.52031V3.125V0.729687L19.3828 0.617188L19.2703 0.5H12H4.7297L4.6172 0.617188ZM18.75 1.625V2H12H5.25002V1.625V1.25H12H18.75V1.625ZM17.0625 4.625V6.5H12H6.93752V4.625V2.75H12H17.0625V4.625ZM9.18752 7.26406C9.18752 7.26875 9.06095 7.65312 8.90627 8.11719C8.75158 8.58125 8.62502 9.00781 8.62502 9.06406C8.62502 9.125 8.76564 9.51875 8.93439 9.94062L9.23908 10.7094L8.83595 11.5156C8.4422 12.3031 8.42814 12.3219 8.30627 12.2891C8.07658 12.2328 7.00783 12.0312 6.92814 12.0312C6.88595 12.0312 6.4547 12.3453 5.97189 12.7297L5.09064 13.4328L4.05939 13.9016C3.4922 14.1594 3.01877 14.3609 3.00939 14.3562C3.0047 14.3469 3.02814 14.0703 3.06564 13.7375C3.35627 11.2391 4.6172 9.05 6.63283 7.53594L7.00783 7.25469L8.10002 7.25C8.69533 7.25 9.18752 7.25469 9.18752 7.26406ZM13.6406 7.3625C13.6406 7.42812 13.8516 7.96719 14.1094 8.56719C14.3672 9.17187 14.5781 9.67344 14.5781 9.69219C14.5781 9.71094 14.3672 10.0766 14.1094 10.5078C13.8516 10.9437 13.6406 11.3328 13.6406 11.3844C13.6406 11.5766 14.3485 13.9297 14.4281 14.0141C14.4938 14.075 14.7563 14.1359 15.4406 14.2531C15.9469 14.3375 16.3828 14.4266 16.4016 14.45C16.425 14.4734 16.561 14.8484 16.7063 15.2891L16.9688 16.0859L16.6313 17.0937L16.2985 18.1016L16.6641 19.1984L17.025 20.2906L17.4938 20.8766C18.0281 21.5469 18.0281 21.4578 17.4703 21.8844C16.6969 22.475 15.7875 22.9625 14.9016 23.2578C14.6344 23.3469 14.4141 23.4219 14.4047 23.4219C14.3953 23.4219 14.3906 23.3 14.3906 23.15C14.3906 22.8922 14.4094 22.85 14.8828 22.0625L15.375 21.2422V20.1125C15.375 19.1 15.3656 18.9688 15.2953 18.8797C15.2485 18.8281 14.7797 18.5656 14.25 18.2984L13.2938 17.8156L12.961 16.9953L12.6328 16.1797L11.8922 15.6219C11.3016 15.1719 11.1188 15.0594 11.0016 15.0594C10.8985 15.0641 10.5 15.2609 9.69377 15.725L8.53127 16.3906H7.02658C6.1547 16.3906 5.48908 16.4094 5.4422 16.4375C5.33908 16.4891 5.28283 16.6297 5.15627 17.1406C5.10002 17.3609 5.03908 17.6187 5.01095 17.7125C4.97345 17.8484 4.86564 17.975 4.48127 18.3125C4.20939 18.5422 3.9797 18.7344 3.96095 18.7344C3.85314 18.7344 3.38908 17.4453 3.21564 16.6719C3.08908 16.0953 2.98595 15.2656 3.03752 15.2094C3.05627 15.1906 3.60939 14.9328 4.26095 14.6328C5.34845 14.1359 5.49845 14.0562 5.94377 13.7047C6.21095 13.4937 6.57658 13.2078 6.7547 13.0672L7.07814 12.8141L7.84689 12.9641C8.26877 13.0437 8.65783 13.1094 8.7047 13.1094C8.75627 13.1094 8.84064 13.0625 8.8922 13.0016C9.00939 12.875 10.0313 10.8453 10.0313 10.7375C10.0313 10.6953 9.88595 10.3016 9.70783 9.85625L9.3797 9.04531L9.68908 8.15L9.99845 7.25H11.8172H13.6406V7.3625ZM17.4094 7.57344C19.1391 8.87656 20.311 10.7047 20.7844 12.8422C21.3844 15.5234 20.6813 18.3734 18.8953 20.5156C18.7125 20.7359 18.5438 20.9141 18.5203 20.9141C18.4969 20.9141 18.2953 20.6891 18.0797 20.4125L17.6813 19.9109L17.3953 19.0531C17.236 18.5797 17.1094 18.1531 17.1094 18.1016C17.1094 18.05 17.2453 17.5953 17.4141 17.0937C17.5828 16.5922 17.7188 16.1375 17.7188 16.0859C17.7188 16.0344 17.5594 15.5094 17.3625 14.9234C17.1 14.1312 16.9828 13.8406 16.9078 13.7891C16.8516 13.7516 16.3922 13.6531 15.8906 13.5687L14.9766 13.4094L14.7094 12.5C14.5641 11.9984 14.4422 11.5484 14.4422 11.5016C14.4375 11.4547 14.6485 11.0609 14.9063 10.6297C15.1688 10.1984 15.375 9.79531 15.375 9.72969C15.375 9.66875 15.1688 9.12969 14.911 8.53906C14.4703 7.50781 14.4563 7.45625 14.5266 7.35781C14.6016 7.25469 14.6156 7.25469 15.7922 7.25H16.9828L17.4094 7.57344ZM11.4985 16.2734L12.0281 16.6719L12.3047 17.3609C12.736 18.4578 12.6047 18.3125 13.6828 18.8516L14.625 19.3203V20.1734V21.0266L14.1328 21.8422L13.6406 22.6625V23.1312V23.6L13.4906 23.6281C11.7563 23.9422 9.77345 23.6609 8.11877 22.8594C6.64689 22.1469 5.4422 21.1109 4.54689 19.7937L4.31252 19.4422L4.91252 18.9312C5.24064 18.65 5.54064 18.3781 5.58283 18.3312C5.62502 18.2797 5.71877 17.9937 5.79377 17.6891L5.92502 17.1406H7.33595H8.7422L9.84377 16.5078C10.4485 16.1609 10.95 15.875 10.9594 15.875C10.9641 15.875 11.2078 16.0531 11.4985 16.2734Z"/>
    </g>
    <defs>
        <clipPath id="ahclip0_2032_1010">
            <rect width="24" height="24" transform="translate(0 0.5)"/>
        </clipPath>
    </defs>
</symbol><symbol viewBox="0 0 21 15" id="email" xmlns="http://www.w3.org/2000/svg">
    <path d="M20.4817 13.9191C20.4926 13.8846 20.5 13.8483 20.5 13.81V1.18935C20.5 1.15087 20.4926 1.11428 20.4814 1.0796C20.4798 1.07485 20.4789 1.0701 20.477 1.06534C20.4622 1.02472 20.4404 0.988139 20.413 0.956069C20.4111 0.953931 20.4109 0.951318 20.4091 0.94918C20.4079 0.947992 20.4065 0.947517 20.4053 0.946329C20.3761 0.914496 20.3415 0.88884 20.3028 0.869598C20.2998 0.868173 20.2975 0.866272 20.2944 0.864847C20.2578 0.84798 20.2179 0.838478 20.1759 0.835628C20.1717 0.83539 20.1678 0.83444 20.1636 0.83444C20.1596 0.834202 20.1562 0.833252 20.1522 0.833252H0.84824C0.844296 0.833252 0.840583 0.834202 0.836639 0.83444C0.832927 0.834677 0.829215 0.83539 0.825503 0.835628C0.783046 0.838478 0.742445 0.848218 0.705324 0.865322C0.703004 0.866272 0.701148 0.867935 0.698828 0.868885C0.659387 0.888127 0.624355 0.914259 0.59489 0.946566C0.59373 0.947754 0.592338 0.947992 0.591178 0.94918C0.589322 0.95108 0.58909 0.953693 0.587234 0.955831C0.559857 0.987901 0.537817 1.02472 0.522969 1.06534C0.521112 1.0701 0.520184 1.07485 0.51856 1.07984C0.507424 1.11452 0.5 1.1511 0.5 1.18959V13.8105C0.5 13.8494 0.507656 13.8865 0.519024 13.9217C0.520648 13.9264 0.521576 13.9309 0.5232 13.9357C0.538281 13.9765 0.560553 14.0134 0.588162 14.0454C0.589786 14.0473 0.59025 14.0497 0.591874 14.0516C0.593266 14.0533 0.595122 14.0542 0.596746 14.0559C0.608114 14.068 0.620643 14.0787 0.633635 14.0891C0.639435 14.0937 0.644539 14.0991 0.650571 14.1034C0.665884 14.1143 0.682356 14.1231 0.699292 14.1312C0.703468 14.1331 0.707181 14.1362 0.711357 14.1378C0.75335 14.1561 0.799518 14.1666 0.848008 14.1666H20.1518C20.2003 14.1666 20.2464 14.1564 20.2884 14.1378C20.2949 14.135 20.3009 14.1307 20.3072 14.1274C20.3216 14.12 20.336 14.1124 20.3492 14.1032C20.3562 14.0982 20.3624 14.0918 20.3692 14.0863C20.381 14.0766 20.3926 14.0668 20.4028 14.0556C20.4046 14.0537 20.4067 14.0523 20.4086 14.0504C20.4104 14.0483 20.4109 14.0454 20.4128 14.0433C20.4399 14.0115 20.4617 13.9749 20.4766 13.9345C20.4789 13.9293 20.48 13.9243 20.4817 13.9191ZM1.19625 1.99752L7.05368 7.47581L1.19625 12.9978V1.99752ZM13.2016 7.20737C13.1775 7.22352 13.1519 7.23706 13.1318 7.25987C13.1241 7.26842 13.1215 7.27958 13.1148 7.28861L10.5001 9.73402L1.74517 1.54568H19.2551L13.2016 7.20737ZM7.56966 7.95828L10.2653 10.4795C10.3319 10.5417 10.4159 10.5728 10.5001 10.5728C10.5843 10.5728 10.6683 10.5417 10.7347 10.4795L13.3969 7.98964L19.2534 13.4539H1.74007L7.56966 7.95828ZM13.9131 7.50693L19.804 1.99752V13.0035L13.9131 7.50693Z"/>
</symbol><symbol viewBox="0 0 28 28" id="facebook" xmlns="http://www.w3.org/2000/svg">
    <path d="M13.9999 1.68018C7.20241 1.68018 1.67993 7.20265 1.67993 14.0002C1.67993 20.1709 6.23135 25.2777 12.1592 26.1681L12.8023 26.2655V16.5574H9.89181V14.5864H12.8023V11.9691C12.8023 10.3574 13.189 9.29585 13.8293 8.62986C14.4696 7.96388 15.4156 7.62799 16.7321 7.62799C17.7848 7.62799 18.1943 7.69177 18.5838 7.73955V9.35283H17.2134C16.4358 9.35283 15.7978 9.78668 15.4667 10.3646C15.1355 10.9424 15.0324 11.6324 15.0324 12.3355V14.5853H18.4613L18.1562 16.5563H15.0324V26.2808L15.6679 26.1944C21.68 25.379 26.3199 20.2312 26.3199 14.0002C26.3199 7.20265 20.7975 1.68018 13.9999 1.68018ZM13.9999 2.80018C20.1922 2.80018 25.1999 7.80794 25.1999 14.0002C25.1999 19.4489 21.3 23.93 16.1524 24.9388V17.6763H19.1165L19.7673 13.4653H16.1524V12.3355C16.1524 11.7545 16.2587 11.2339 16.4379 10.9213C16.6171 10.6086 16.7898 10.4728 17.2134 10.4728H19.7038V6.72564L19.2182 6.66002C18.8823 6.61457 18.1155 6.50799 16.7321 6.50799C15.2184 6.50799 13.919 6.92035 13.0221 7.8533C12.1252 8.78625 11.6823 10.1754 11.6823 11.9691V13.4664H8.77181V17.6774H11.6823V24.9038C6.61745 23.8309 2.79993 19.3899 2.79993 14.0002C2.79993 7.80794 7.8077 2.80018 13.9999 2.80018Z"/>
</symbol><symbol viewBox="0 0 30 30" id="hamburger-menu" xmlns="http://www.w3.org/2000/svg">
    <path d="M3.75001 6.25013C3.58437 6.24778 3.41992 6.27838 3.26621 6.34015C3.1125 6.40192 2.9726 6.49362 2.85463 6.60992C2.73667 6.72623 2.643 6.86482 2.57907 7.01764C2.51513 7.17046 2.48221 7.33447 2.48221 7.50013C2.48221 7.66578 2.51513 7.82979 2.57907 7.98261C2.643 8.13543 2.73667 8.27402 2.85463 8.39033C2.9726 8.50663 3.1125 8.59833 3.26621 8.6601C3.41992 8.72187 3.58437 8.75247 3.75001 8.75012H26.25C26.4157 8.75247 26.5801 8.72187 26.7338 8.6601C26.8875 8.59833 27.0274 8.50663 27.1454 8.39033C27.2634 8.27402 27.357 8.13543 27.421 7.98261C27.4849 7.82979 27.5178 7.66578 27.5178 7.50013C27.5178 7.33447 27.4849 7.17046 27.421 7.01764C27.357 6.86482 27.2634 6.72623 27.1454 6.60992C27.0274 6.49362 26.8875 6.40192 26.7338 6.34015C26.5801 6.27838 26.4157 6.24778 26.25 6.25013H3.75001ZM3.75001 13.7501C3.58437 13.7478 3.41992 13.7784 3.26621 13.8402C3.1125 13.9019 2.9726 13.9936 2.85463 14.1099C2.73667 14.2262 2.643 14.3648 2.57907 14.5176C2.51513 14.6705 2.48221 14.8345 2.48221 15.0001C2.48221 15.1658 2.51513 15.3298 2.57907 15.4826C2.643 15.6354 2.73667 15.774 2.85463 15.8903C2.9726 16.0066 3.1125 16.0983 3.26621 16.1601C3.41992 16.2219 3.58437 16.2525 3.75001 16.2501H26.25C26.4157 16.2525 26.5801 16.2219 26.7338 16.1601C26.8875 16.0983 27.0274 16.0066 27.1454 15.8903C27.2634 15.774 27.357 15.6354 27.421 15.4826C27.4849 15.3298 27.5178 15.1658 27.5178 15.0001C27.5178 14.8345 27.4849 14.6705 27.421 14.5176C27.357 14.3648 27.2634 14.2262 27.1454 14.1099C27.0274 13.9936 26.8875 13.9019 26.7338 13.8402C26.5801 13.7784 26.4157 13.7478 26.25 13.7501H3.75001ZM3.75001 21.2501C3.58437 21.2478 3.41992 21.2784 3.26621 21.3402C3.1125 21.4019 2.9726 21.4936 2.85463 21.6099C2.73667 21.7262 2.643 21.8648 2.57907 22.0176C2.51513 22.1705 2.48221 22.3345 2.48221 22.5001C2.48221 22.6658 2.51513 22.8298 2.57907 22.9826C2.643 23.1354 2.73667 23.274 2.85463 23.3903C2.9726 23.5066 3.1125 23.5983 3.26621 23.6601C3.41992 23.7219 3.58437 23.7525 3.75001 23.7501H26.25C26.4157 23.7525 26.5801 23.7219 26.7338 23.6601C26.8875 23.5983 27.0274 23.5066 27.1454 23.3903C27.2634 23.274 27.357 23.1354 27.421 22.9826C27.4849 22.8298 27.5178 22.6658 27.5178 22.5001C27.5178 22.3345 27.4849 22.1705 27.421 22.0176C27.357 21.8648 27.2634 21.7262 27.1454 21.6099C27.0274 21.4936 26.8875 21.4019 26.7338 21.3402C26.5801 21.2784 26.4157 21.2478 26.25 21.2501H3.75001Z"/>
</symbol><symbol viewBox="0 0 24 25" id="heart" xmlns="http://www.w3.org/2000/svg">
    <path fill-rule="evenodd" clip-rule="evenodd" d="M12.6924 7.58373C12.3055 7.95505 11.6945 7.95505 11.3076 7.58373L10.6152 6.91927C9.80477 6.14154 8.70994 5.66667 7.5 5.66667C5.01472 5.66667 3 7.68139 3 10.1667C3 12.5493 4.28979 14.5167 6.15176 16.1332C8.01532 17.7511 10.2434 18.8241 11.5746 19.3717C11.853 19.4862 12.147 19.4862 12.4254 19.3717C13.7566 18.8241 15.9847 17.7511 17.8482 16.1332C19.7102 14.5167 21 12.5493 21 10.1667C21 7.68139 18.9853 5.66667 16.5 5.66667C15.2901 5.66667 14.1952 6.14154 13.3848 6.91927L12.6924 7.58373ZM12 5.47624C10.8321 4.35548 9.24649 3.66667 7.5 3.66667C3.91015 3.66667 1 6.57682 1 10.1667C1 16.5349 7.97034 20.0517 10.8138 21.2214C11.5796 21.5364 12.4204 21.5364 13.1862 21.2214C16.0297 20.0517 23 16.5349 23 10.1667C23 6.57682 20.0899 3.66667 16.5 3.66667C14.7535 3.66667 13.1679 4.35548 12 5.47624Z"/>
</symbol><symbol viewBox="0 0 28 28" id="instagram" xmlns="http://www.w3.org/2000/svg">
    <path d="M8.95993 1.68018C4.94612 1.68018 1.67993 4.94637 1.67993 8.96018V19.0402C1.67993 23.054 4.94612 26.3202 8.95993 26.3202H19.0399C23.0537 26.3202 26.3199 23.054 26.3199 19.0402V8.96018C26.3199 4.94637 23.0537 1.68018 19.0399 1.68018H8.95993ZM8.95993 2.80018H19.0399C22.4484 2.80018 25.1999 5.55174 25.1999 8.96018V19.0402C25.1999 22.4486 22.4484 25.2002 19.0399 25.2002H8.95993C5.5515 25.2002 2.79993 22.4486 2.79993 19.0402V8.96018C2.79993 5.55174 5.5515 2.80018 8.95993 2.80018ZM20.7199 6.16018C20.4229 6.16018 20.138 6.27818 19.928 6.48822C19.7179 6.69826 19.5999 6.98313 19.5999 7.28018C19.5999 7.57722 19.7179 7.86209 19.928 8.07213C20.138 8.28218 20.4229 8.40018 20.7199 8.40018C21.017 8.40018 21.3018 8.28218 21.5119 8.07213C21.7219 7.86209 21.8399 7.57722 21.8399 7.28018C21.8399 6.98313 21.7219 6.69826 21.5119 6.48822C21.3018 6.27818 21.017 6.16018 20.7199 6.16018ZM13.9999 7.84018C10.6045 7.84018 7.83993 10.6047 7.83993 14.0002C7.83993 17.3956 10.6045 20.1602 13.9999 20.1602C17.3954 20.1602 20.1599 17.3956 20.1599 14.0002C20.1599 10.6047 17.3954 7.84018 13.9999 7.84018ZM13.9999 8.96018C16.7901 8.96018 19.0399 11.21 19.0399 14.0002C19.0399 16.7903 16.7901 19.0402 13.9999 19.0402C11.2098 19.0402 8.95993 16.7903 8.95993 14.0002C8.95993 11.21 11.2098 8.96018 13.9999 8.96018Z"/>
</symbol><symbol viewBox="0 0 21 21" id="location" xmlns="http://www.w3.org/2000/svg">
    <g clip-path="url(#anclip0_436_1073)">
        <path d="M10.4999 2.16675C6.99992 2.16675 3.83325 4.85008 3.83325 9.00008C3.83325 11.6501 5.87492 14.7667 9.94992 18.3584C10.2666 18.6334 10.7416 18.6334 11.0583 18.3584C15.1249 14.7667 17.1666 11.6501 17.1666 9.00008C17.1666 4.85008 13.9999 2.16675 10.4999 2.16675ZM10.4999 10.5001C9.58325 10.5001 8.83325 9.75008 8.83325 8.83341C8.83325 7.91675 9.58325 7.16675 10.4999 7.16675C11.4166 7.16675 12.1666 7.91675 12.1666 8.83341C12.1666 9.75008 11.4166 10.5001 10.4999 10.5001Z"/>
    </g>
    <defs>
        <clipPath id="anclip0_436_1073">
            <rect width="20" height="20" transform="translate(0.5 0.5)"/>
        </clipPath>
    </defs>
</symbol><symbol viewBox="0 0 184 56" id="logo" xmlns="http://www.w3.org/2000/svg">
    <path fill-rule="evenodd" clip-rule="evenodd" d="M1.32625 0.00869123C0.733316 0.237899 1.42508 1.80418 1.56096 2.1862C1.82037 2.92476 2.11684 3.6251 2.37625 4.36366C2.87036 5.78985 3.42621 7.3561 3.77209 8.89689C4.56267 12.526 4.88386 15.8114 4.09328 19.5806C3.42622 22.8022 2.25271 25.6291 1.32625 28.6725C-0.168441 33.575 -0.637843 39.0123 1.17802 44.0167C1.62273 45.2391 2.47505 46.869 3.24093 47.875C3.45092 48.1424 3.6733 48.4353 3.8833 48.7027C4.0933 48.9701 4.34034 49.2375 4.56269 49.4922C4.79739 49.7724 5.03209 49.9761 5.2915 50.218C6.67502 51.5296 7.78678 52.4082 9.50382 53.3887C11.925 54.764 15.2602 56.0374 18.5708 55.9992C21.8937 55.961 24.9572 55.146 27.7119 53.4269C30.1207 51.9244 32.0971 50.0907 33.3818 47.3147C34.6912 44.4751 35.2595 40.6804 34.9136 37.1659C34.5924 33.9952 33.1719 30.7353 31.8625 28.3796C31.1336 27.068 30.3925 25.8965 29.6019 24.7377C28.1936 22.6621 26.0566 19.988 24.3519 18.1543C23.129 16.83 22.0296 15.6967 20.7696 14.3979C19.7567 13.3537 17.1255 10.8961 16.0385 9.96652L15.4332 9.43173C14.3832 8.51489 13.3332 7.67446 12.2215 6.75762C11.2456 5.94266 9.92383 4.96216 8.89855 4.21087C8.12032 3.63784 2.52448 -0.411499 1.36331 0.0341837L1.32625 0.00869123ZM19.5096 26.7114C21.3996 26.5586 23.5737 27.1062 25.1302 27.7556C31.4672 30.3915 35.173 38.1719 32.2454 45.5702C31.9489 46.3215 31.4795 47.2128 31.0842 47.7986C29.7501 49.8105 28.0701 51.4277 25.7972 52.5483C19.1143 55.8464 11.2085 52.9303 8.05853 46.2706C5.9956 41.9029 6.35384 36.8603 8.91087 32.8237C10.1091 30.9264 12.0362 29.1054 14.1856 28.074C15.952 27.2208 17.3108 26.8897 19.4849 26.7242L19.5096 26.7114Z"/>
    <path fill-rule="evenodd" clip-rule="evenodd" d="M21.622 32.7597C23.8826 32.556 26.2667 33.4729 28.0084 34.8608C28.2431 35.0518 28.416 35.2301 28.6384 35.4211C29.2931 35.9814 30.1949 37.2038 30.689 38.2607C31.2201 39.3813 31.5784 40.7183 31.6649 42.1445C31.8254 45.0224 30.7631 47.4036 29.1078 49.3646C28.9225 49.5938 28.6878 49.7976 28.4902 49.9758C27.7861 50.5743 27.2549 51.02 26.3531 51.4784C23.2896 53.0065 19.695 52.8282 16.8415 50.9181C16.1621 50.4597 16.0632 50.3324 15.495 49.8485C15.1738 49.5684 14.6303 48.9062 14.3462 48.5242C12.0115 45.4426 11.8015 40.451 14.0003 37.2293C14.482 36.5162 14.4944 36.4907 15.0503 35.8668C15.7173 35.1028 16.6932 34.326 17.8173 33.7657C19.0773 33.129 20.0655 32.9126 21.622 32.7725V32.7597Z"/>
    <path d="M57.5077 28.5068H57.3224L57.2112 28.6596C56.7295 29.309 56.1489 29.7929 55.4818 30.1113C54.8148 30.4296 54.0983 30.5824 53.3448 30.5824C51.7636 30.5824 50.4913 30.0349 49.4289 28.9143C48.3666 27.781 47.8478 26.4567 47.8478 24.8522C47.8478 23.2478 48.3542 22.038 49.4166 20.9047C50.4666 19.7842 51.7513 19.2366 53.3324 19.2366C54.2466 19.2366 55.0742 19.4403 55.7906 19.8606C56.3712 20.1916 56.9024 20.6755 57.3842 21.2995L57.4953 21.4396H61.8806L61.6582 20.9047C60.9047 19.122 59.7806 17.734 58.323 16.7408C56.8653 15.7603 55.1853 15.2637 53.3077 15.2637C50.3924 15.2637 48.0084 16.3588 46.2172 18.5235C44.6854 20.3827 43.9072 22.5092 43.9072 24.8522C43.9072 27.1952 44.6855 29.4109 46.2296 31.2955C48.0084 33.4602 50.3678 34.5554 53.2583 34.5554C55.1483 34.5554 56.853 34.046 58.323 33.0273C59.7065 32.0723 60.8059 30.748 61.5594 29.0671L61.8065 28.5195H57.5077V28.5068Z"/>
    <path d="M80.6077 33.6004L73.4183 15.7986L73.3195 15.5693H70.256L70.1572 15.7986L62.9678 33.6004L62.7578 34.1352H67.0937L67.1925 33.8933L68.8725 29.5383H74.7154L76.3954 33.8933L76.4942 34.1352H80.83L80.62 33.6004H80.6077ZM73.2083 25.5654H70.3672L71.7878 21.8089L73.2083 25.5654Z"/>
    <path d="M99.7665 33.6004L92.9354 15.8113L92.8366 15.5693H92.5895H89.7854H89.5384L89.4395 15.8113L82.5961 33.6004L82.3984 34.1225H82.942H86.4749H86.7219L86.8207 33.8805L91.1813 21.6179L95.5542 33.8805L95.6407 34.1225H95.9001H99.4206H99.9642L99.7665 33.6004Z"/>
    <path d="M124.558 18.0779C122.767 16.206 120.531 15.251 117.9 15.251C115.726 15.251 113.761 15.9386 112.069 17.3011C110.364 18.6637 109.265 20.4718 108.796 22.6621H106.597V15.5693H102.656V34.1352H106.597V26.7241H108.684C109.08 29.1181 110.204 31.0536 112.044 32.4925C113.761 33.8551 115.738 34.5427 117.887 34.5427C120.494 34.5427 122.73 33.6004 124.533 31.754C126.337 29.8949 127.251 27.6028 127.251 24.9414C127.251 22.28 126.349 19.9625 124.558 18.0906V18.0779ZM117.9 19.2112C119.419 19.2112 120.716 19.7715 121.754 20.8666C122.804 21.9744 123.323 23.286 123.323 24.865C123.323 26.444 122.791 27.7938 121.754 28.9143C120.716 30.0222 119.419 30.5825 117.875 30.5825C116.331 30.5825 115.096 30.0349 114.046 28.9143C113.008 27.8065 112.477 26.444 112.477 24.865C112.477 23.286 112.983 21.9872 114.046 20.8666C115.096 19.7587 116.356 19.2239 117.9 19.2239V19.2112Z"/>
    <path d="M143.853 15.5693H128.993H128.622V15.9514V19.1475V19.5296H128.993H134.453V33.7405V34.1225H134.823H138.023H138.393V33.7405V19.5296H143.853H144.224V19.1475V15.9514V15.5693H143.853Z"/>
    <path d="M159.307 15.5693H147.399H147.028V15.9514V33.7405V34.1225H147.399H159.307H159.678V33.7405V30.5443V30.1623H159.307H150.969V26.8387H159.048H159.418V26.4567V23.2606V22.8786H159.048H150.969V19.5296H159.307H159.678V19.1475V15.9514V15.5693H159.307Z"/>
    <path d="M182.876 15.5693H178.528H178.268L178.182 15.8113L173.723 28.4432L169.263 15.8113L169.177 15.5693H168.917H164.582H164.211V15.9514V33.7405V34.1225H164.582H167.769H168.139V33.7405V22.6366L172.018 33.8805L172.104 34.1225H172.376H175.081H175.341L175.427 33.8805L179.306 22.6366V33.7405V34.1225H179.677H182.876H183.247V33.7405V15.9514V15.5693H182.876Z"/>
    <path d="M50.7985 44.6025H50.0697V40.5022L48.4021 44.6025H47.7721L46.0921 40.5022V44.6025H45.3633V39.4453H46.438L48.0809 43.6857L49.7362 39.4453H50.8109V44.6025H50.7985Z"/>
    <path d="M62.0636 42.2721H57.7154C57.7525 42.807 57.9377 43.2272 58.2466 43.5328C58.5677 43.8384 58.9878 43.9912 59.5066 43.9912C60.2972 43.9912 60.853 43.6983 61.1495 43.1126H62.0018C61.4583 44.1949 60.6307 44.7298 59.5189 44.7298C58.7654 44.7298 58.1478 44.4751 57.6537 43.953C57.1595 43.4309 56.9248 42.7815 56.9248 42.0047C56.9248 41.228 57.1719 40.5913 57.666 40.0819C58.1601 39.5598 58.7901 39.3052 59.5313 39.3052C60.3342 39.3052 60.9642 39.598 61.4213 40.1965C61.8536 40.7441 62.0636 41.4444 62.0636 42.2849V42.2721ZM57.703 41.5845H61.2607C61.1495 40.5531 60.5566 40.0437 59.4695 40.0437C59.0001 40.0437 58.6172 40.1838 58.296 40.464C57.9872 40.7441 57.7772 41.1134 57.6907 41.5845H57.703Z"/>
    <path d="M72.4651 45.6849H71.761V44.6025H68.3887V45.6849H67.6846V43.8894H68.1293L69.6981 39.4326H70.4145L71.9957 43.8894H72.4404V45.6849H72.4651ZM71.2422 43.8894L70.0934 40.515H70.0563L68.9199 43.8894H71.2298H71.2422Z"/>
    <path d="M82.5941 44.6025H81.8406V40.5659L79.1229 44.6025H78.3447V39.4453H79.0982V43.4692L81.8282 39.4453H82.6064V44.6025H82.5941Z"/>
    <path d="M92.4023 44.6025H91.6734V42.3996C91.2905 42.5396 90.8458 42.6161 90.364 42.6161C89.907 42.6161 89.5364 42.4887 89.2523 42.2213C88.9558 41.9539 88.8076 41.5974 88.8076 41.1389V39.4326H89.5364V40.9861C89.5364 41.6101 89.8205 41.9157 90.3888 41.9157C90.8829 41.9157 91.3029 41.8393 91.6734 41.6737V39.4326H92.4023V44.5898V44.6025Z"/>
    <path d="M102.792 44.6025H102.039V42.2977H99.5064V44.6025H98.7529V39.4453H99.5064V41.6228H102.039V39.4453H102.792V44.6025Z"/>
    <path d="M113.414 44.6025H112.661V40.5659L109.931 44.6025H109.152V39.4453H109.906V43.4692L112.636 39.4453H113.414V44.6025Z"/>
    <path d="M124.026 44.6026H123.272V40.566L120.542 44.6026H119.776V39.4454H120.505V43.482L123.248 39.4454H124.026V44.6026ZM123.248 37.6499C123.21 38.0447 123.062 38.3503 122.828 38.5667C122.593 38.796 122.284 38.8978 121.901 38.8978C121.518 38.8978 121.234 38.7832 120.987 38.554C120.74 38.3248 120.604 38.0192 120.567 37.6372H121.209C121.209 37.8282 121.271 37.9938 121.419 38.1211C121.555 38.2484 121.716 38.3121 121.901 38.3121C122.086 38.3121 122.259 38.2484 122.395 38.1211C122.531 37.9938 122.605 37.8282 122.605 37.6372H123.248V37.6499Z"/>
    <path d="M142.777 45.6849H142.061V44.6025H138.343V39.4453H139.096V43.9021H141.505V39.4453H142.234V43.9021H142.777V45.6976V45.6849Z"/>
    <path d="M153.537 42.2721H149.189C149.226 42.807 149.411 43.2272 149.72 43.5328C150.041 43.8384 150.461 43.9912 150.98 43.9912C151.771 43.9912 152.327 43.6983 152.623 43.1126H153.475C152.932 44.1949 152.104 44.7298 150.993 44.7298C150.239 44.7298 149.621 44.4751 149.127 43.953C148.645 43.4309 148.398 42.7815 148.398 42.0047C148.398 41.228 148.646 40.5913 149.14 40.0819C149.634 39.5598 150.264 39.3052 151.005 39.3052C151.808 39.3052 152.438 39.598 152.895 40.1965C153.327 40.7441 153.537 41.4444 153.537 42.2849V42.2721ZM149.177 41.5845H152.734C152.623 40.5531 152.03 40.0437 150.943 40.0437C150.474 40.0437 150.091 40.1838 149.77 40.464C149.448 40.7441 149.251 41.1134 149.164 41.5845H149.177Z"/>
    <path d="M163.692 44.6025H162.938V42.2977H160.406V44.6025H159.652V39.4453H160.406V41.6228H162.938V39.4453H163.692V44.6025Z"/>
    <path d="M169.608 39.4326H172.944V40.133H171.659V44.5898H170.905V40.133H169.621V39.4326H169.608Z"/>
    <path d="M183.998 42.0175C183.998 42.7815 183.751 43.4309 183.257 43.9403C182.763 44.4623 182.146 44.717 181.392 44.717C180.638 44.717 180.07 44.4241 179.564 43.8257V46.8309H178.835V39.4198H179.564V40.2347C180.083 39.6108 180.7 39.3052 181.417 39.3052C182.133 39.3052 182.763 39.5726 183.257 40.0947C183.751 40.6167 183.986 41.2535 183.986 42.0175H183.998ZM183.22 42.0175C183.22 41.4699 183.047 41.0115 182.689 40.6295C182.343 40.2475 181.898 40.0565 181.367 40.0565C180.873 40.0565 180.441 40.2602 180.083 40.655C179.724 41.0497 179.551 41.5208 179.551 42.0429C179.551 42.565 179.737 42.998 180.095 43.4055C180.453 43.8129 180.886 44.0167 181.367 44.0167C181.886 44.0167 182.331 43.8257 182.689 43.4309C183.047 43.0362 183.22 42.5777 183.22 42.0302V42.0175Z"/>
</symbol><symbol viewBox="0 0 184 56" id="logo-footer" xmlns="http://www.w3.org/2000/svg">
    <path d="M184 0H0V56H184V0Z"/>
    <path fill-rule="evenodd" clip-rule="evenodd" d="M10.7143 4.20046C10.1885 4.4005 10.802 5.76746 10.9225 6.10086C11.1526 6.74543 11.4155 7.35665 11.6456 8.00122C12.0838 9.24592 12.5768 10.6129 12.8836 11.9576C13.5847 15.1249 13.8696 17.9921 13.1684 21.2816C12.5768 24.0933 11.536 26.5605 10.7143 29.2165C9.3887 33.4952 8.97239 38.2405 10.5829 42.6081C10.9773 43.6749 11.7332 45.0974 12.4015 45.9754C12.5878 46.2088 12.785 46.4644 12.9712 46.6978C13.1575 46.9312 13.3766 47.1645 13.5738 47.3868C13.7819 47.6313 13.9901 47.8091 14.2201 48.0203C15.4472 49.1649 16.4332 49.9318 17.956 50.7875C20.1033 51.9877 23.0614 53.099 25.9975 53.0657C28.9445 53.0324 31.6615 52.3211 34.1046 50.8208C36.241 49.5094 37.9939 47.9091 39.1333 45.4864C40.2946 43.0082 40.7985 39.6964 40.4918 36.6291C40.2069 33.8619 38.947 31.0169 37.7857 28.9609C37.1393 27.8162 36.482 26.7938 35.7808 25.7825C34.5209 23.9711 32.6366 21.6372 31.1247 20.0369C30.0401 18.8811 29.065 17.8921 27.9476 16.7585C27.0492 15.8472 24.7157 13.7023 23.7516 12.8911L23.2147 12.4243C22.2835 11.6242 21.3523 10.8907 20.3663 10.0905C19.5008 9.37928 18.3285 8.52356 17.4192 7.86787C16.729 7.36777 11.7661 3.83374 10.7362 4.2227L10.7143 4.20046ZM26.841 27.5051C28.5173 27.3717 30.4454 27.8496 31.8259 28.4164C37.4461 30.7168 40.7328 37.5071 38.1363 43.9639C37.8734 44.6196 37.4571 45.3975 37.1065 45.9087C35.9233 47.6646 34.4333 49.076 32.4175 50.054C26.4905 52.9323 19.4789 50.3874 16.6852 44.5751C14.8556 40.7633 15.1733 36.3624 17.4411 32.8395C18.5038 31.1836 20.2129 29.5944 22.1192 28.6942C23.6858 27.9496 24.8909 27.6607 26.8191 27.5162L26.841 27.5051ZM28.7145 32.7839C30.7193 32.6061 32.8338 33.4063 34.3785 34.6176C34.5867 34.7843 34.7401 34.9399 34.9373 35.1066C35.5179 35.5956 36.3177 36.6625 36.7559 37.5849C37.227 38.5628 37.5447 39.7297 37.6104 40.9744C37.7529 43.486 36.8107 45.5642 35.3426 47.2757C35.1783 47.4757 34.9701 47.6535 34.7948 47.8091C34.1704 48.3314 33.6993 48.7204 32.8886 49.1205C30.1716 50.4541 26.9835 50.2985 24.4527 48.6315C23.8502 48.2314 23.7625 48.1203 23.2586 47.698C22.9737 47.4535 22.4917 46.8756 22.2397 46.5422C20.1691 43.8528 19.9828 39.4963 21.9329 36.6847C22.3602 36.0623 22.3711 36.0401 22.8642 35.4956C23.4558 34.8288 24.3212 34.1508 25.3182 33.6619C26.4357 33.1062 27.3121 32.9173 28.6925 32.795L28.7145 32.7839Z"/>
    <path d="M60.5409 27.9607H60.3766L60.278 28.094C59.8507 28.6608 59.3358 29.0831 58.7442 29.361C58.1526 29.6388 57.5171 29.7721 56.8488 29.7721C55.4684 29.7721 54.2962 29.2832 53.3649 28.3163C52.4228 27.3272 51.9626 26.1714 51.9626 24.7712C51.9626 23.3709 52.4118 22.3151 53.354 21.326C54.2743 20.3592 55.4465 19.8702 56.8269 19.8702C57.6377 19.8702 58.3717 20.048 59.0071 20.4147C59.522 20.7037 59.9931 21.126 60.4204 21.6705L60.519 21.7928H64.4082L64.211 21.326C63.5427 19.7702 62.5458 18.5588 61.253 17.692C59.9602 16.8363 58.4703 16.4028 56.805 16.4028C54.2195 16.4028 52.105 17.3586 50.5165 19.2478C49.158 20.8704 48.4678 22.7263 48.4678 24.7712C48.4678 26.816 49.158 28.7497 50.5274 30.3945C52.1051 32.2838 54.1976 33.2395 56.7612 33.2395C58.4374 33.2395 59.9493 32.795 61.253 31.9059C62.48 31.0724 63.4551 29.9166 64.1234 28.4497L64.3425 27.9718H60.5299L60.5409 27.9607Z"/>
    <path d="M81.017 32.4064L74.6408 16.87L74.5531 16.6699H71.8361L71.7485 16.87L65.3723 32.4064L65.186 32.8731H69.0315L69.1191 32.662L70.6091 28.8612H75.7911L77.2811 32.662L77.3687 32.8731H81.2141L81.0279 32.4064H81.017ZM74.4655 25.3939H71.9457L73.2056 22.1155L74.4655 25.3939Z"/>
    <path d="M98.0203 32.4064L91.9509 16.8811L91.8742 16.6699H91.6442H89.1682H88.9381L88.8614 16.8811L82.792 32.4064L82.6167 32.862H83.0988H86.2211H86.4512L86.5388 32.6509L90.4062 21.9487L94.2735 32.6509L94.3611 32.862H94.5912H97.7136H98.1956L98.0203 32.4064Z"/>
    <path d="M120.008 18.8592C118.419 17.2256 116.436 16.3921 114.103 16.3921C112.175 16.3921 110.433 16.9922 108.932 18.1814C107.409 19.3705 106.434 20.9486 106.028 22.86H104.078V16.6699H100.583V32.8732H104.078V26.4052H105.93C106.28 28.4945 107.277 30.1837 108.91 31.4395C110.433 32.6287 112.186 33.2288 114.092 33.2288C116.403 33.2288 118.386 32.4064 119.986 30.795C121.585 29.1835 122.385 27.172 122.385 24.8493C122.385 22.5267 121.585 20.504 119.997 18.8704L120.008 18.8592ZM114.103 19.8483C115.45 19.8483 116.601 20.3373 117.521 21.2931C118.452 22.2599 118.912 23.4046 118.912 24.7827C118.912 26.1607 118.463 27.3276 117.521 28.3167C116.601 29.2835 115.45 29.7725 114.081 29.7725C112.711 29.7725 111.616 29.2947 110.685 28.3167C109.764 27.3498 109.293 26.1607 109.293 24.7827C109.293 23.4046 109.742 22.271 110.685 21.2931C111.616 20.3262 112.733 19.8483 114.103 19.8483Z"/>
    <path d="M137.121 16.6699H123.941H123.613V17.0033V19.7928V20.1262H123.941H128.784V32.5286V32.862H129.113H131.95H132.279V32.5286V20.1262H137.121H137.45V19.7928V17.0033V16.6699H137.121Z"/>
    <path d="M150.827 16.6699H140.266H139.937V17.0033V32.5286V32.862H140.266H150.827H151.156V32.5286V29.7392V29.4058H150.827H143.432V26.5052H150.597H150.926V26.1718V23.3824V23.049H150.597H143.432V20.1262H150.827H151.156V19.7928V17.0033V16.6699H150.827Z"/>
    <path d="M171.729 16.6699H167.873H167.643L167.566 16.8811L163.611 27.9055L159.656 16.8811L159.579 16.6699H159.349H155.504H155.175V17.0033V32.5286V32.862H155.504H158.331H158.659V32.5286V22.8378L162.099 32.6509L162.176 32.862H162.406H164.816H165.046L165.123 32.6509L168.563 22.8378V32.5286V32.862H168.892H171.729H172.058V32.5286V17.0033V16.6699H171.729Z"/>
    <path d="M54.592 42.0085H53.9456V38.43L52.4666 42.0085H51.9078L50.4179 38.43V42.0085H49.7715V37.5076H50.7246L52.1817 41.2083L53.6498 37.5076H54.6029V42.0085H54.592Z"/>
    <path d="M64.5722 39.9746H60.7158C60.7487 40.4414 60.913 40.8082 61.1869 41.0749C61.4718 41.3416 61.8443 41.4749 62.3044 41.4749C63.0056 41.4749 63.4986 41.2193 63.7615 40.7081H64.5174C64.0354 41.6528 63.3013 42.1195 62.3153 42.1195C61.647 42.1195 61.0993 41.8973 60.661 41.4416C60.2228 40.986 60.0146 40.4192 60.0146 39.7413C60.0146 39.0634 60.2338 38.5077 60.672 38.0631C61.1102 37.6075 61.669 37.3853 62.3263 37.3853C63.0384 37.3853 63.5971 37.6408 64.0025 38.1632C64.3859 38.641 64.5722 39.2523 64.5722 39.9858V39.9746ZM60.7158 39.3745H63.871C63.7724 38.4744 63.2466 38.0298 62.2825 38.0298C61.8662 38.0298 61.5265 38.1521 61.2417 38.3966C60.9678 38.6411 60.7815 38.9634 60.7049 39.3745H60.7158Z"/>
    <path d="M73.8082 42.9535H73.1837V42.0088H70.1928V42.9535H69.5684V41.3865H69.9628L71.3541 37.4968H71.9896L73.3919 41.3865H73.7863V42.9535H73.8082ZM72.7126 41.3865L71.6938 38.4414H71.6609L70.653 41.3865H72.7126Z"/>
    <path d="M82.7814 42.0085H82.1131V38.4855L79.7029 42.0085H79.0127V37.5076H79.681V41.0194L82.1022 37.5076H82.7924V42.0085H82.7814Z"/>
    <path d="M91.4895 42.0088H90.8433V40.0862C90.5037 40.2085 90.1094 40.2752 89.6823 40.2752C89.288 40.2752 88.9485 40.164 88.6965 39.9306C88.4337 39.6973 88.3022 39.3861 88.3022 38.986V37.4968H88.9484V38.8527C88.9484 39.3972 89.2004 39.6639 89.7042 39.6639C90.1423 39.6639 90.5147 39.5972 90.8433 39.4527V37.4968H91.4895V41.9977V42.0088Z"/>
    <path d="M100.703 42.0085H100.035V39.997H97.7892V42.0085H97.1211V37.5076H97.7892V39.408H100.035V37.5076H100.703V42.0085Z"/>
    <path d="M110.125 42.0085H109.457V38.4855L107.036 42.0085H106.346V37.5076H107.014V41.0194L109.435 37.5076H110.125V42.0085Z"/>
    <path d="M119.537 42.0084H118.869V38.4855L116.458 42.0084H115.779V37.5075H116.425V41.0305L118.858 37.5075H119.548V42.0084H119.537ZM118.847 35.9405C118.814 36.285 118.693 36.5518 118.474 36.7407C118.266 36.9407 117.992 37.0297 117.652 37.0297C117.313 37.0297 117.061 36.9296 116.842 36.7296C116.623 36.5296 116.502 36.2628 116.469 35.9294H117.039C117.039 36.0961 117.105 36.2406 117.225 36.3518C117.346 36.4629 117.488 36.5184 117.652 36.5184C117.817 36.5184 117.97 36.4629 118.091 36.3518C118.211 36.2406 118.277 36.0961 118.277 35.9294H118.847V35.9405Z"/>
    <path d="M136.167 42.9531H135.532V42.0085H132.234V37.5076H132.902V41.3972H135.039V37.5076H135.685V41.3972H136.167V42.9642V42.9531Z"/>
    <path d="M145.71 39.9746H141.854C141.887 40.4414 142.051 40.8082 142.325 41.0749C142.61 41.3416 142.982 41.4749 143.443 41.4749C144.144 41.4749 144.637 41.2193 144.9 40.7081H145.656C145.174 41.6528 144.44 42.1195 143.454 42.1195C142.785 42.1195 142.237 41.8973 141.799 41.4416C141.372 40.986 141.153 40.4192 141.153 39.7413C141.153 39.0634 141.372 38.5077 141.81 38.0631C142.248 37.6075 142.807 37.3853 143.464 37.3853C144.177 37.3853 144.735 37.6408 145.141 38.1632C145.524 38.641 145.71 39.2523 145.71 39.9858V39.9746ZM141.843 39.3745H144.998C144.9 38.4744 144.374 38.0298 143.41 38.0298C142.993 38.0298 142.654 38.1521 142.38 38.3966C142.095 38.6411 141.92 38.9634 141.843 39.3745Z"/>
    <path d="M154.703 42.0085H154.034V39.997H151.789V42.0085H151.121V37.5076H151.789V39.408H154.034V37.5076H154.703V42.0085Z"/>
    <path d="M159.953 37.4968H162.91V38.108H161.771V41.9977H161.103V38.108H159.964V37.4968H159.953Z"/>
    <path d="M172.726 39.7524C172.726 40.4192 172.507 40.9859 172.069 41.4305C171.63 41.8861 171.083 42.1084 170.414 42.1084C169.746 42.1084 169.242 41.8528 168.793 41.3305V43.9532H168.146V37.4853H168.793V38.1965C169.253 37.652 169.801 37.3853 170.436 37.3853C171.072 37.3853 171.63 37.6186 172.069 38.0743C172.507 38.5299 172.715 39.0856 172.715 39.7524H172.726ZM172.036 39.7524C172.036 39.2745 171.882 38.8744 171.565 38.541C171.258 38.2076 170.864 38.0409 170.392 38.0409C169.943 38.0409 169.571 38.2187 169.253 38.5633C168.935 38.9078 168.782 39.319 168.782 39.7746C168.782 40.2303 168.946 40.6081 169.264 40.9637C169.582 41.3194 169.965 41.4972 170.392 41.4972C170.853 41.4972 171.247 41.3305 171.565 40.986C171.882 40.6414 172.036 40.2414 172.036 39.7635V39.7524Z"/>
</symbol><symbol viewBox="0 0 24 24" id="mind" xmlns="http://www.w3.org/2000/svg">
    <path d="M11.2078 1.19525C7.62656 1.64994 4.62656 4.11088 3.4875 7.52338C3.20156 8.39056 3 9.48744 3 10.2046C3 10.364 2.8875 10.7718 2.625 11.5546C2.41875 12.1734 2.25 12.7171 2.25 12.764C2.25 12.8109 2.30625 12.9093 2.37656 12.9749C2.47969 13.0781 2.63906 13.1343 3.16875 13.2609L3.825 13.4203L4.16719 14.4562C4.35938 15.0281 4.55625 15.539 4.60781 15.5953C4.66406 15.6562 4.89375 15.764 5.16563 15.8531L5.625 16.0031V16.5046V17.0015L5.99063 17.3484C6.72188 18.0515 7.65469 18.6562 8.63906 19.0781L9 19.2374V20.9296V22.6265L9.10781 22.7249C9.24375 22.8515 9.46875 22.8562 9.61406 22.739L9.72656 22.6499L9.74063 21.0749C9.74531 20.2078 9.75938 19.4999 9.77344 19.4999C9.78281 19.4999 9.96563 19.5421 10.1859 19.5937C10.8844 19.7578 11.5172 19.8281 12.375 19.8234C13.3266 19.8234 13.6078 19.7859 13.7438 19.6499C13.8891 19.5046 13.875 19.2796 13.7109 19.139C13.5891 19.0312 13.5609 19.0265 13.1672 19.0593L12.7547 19.0921L12.7406 17.3203C12.7266 15.5671 12.7266 15.5531 12.6234 15.4734C12.5156 15.3796 11.0625 14.9999 10.8328 14.9999C10.725 14.9999 10.6547 15.0468 10.5188 15.2062C10.425 15.3234 10.2422 15.4687 10.1156 15.539C9.91406 15.6515 9.83906 15.6656 9.56719 15.6468C9.1875 15.6281 8.93438 15.4828 8.73281 15.1781C8.62969 15.0234 8.60156 14.9203 8.5875 14.6531C8.57344 14.3437 8.58281 14.3015 8.72813 14.0624C8.84531 13.8656 8.93906 13.7765 9.13594 13.6781C9.6 13.4343 10.0781 13.5281 10.4344 13.9359C10.5422 14.0578 10.6781 14.1749 10.7438 14.1984C10.9031 14.2593 12.4969 13.8656 12.6328 13.7296C12.7219 13.6406 12.7266 13.5656 12.7406 12.2578L12.7547 10.8749H13.9172H15.075L15.1875 11.339L15.2953 11.8031L15.1313 12.0046C14.8922 12.314 14.8266 12.4265 14.7375 12.7265C14.5781 13.2796 14.7234 13.9406 15.1125 14.4093C15.4688 14.8406 16.1766 15.1078 16.7156 15.014C17.3484 14.9062 17.85 14.5406 18.1219 13.9921C18.2438 13.7343 18.2578 13.6687 18.2578 13.2187C18.2578 12.7781 18.2438 12.6984 18.1313 12.4687C18.0609 12.3234 17.925 12.1171 17.8313 12.0093L17.6625 11.8078L17.775 11.3531L17.8875 10.8984L19.4203 10.8843L20.9531 10.8749V11.0437C20.9531 11.1374 20.9203 11.4374 20.8828 11.714C20.4375 14.7609 18.3984 17.3484 15.5391 18.4921C15.3094 18.5812 15.0891 18.6937 15.0609 18.7359C15.0141 18.7968 15 19.2703 15 20.7281C15 22.5796 15.0047 22.6453 15.0938 22.7343C15.1922 22.8328 15.4172 22.8562 15.5625 22.7812C15.7313 22.6921 15.75 22.4859 15.75 20.8312V19.2234L15.9984 19.1156C18.2766 18.1546 20.1422 16.2421 21.0656 13.9218C21.4969 12.8249 21.7031 11.7328 21.7031 10.5093C21.7031 9.36556 21.5766 8.55463 21.2344 7.52806C20.25 4.589 17.9016 2.339 14.9203 1.48119C13.8281 1.16713 12.3328 1.05463 11.2078 1.19525ZM12 3.62806C12 5.2265 12.0094 5.39056 12.0844 5.47963C12.1453 5.55931 12.3609 5.63431 13.0031 5.79369C13.4672 5.91088 13.8938 5.99525 13.95 5.98119C14.0063 5.96713 14.1281 5.85931 14.2266 5.74213C14.4703 5.44213 14.7141 5.32494 15.0938 5.32025C15.6141 5.32025 15.9984 5.62494 16.1297 6.14994C16.2844 6.77338 15.7547 7.42025 15.0938 7.42025C14.6953 7.42025 14.5266 7.3265 14.1422 6.89994C14.0625 6.81088 13.9641 6.74994 13.8938 6.74994C13.65 6.74994 12.2109 7.139 12.1078 7.23275C12.0047 7.3265 12 7.34525 11.9906 8.714L11.9766 10.1015L10.8188 10.1156L9.66094 10.1249L9.61406 9.9515C9.58594 9.85306 9.53438 9.63275 9.4875 9.45931L9.4125 9.14056L9.57656 8.97181C10.2 8.32963 10.1906 7.18119 9.5625 6.52494C9.15469 6.10306 8.72344 5.92963 8.1375 5.96244C7.70156 5.98588 7.41094 6.09838 7.09219 6.35619C6.30469 7.00306 6.21563 8.21244 6.9 8.98119L7.06406 9.164L6.94219 9.63275L6.82031 10.1015L5.2875 10.1156C3.7875 10.1249 3.75 10.1249 3.75 10.0359C3.75 9.77338 3.90938 8.80306 4.02656 8.32963C4.84219 5.09994 7.54688 2.59681 10.8516 2.01556C11.3344 1.93119 11.5547 1.90306 11.8734 1.88431L12 1.87494V3.62806ZM13.6406 1.97338C15.0844 2.17025 16.6266 2.85463 17.8359 3.84369C19.5797 5.26869 20.7656 7.51869 20.9344 9.7265L20.9672 10.1249H19.2094H17.4516L17.3531 10.2281C17.25 10.3453 16.875 11.7281 16.875 12.0046C16.875 12.1218 16.9266 12.1968 17.1281 12.3843C17.4188 12.6515 17.5313 12.8812 17.5313 13.2234C17.5313 13.8234 17.0813 14.2687 16.4766 14.2687C15.8766 14.2687 15.4219 13.8187 15.4219 13.2187C15.4219 12.8859 15.525 12.6703 15.825 12.389C16.1484 12.0937 16.1484 12.0796 15.9188 11.1562C15.7172 10.3546 15.6703 10.2281 15.5578 10.1718C15.5109 10.1437 14.8969 10.1249 14.1141 10.1249H12.75V8.95306V7.78588L12.9281 7.739C13.0219 7.71556 13.2328 7.65931 13.3969 7.61713L13.6969 7.54213L13.875 7.70619C14.7422 8.489 16.1344 8.24994 16.6781 7.22806C17.3016 6.06088 16.5422 4.68275 15.2156 4.56088C14.7328 4.51869 14.1797 4.72025 13.8375 5.05775L13.7016 5.19369L13.2281 5.0765L12.75 4.95931V3.41244V1.87025L13.0219 1.89838C13.1672 1.91244 13.4484 1.94994 13.6406 1.97338ZM8.63906 6.764C9.0375 6.93275 9.29531 7.3265 9.29063 7.76244C9.28594 8.09994 9.14531 8.38588 8.85469 8.62963C8.67656 8.77963 8.625 8.84994 8.625 8.95775C8.625 9.089 8.89219 10.2281 9.00469 10.5843C9.09375 10.8609 9.16875 10.8749 10.6641 10.8749H12L11.9906 12.0328L11.9766 13.1906L11.5031 13.3078L11.0344 13.4203L10.7672 13.2046C9.8625 12.4687 8.52188 12.7687 8.00156 13.8234C7.86094 14.1093 7.85156 14.1656 7.85156 14.6015C7.85156 15.0187 7.86563 15.1031 7.98281 15.3515C8.15625 15.7218 8.51719 16.0828 8.87813 16.2515C9.13125 16.3687 9.21563 16.3828 9.63281 16.3828C10.0406 16.3828 10.1344 16.3687 10.3641 16.2609C10.5094 16.1906 10.7156 16.0546 10.8234 15.9609L11.0156 15.7874L11.3344 15.8624C11.5078 15.9093 11.7281 15.9609 11.8266 15.989L12 16.0359V17.564V19.0921L11.5922 19.0593C9.90469 18.9328 8.14688 18.2015 6.7875 17.0624L6.375 16.7203V16.1718C6.375 15.7124 6.36094 15.6046 6.29063 15.5156C6.23906 15.4499 6.01406 15.3468 5.69531 15.239L5.17969 15.0609L4.81875 13.9874C4.58906 13.3218 4.42031 12.8859 4.36406 12.839C4.3125 12.7968 4.0875 12.7171 3.85781 12.6609C3.63281 12.6046 3.37031 12.539 3.27188 12.5109L3.10313 12.4687L3.36563 11.6718L3.63281 10.8749H5.42344C7.21406 10.8749 7.21406 10.8749 7.33594 10.7671C7.43906 10.6828 7.49063 10.5281 7.66875 9.82963C7.79063 9.33744 7.86563 8.94838 7.84688 8.89213C7.82812 8.84056 7.69219 8.6765 7.54688 8.53588C7.27031 8.26869 7.17188 8.06713 7.17188 7.75775C7.17188 7.36869 7.43906 6.95619 7.80469 6.79213C8.025 6.689 8.42813 6.67963 8.63906 6.764Z"/>
</symbol><symbol viewBox="0 0 24 24" id="network" xmlns="http://www.w3.org/2000/svg">
    <g clip-path="url(#arclip0_2032_1098)">
        <path d="M5.63433 0.0936813C4.79526 0.201492 3.87651 0.510868 3.17339 0.928055C2.51245 1.31712 2.36245 1.52806 2.57339 1.78587C2.7187 1.96399 2.92026 1.92649 3.38901 1.62649C4.12495 1.15774 4.95933 0.876493 5.86401 0.78743C7.90776 0.590555 9.93276 1.5468 11.1046 3.27649C11.3437 3.62337 11.7187 4.38743 11.7187 4.51868C11.7187 4.57493 11.7609 4.70618 11.8125 4.81868C12.0562 5.35774 12.1406 6.65149 11.9812 7.46243C11.7796 8.50305 11.3437 9.39837 10.6312 10.2281C10.3453 10.5562 10.2703 10.5796 10.2656 10.3359C10.2656 10.2843 10.2046 10.1109 10.1296 9.95149C9.86714 9.39837 9.35151 9.04212 8.43745 8.7843C8.1937 8.71868 7.94995 8.62024 7.90308 8.57337C7.81401 8.48899 7.81401 8.48431 7.94995 8.38587C8.19839 8.19368 8.64839 7.71556 8.8312 7.43899C9.18745 6.89055 9.32808 6.38431 9.32808 5.60149C9.32808 4.32649 9.0562 3.52493 8.39058 2.85462C7.82808 2.28274 7.17651 2.01555 6.36558 2.01555C4.94995 2.01555 3.80151 3.03743 3.53901 4.52337C3.45933 4.98743 3.44526 6.0468 3.51558 6.42649C3.53901 6.56712 3.66089 6.88118 3.78276 7.12493C3.97026 7.50931 4.06401 7.63587 4.46245 8.0343C4.90308 8.47493 4.97339 8.5968 4.8187 8.64368C3.72183 8.96712 3.38433 9.11243 3.03745 9.41712C2.79839 9.63274 2.55933 10.0546 2.50776 10.364L2.47495 10.5562L2.31089 10.3968C2.08589 10.1859 1.6312 9.57649 1.42964 9.21556C1.18589 8.77493 0.993701 8.27806 0.857764 7.7343C0.749951 7.30774 0.731201 7.13899 0.731201 6.49212C0.726514 5.18899 1.01245 4.25149 1.73901 3.18274C2.05776 2.71868 2.09058 2.54993 1.8937 2.39524C1.82339 2.33899 1.72964 2.2968 1.68276 2.2968C1.40151 2.2968 0.731201 3.31868 0.379639 4.29368C0.117139 5.02024 0.0280762 5.55462 0.0280762 6.44524C0.0280762 7.29368 0.0796387 7.66868 0.314014 8.41399C0.689014 9.59524 1.53276 10.7718 2.57808 11.5593C3.03276 11.9062 3.80151 12.314 4.31245 12.4874L4.66401 12.6046L4.67808 14.9062C4.68745 17.0671 4.68276 17.2077 4.60776 17.2359C4.05933 17.4187 3.68433 17.7374 3.46401 18.2015C3.11245 18.9609 3.33276 19.8421 4.00776 20.3531C4.33589 20.6015 4.6312 20.6952 5.08589 20.6952C5.40933 20.6952 5.50308 20.6718 5.77495 20.5452C6.26245 20.3156 6.57651 19.9499 6.76401 19.3968C6.79214 19.3171 6.94683 19.3124 9.1312 19.3124H11.4656L11.55 19.5796C12.0187 21.0702 13.2937 22.5327 14.7609 23.2734C16.0921 23.939 17.6999 24.1124 19.1765 23.7421C21.4968 23.1609 23.2874 21.314 23.8499 18.9234C23.9578 18.4593 23.9718 18.2999 23.9718 17.5546C23.9718 16.8046 23.9578 16.6499 23.8499 16.1859C23.3765 14.1843 22.0921 12.5999 20.2406 11.7421L19.7343 11.5077V8.92962V6.35149L19.964 6.26712C20.3062 6.14524 20.625 5.90618 20.8265 5.62024C21.0703 5.27806 21.1546 4.94993 21.1312 4.49524C21.0656 3.39837 20.0531 2.65774 18.9562 2.90149C18.4265 3.02337 17.9015 3.50149 17.7328 4.01712L17.6531 4.26555H15.0281H12.3984L12.2156 3.84368C11.5546 2.29212 10.0265 0.909306 8.39058 0.379618C7.59839 0.117119 6.41245 -0.00475693 5.63433 0.0936813ZM7.04058 2.81712C7.60308 3.00462 8.03433 3.37493 8.29683 3.89524C8.43276 4.16243 8.60151 4.72493 8.55933 4.76712C8.54526 4.78118 8.42339 4.68274 8.28276 4.55149C8.01558 4.29837 7.77183 4.1718 7.56089 4.1718C7.49058 4.1718 7.23276 4.22337 6.9937 4.28899C6.44995 4.43431 6.32339 4.43431 5.77026 4.28899C5.52651 4.22337 5.2687 4.1718 5.20308 4.1718C5.03901 4.1718 4.73901 4.33587 4.45308 4.5843C4.18589 4.81868 4.16714 4.79056 4.2937 4.35462C4.52339 3.59056 5.04839 3.03743 5.76558 2.80774C6.1312 2.69056 6.67964 2.69524 7.04058 2.81712ZM19.7953 3.62337C20.4796 3.91399 20.6578 4.83274 20.1281 5.36243C19.7109 5.77962 19.0734 5.77493 18.6515 5.34837C18.2859 4.98743 18.2296 4.48118 18.4968 4.04524C18.75 3.63743 19.3593 3.44056 19.7953 3.62337ZM5.69526 4.99212C6.22026 5.13743 6.51558 5.13743 7.07808 4.99212C7.32183 4.92649 7.53745 4.87493 7.5562 4.87493C7.57495 4.87493 7.72026 4.99212 7.87964 5.13274C8.04839 5.28274 8.26401 5.42337 8.39526 5.47024L8.62495 5.55462V5.77024C8.62495 6.66556 8.0437 7.57493 7.17183 8.03899C6.83433 8.21712 6.80151 8.22649 6.39839 8.22649C6.00933 8.22649 5.94839 8.21243 5.64839 8.06243C5.17026 7.82337 4.61714 7.26555 4.38276 6.77337C4.22808 6.45462 4.19995 6.35149 4.1812 5.98118L4.16245 5.55462L4.42495 5.44212C4.57495 5.38118 4.80464 5.23118 4.93589 5.10462C5.07183 4.98274 5.20308 4.87962 5.22651 4.87962C5.25464 4.87493 5.46089 4.92649 5.69526 4.99212ZM17.6718 5.02493C17.6718 5.17024 17.9578 5.66712 18.1453 5.85462C18.3328 6.04212 18.8296 6.32805 18.975 6.32805C19.0171 6.32805 19.0312 6.85774 19.0312 8.81712V11.3109L18.8578 11.2781C18.1875 11.1702 17.5921 11.1421 17.0531 11.1937C16.1062 11.2874 15.4359 11.489 14.625 11.9109C14.0343 12.2202 13.7531 12.4312 13.725 12.5812C13.6921 12.7406 13.7765 12.8952 13.9359 12.9843C14.0812 13.064 14.0109 13.0921 14.6859 12.6796C16.3921 11.6437 18.6468 11.6062 20.3671 12.5906C21.8437 13.4296 22.8328 14.7843 23.189 16.4531C23.3062 17.0015 23.3062 18.1077 23.189 18.6562C22.964 19.6921 22.5 20.6156 21.8156 21.3702L21.5437 21.6656L21.4687 21.389C21.3187 20.8406 21.014 20.4702 20.4843 20.2031C20.2781 20.0999 19.8328 19.9452 19.1812 19.7531C19.0265 19.7062 19.0968 19.5843 19.5328 19.1437C20.0484 18.6281 20.3296 18.1593 20.4609 17.6202C20.5546 17.2218 20.5546 16.1671 20.4609 15.6327C20.1984 14.1468 19.0546 13.1249 17.639 13.1249C17.1234 13.1249 16.8328 13.1906 16.3593 13.4156C15.6609 13.7484 15.1171 14.3952 14.864 15.1874C14.6859 15.7593 14.6203 16.7952 14.7187 17.4327C14.8359 18.1312 15.3187 18.914 15.9468 19.4062C16.139 19.5609 16.1578 19.5937 16.1062 19.664C16.0734 19.7109 15.8109 19.8187 15.5109 19.9077C14.8734 20.0999 14.5031 20.2921 14.2171 20.564C14.0109 20.7656 13.7343 21.2671 13.7343 21.4452C13.7296 21.689 13.6546 21.6656 13.3687 21.3374C12.075 19.8327 11.6343 17.9718 12.1218 16.0874C12.2671 15.5202 12.6093 14.8031 12.989 14.2499C13.2562 13.8609 13.275 13.8187 13.2375 13.6781C13.1859 13.4999 12.989 13.3827 12.8203 13.4249C12.6 13.4812 12 14.3952 11.7 15.1406C11.4656 15.7077 11.3156 16.3452 11.25 16.9921C11.1984 17.5077 11.2031 17.7656 11.2781 18.3843L11.3062 18.6093H9.0562H6.8062L6.72651 18.3749C6.56714 17.9015 6.09839 17.4327 5.62495 17.2734L5.39058 17.1937L5.39995 14.9859L5.41401 12.7781L5.67183 12.7968C5.81245 12.8109 6.2062 12.8156 6.53901 12.8109C8.18433 12.7921 9.70308 12.1406 10.8984 10.9452C11.8406 10.0077 12.45 8.84056 12.6843 7.53743C12.8062 6.84368 12.7828 5.69524 12.6328 5.09524L12.6 4.96868H15.1359C17.1328 4.96868 17.6718 4.98274 17.6718 5.02493ZM5.8312 8.88274C6.12651 8.9718 6.67026 8.9718 6.96089 8.88274L7.19058 8.81712L7.34058 8.99055C7.42026 9.0843 7.4812 9.17805 7.47183 9.19681C7.46245 9.21556 7.21401 9.36555 6.9187 9.53899L6.38901 9.84837L5.85464 9.5343C5.55933 9.36087 5.31089 9.21556 5.30151 9.20618C5.29214 9.19681 5.33901 9.12649 5.40933 9.04681C5.47495 8.96712 5.5312 8.87805 5.5312 8.85462C5.5312 8.79837 5.55933 8.80305 5.8312 8.88274ZM5.2687 10.0031C5.72339 10.2702 6.17339 10.5046 6.26245 10.5234C6.3562 10.5374 6.5062 10.5281 6.59995 10.4952C6.74995 10.4484 7.95464 9.76868 8.22651 9.58118C8.36245 9.48274 8.47964 9.50149 8.83589 9.67024C9.39839 9.94212 9.60933 10.2609 9.60933 10.8562V11.1374L9.24839 11.3531C8.52183 11.7749 7.79058 12.0093 6.90464 12.1031C5.77495 12.2202 4.50464 11.939 3.53433 11.3531L3.16401 11.1327L3.17339 10.7859C3.18745 10.3781 3.30464 10.0968 3.55308 9.89055C3.71714 9.75462 4.2187 9.52024 4.35933 9.51556C4.40151 9.51556 4.80933 9.73587 5.2687 10.0031ZM18.1921 13.9031C18.9187 14.1187 19.4765 14.6906 19.7062 15.464C19.8328 15.8999 19.814 15.9281 19.5468 15.6937C19.2468 15.4359 18.9562 15.2812 18.7734 15.2812C18.6984 15.2812 18.4453 15.3327 18.2109 15.3984C17.6906 15.5437 17.5734 15.5437 17.0156 15.3984C16.7718 15.3327 16.5093 15.2812 16.439 15.2812C16.2281 15.2812 15.9843 15.4077 15.7171 15.6609C15.5765 15.7921 15.4546 15.8906 15.4406 15.8765C15.3937 15.8296 15.5578 15.2906 15.6984 15.014C16.1671 14.0906 17.2265 13.6171 18.1921 13.9031ZM16.9218 16.1015C17.4937 16.2468 17.7562 16.2468 18.3281 16.0968L18.7921 15.9702L19.0593 16.2093C19.2093 16.3406 19.439 16.4952 19.5796 16.5562L19.8281 16.6593V16.9734C19.8281 17.8171 19.2046 18.7452 18.3421 19.1765C18.0562 19.3218 17.9859 19.3359 17.6203 19.3359C17.25 19.3359 17.1937 19.3218 16.8562 19.1577C15.9796 18.7218 15.375 17.789 15.375 16.8796V16.664L15.6093 16.5796C15.7546 16.5281 15.9468 16.4015 16.1109 16.2421C16.2609 16.1015 16.4062 15.989 16.4296 15.989C16.4578 15.9843 16.6781 16.0359 16.9218 16.1015ZM5.50776 17.9859C5.88276 18.1734 6.10308 18.5296 6.10308 18.9374C6.10308 19.9921 4.73433 20.3999 4.17183 19.514C3.86245 19.0312 3.97026 18.4452 4.42495 18.089C4.7062 17.8687 5.17964 17.8218 5.50776 17.9859ZM17.0343 19.9921C17.3343 20.0859 17.8734 20.0812 18.1875 19.9874C18.3703 19.9312 18.4453 19.9265 18.4593 19.964C18.4687 19.9968 18.5296 20.0812 18.5953 20.1609C18.6609 20.2359 18.7078 20.3062 18.6984 20.3156C18.689 20.3249 18.4406 20.4702 18.1453 20.6437L17.6156 20.9531L17.2312 20.7374C17.025 20.6156 16.7718 20.4656 16.6734 20.4046L16.4953 20.2921L16.65 20.1093C16.7343 20.0062 16.8046 19.9218 16.8046 19.9218C16.8046 19.9218 16.9078 19.9546 17.0343 19.9921ZM16.4437 21.0843C17.3156 21.5999 17.4984 21.6749 17.7374 21.6281C17.8312 21.614 18.2765 21.3796 18.7312 21.1124C19.1859 20.8452 19.589 20.6249 19.6218 20.6249C19.7531 20.6249 20.2828 20.8687 20.4468 20.9999C20.6906 21.2015 20.8171 21.5015 20.8265 21.9046L20.8359 22.2421L20.4656 22.4624C18.7031 23.5218 16.3734 23.4843 14.5921 22.3687C14.3906 22.2421 14.3906 22.2421 14.3906 21.9609C14.3906 21.5202 14.4609 21.3327 14.7375 21.0702C14.9671 20.8499 15.375 20.6343 15.5765 20.6296C15.6187 20.6249 16.0125 20.8312 16.4437 21.0843Z"/>
    </g>
    <defs>
        <clipPath id="arclip0_2032_1098">
            <rect width="24" height="24"/>
        </clipPath>
    </defs>
</symbol><symbol viewBox="0 0 20 20" id="open" xmlns="http://www.w3.org/2000/svg">
    <path d="M10 1L10 19" stroke-width="2" stroke-linecap="round"/>
    <path d="M19 10L1 10" stroke-width="2" stroke-linecap="round"/>
</symbol><symbol viewBox="0 0 16 16" id="phone" xmlns="http://www.w3.org/2000/svg">
    <g clip-path="url(#atclip0_436_1412)">
        <path d="M4.91434 0.799805H2.10914C1.38615 0.799805 0.800049 1.3859 0.800049 2.10889C0.800049 9.33881 6.66105 15.1998 13.8909 15.1998C14.6139 15.1998 15.2 14.6137 15.2 13.8907V11.0855L12.1144 9.02836L10.5143 10.6284C10.2364 10.9063 9.8211 10.9927 9.47193 10.8124C8.87974 10.5064 7.91871 9.93159 6.97149 9.02836C6.00161 8.10358 5.43335 7.1071 5.14814 6.50419C4.9883 6.16624 5.08084 5.77616 5.34518 5.51182L6.97149 3.88552L4.91434 0.799805Z" stroke-width="1.35" stroke-linecap="round" stroke-linejoin="round"/>
    </g>
    <defs>
        <clipPath id="atclip0_436_1412">
            <rect width="16" height="16"/>
        </clipPath>
    </defs>
</symbol><symbol viewBox="0 0 28 28" id="phone2" xmlns="http://www.w3.org/2000/svg">
    <path d="M8.42858 1H3.36363C2.05824 1 1 2.05824 1 3.36363C1 16.4176 11.5824 27 24.6363 27C25.9417 27 27 25.9417 27 24.6363V19.5714L21.4287 15.8571L18.5396 18.746C18.0379 19.2479 17.288 19.4039 16.6576 19.0782C15.5883 18.5258 13.8531 17.4879 12.1429 15.8571C10.3917 14.1874 9.36569 12.3882 8.85073 11.2996C8.56213 10.6894 8.72921 9.98508 9.20648 9.50781L12.1429 6.57142L8.42858 1Z" stroke-width="1.6" stroke-linecap="round" stroke-linejoin="round"/>
</symbol><symbol viewBox="0 0 78 78" id="play-btn" xmlns="http://www.w3.org/2000/svg">
    <g filter="url(#avfilter0_b_436_1094)">
        <circle cx="39" cy="39" r="35" fill-opacity="0.6"/>
        <circle cx="39" cy="39" r="37" stroke-width="4"/>
    </g>
    <path fill-rule="evenodd" clip-rule="evenodd" d="M28.9995 30.6444C28.9995 28.7629 31.0169 27.5701 32.6662 28.4766L47.8926 36.8524C49.6013 37.7918 49.6013 40.2473 47.8926 41.1868L32.6676 49.5626C31.0183 50.4691 29.0008 49.2763 29.0008 47.3948L28.9995 30.6444Z"/>
    <defs>
        <filter id="avfilter0_b_436_1094" x="-10" y="-10" width="98" height="98" filterUnits="userSpaceOnUse" color-interpolation-filters="sRGB">
            <feFlood flood-opacity="0" result="BackgroundImageFix"/>
            <feGaussianBlur in="BackgroundImageFix" stdDeviation="5"/>
            <feComposite in2="SourceAlpha" operator="in" result="effect1_backgroundBlur_436_1094"/>
            <feBlend mode="normal" in="SourceGraphic" in2="effect1_backgroundBlur_436_1094" result="shape"/>
        </filter>
    </defs>
</symbol><symbol viewBox="0 0 24 25" id="puzzle" xmlns="http://www.w3.org/2000/svg">
    <path d="M5.88273 2.37978C4.39679 2.58135 3.06554 3.24228 1.9921 4.32041C1.00773 5.3001 0.38429 6.46729 0.107728 7.84541C-0.0188346 8.46885 -0.00477205 9.78603 0.131165 10.4235C0.323353 11.3095 0.651478 12.0876 1.16242 12.8751C1.38273 13.2126 2.09523 13.9438 5.87804 17.7313C10.228 22.0813 10.3452 22.1938 10.6921 22.3626C11.5405 22.7704 12.4499 22.7704 13.303 22.3626C13.6124 22.2126 13.7624 22.0954 14.3343 21.5329C14.9202 20.9517 14.9999 20.8579 14.9999 20.722C14.9999 20.6142 14.9624 20.5438 14.878 20.4735C14.6437 20.2907 14.564 20.3282 13.8984 20.9845C13.2702 21.6032 12.9421 21.8188 12.5296 21.9032L12.3749 21.9313V20.3517V18.772L12.4827 18.8001C12.7124 18.8704 13.3171 18.8845 13.603 18.8329C14.639 18.6313 15.464 17.7548 15.6187 16.6907C15.6655 16.3673 15.6609 16.2501 15.5952 15.9173C15.4077 14.9704 14.8077 14.2813 13.8937 13.972C13.5655 13.8642 13.4718 13.8501 13.0312 13.8688C12.7593 13.8829 12.5015 13.9063 12.4593 13.9251C12.3796 13.9626 12.3749 13.9063 12.3749 13.1845V12.4063H14.2874C16.3265 12.4017 16.3077 12.4063 16.3968 12.1673C16.4296 12.0829 16.4062 11.9704 16.2984 11.7032C15.9468 10.8173 16.1812 9.95947 16.9218 9.43916C17.2687 9.2001 17.5968 9.11103 18.0468 9.13447C19.3405 9.20947 20.1234 10.536 19.5702 11.736C19.4249 12.0595 19.4249 12.1485 19.5702 12.2892L19.6827 12.4063H20.9999H22.3124L22.139 12.6501C22.0452 12.786 20.5077 14.3657 18.7171 16.1563C15.764 19.1188 15.4687 19.4329 15.4687 19.5688C15.4687 19.7657 15.6093 19.9063 15.8109 19.9063C15.9515 19.9063 16.2374 19.6298 19.2702 16.5876C22.0077 13.8454 22.6218 13.2032 22.8374 12.8751C23.3437 12.1017 23.6765 11.3142 23.8687 10.4235C24.014 9.74385 24.014 8.42197 23.8687 7.75635C23.564 6.36885 22.9827 5.29072 22.0077 4.32041C21.3046 3.6126 20.4234 3.04072 19.589 2.7501C19.3546 2.66572 19.1812 2.72197 19.1062 2.9001C19.0171 3.10166 19.0874 3.28916 19.2796 3.36885C19.739 3.56104 20.4609 3.94541 20.7655 4.16103C20.9577 4.29697 21.2999 4.5876 21.5202 4.80791C23.2265 6.51885 23.7515 9.06416 22.8655 11.3142L22.7109 11.7032H21.5249C20.4374 11.7032 20.3343 11.6985 20.3624 11.6282C20.4374 11.436 20.4749 10.9345 20.4374 10.6345C20.2734 9.3501 19.228 8.42666 17.9296 8.42197C16.4952 8.42197 15.314 9.69697 15.4405 11.1079C15.4546 11.2954 15.4827 11.5017 15.4968 11.572L15.5249 11.7032H13.9546H12.3843L12.3655 10.7985C12.3515 9.82822 12.3374 9.77197 12.103 9.68291C12.0187 9.6501 11.9155 9.67353 11.6577 9.79072C11.353 9.92666 11.2734 9.94072 10.8749 9.94541C10.4624 9.94541 10.4015 9.93135 10.1155 9.79072C9.36554 9.42041 8.93898 8.6001 9.09367 7.82666C9.33742 6.64072 10.6218 5.99385 11.6812 6.52822C12.0327 6.70635 12.2296 6.66416 12.3234 6.40166C12.3515 6.31728 12.3749 6.00322 12.3749 5.70322V5.15479L12.5671 5.06572C12.6749 5.01885 12.8905 4.86416 13.0499 4.71885C14.3484 3.54228 15.6749 3.03135 17.4234 3.03135C17.8921 3.03135 17.9624 3.02197 18.0468 2.9376C18.164 2.82041 18.1687 2.59072 18.0515 2.47353C17.9155 2.3376 17.6859 2.30947 16.9968 2.34229C15.4452 2.40791 14.053 2.94228 12.9234 3.90791C12.253 4.47978 12.2437 4.48447 12.0046 4.48447C11.7515 4.48447 11.6812 4.44228 11.2405 4.03916C10.4249 3.28916 9.28117 2.7126 8.11867 2.46885C7.58898 2.35635 6.39835 2.30947 5.88273 2.37978ZM7.94523 3.14853C9.04679 3.37822 9.97492 3.85166 10.8327 4.61572C11.039 4.80322 11.3155 5.00947 11.4421 5.07041L11.6718 5.1876V5.44072C11.6718 5.57666 11.6577 5.69853 11.6437 5.7126C11.6296 5.73135 11.5499 5.72197 11.4702 5.69853C11.3859 5.67041 11.1187 5.65166 10.8749 5.64697C10.1999 5.64697 9.69835 5.83916 9.17804 6.30322C7.77648 7.56416 8.27335 9.91728 10.078 10.536C10.4062 10.6485 11.0905 10.686 11.4749 10.611L11.6718 10.5688V11.136V11.7032H10.2093C8.63898 11.7079 8.6296 11.7079 8.53585 11.9423C8.50304 12.036 8.52179 12.1298 8.63429 12.3782C9.33742 13.972 7.77648 15.5235 6.19679 14.797C5.89679 14.661 5.84523 14.6517 5.72335 14.7032C5.53585 14.7782 5.45617 14.9798 5.54054 15.1579C5.61554 15.3173 6.07492 15.5563 6.4546 15.636C7.32648 15.8095 8.15148 15.561 8.76554 14.9423C9.30929 14.3938 9.54835 13.761 9.49679 13.0157C9.48273 12.7954 9.45929 12.5704 9.44054 12.5095L9.41242 12.4063H10.5421H11.6718V13.5313C11.6718 14.6095 11.6765 14.661 11.7702 14.7548C11.8921 14.8767 12.0421 14.8579 12.464 14.6798C12.7312 14.5673 12.8062 14.5579 13.1905 14.572C13.528 14.5813 13.6687 14.6142 13.8749 14.7079C14.4234 14.9704 14.7984 15.4579 14.9109 16.072C15.0515 16.8454 14.6249 17.6517 13.8749 18.0032C13.603 18.1345 13.5234 18.1485 13.1249 18.1485C12.7359 18.1485 12.6421 18.1298 12.403 18.0173C12.089 17.872 11.8827 17.8579 11.7562 17.9704C11.6765 18.0407 11.6718 18.1673 11.6718 19.9907V21.936L11.5077 21.9079C11.4187 21.8938 11.2124 21.8235 11.053 21.7532C10.7765 21.6313 10.4859 21.3548 6.50148 17.3798C4.16242 15.0454 2.11867 12.9688 1.96398 12.7673L1.68273 12.4063H3.13585C3.93742 12.4063 4.59367 12.411 4.59367 12.4204C4.59367 12.4251 4.57023 12.5048 4.54679 12.5938C4.47648 12.8282 4.48585 13.5688 4.55617 13.7892C4.66398 14.1126 5.01085 14.1923 5.18429 13.9298C5.24523 13.836 5.24992 13.761 5.2171 13.4985C5.16554 13.086 5.2171 12.697 5.3671 12.3735C5.51242 12.0501 5.51242 11.961 5.3671 11.8204L5.2546 11.7032H3.27179H1.28898L1.13429 11.3142C0.81554 10.5079 0.674915 9.65947 0.717103 8.79697C0.829603 6.59853 2.09054 4.65791 4.0546 3.67353C4.5421 3.42978 5.22179 3.20478 5.69523 3.12978C5.87804 3.10166 6.07492 3.06885 6.14054 3.05947C6.40304 3.0126 7.58898 3.07353 7.94523 3.14853Z"/>
</symbol><symbol viewBox="0 0 24 24" id="search" xmlns="http://www.w3.org/2000/svg">
    <path d="M18.5 18.5L22 22M21 11.5C21 6.25329 16.7467 2 11.5 2C6.25329 2 2 6.25329 2 11.5C2 16.7467 6.25329 21 11.5 21C16.7467 21 21 16.7467 21 11.5Z" stroke-width="1.5" stroke-linecap="round" stroke-linejoin="round"/>
</symbol><symbol viewBox="0 0 24 24" id="search-line" xmlns="http://www.w3.org/2000/svg">
    <path d="M18.031 16.6168L22.3137 20.8995L20.8995 22.3137L16.6168 18.031C15.0769 19.263 13.124 20 11 20C6.032 20 2 15.968 2 11C2 6.032 6.032 2 11 2C15.968 2 20 6.032 20 11C20 13.124 19.263 15.0769 18.031 16.6168ZM16.0247 15.8748C17.2475 14.6146 18 12.8956 18 11C18 7.1325 14.8675 4 11 4C7.1325 4 4 7.1325 4 11C4 14.8675 7.1325 18 11 18C12.8956 18 14.6146 17.2475 15.8748 16.0247L16.0247 15.8748Z"/>
</symbol><symbol viewBox="0 0 21 21" id="star-full" xmlns="http://www.w3.org/2000/svg">
    <mask id="azmask0_2162_863" style="mask-type:luminance" maskUnits="userSpaceOnUse" x="0" y="0" width="21" height="21">
        <path d="M20.2817 0.560547H0V20.8422H20.2817V0.560547Z"/>
    </mask>
    <g mask="url(#azmask0_2162_863)">
        <path d="M4.57689 20.1358C4.08759 20.3868 3.53238 19.947 3.63125 19.3854L4.68336 13.3896L0.217589 9.13554C-0.199453 8.73752 0.017307 8.00991 0.576321 7.93132L6.78505 7.04906L9.55351 1.56413C9.80322 1.06977 10.4789 1.06977 10.7286 1.56413L13.497 7.04906L19.7058 7.93132C20.2648 8.00991 20.4815 8.73752 20.0645 9.13554L15.5987 13.3896L16.6508 19.3854C16.7497 19.947 16.1945 20.3868 15.7052 20.1358L10.1391 17.2761L4.57562 20.1358H4.57689Z"/>
    </g>
</symbol><symbol viewBox="0 0 28 28" id="telegram" xmlns="http://www.w3.org/2000/svg">
    <path d="M24.8511 3.35223C24.5783 3.3642 24.3128 3.44011 24.0734 3.53598C23.8364 3.63122 22.4721 4.21352 20.4575 5.07489C18.4428 5.93626 15.8239 7.05794 13.2278 8.1702C8.03561 10.3947 2.93341 12.5835 2.93341 12.5835L2.9706 12.5693C2.9706 12.5693 2.66265 12.6722 2.35044 12.8897C2.19434 12.9985 2.02639 13.1389 1.88888 13.3436C1.75137 13.5484 1.65084 13.8385 1.68872 14.1454C1.82179 15.2232 2.93888 15.529 2.93888 15.529L2.94325 15.5311L7.92857 17.2374C8.05567 17.6614 9.44063 22.2839 9.74529 23.2629C9.91354 23.8041 10.071 24.1163 10.2353 24.3293C10.3175 24.4358 10.4036 24.5183 10.4989 24.5786C10.5367 24.6026 10.5765 24.6206 10.6159 24.6366H10.6181C10.6229 24.6387 10.6275 24.6389 10.6323 24.641L10.6192 24.6377C10.6283 24.6414 10.6374 24.6476 10.6465 24.6508C10.6643 24.6571 10.6752 24.6568 10.6979 24.6618C11.2689 24.8611 11.7414 24.4911 11.7414 24.4911L11.7611 24.4758L14.8236 21.6354L19.7936 25.5105L19.8559 25.539C20.7258 25.9252 21.5126 25.7097 21.9483 25.3552C22.3839 25.0007 22.5553 24.5436 22.5553 24.5436L22.5739 24.4955L26.2259 5.46098C26.3194 5.03514 26.3326 4.66704 26.2445 4.33442C26.1564 4.0018 25.9422 3.71265 25.6736 3.55239C25.4049 3.39213 25.1238 3.34027 24.8511 3.35223ZM24.8806 4.49083C24.9914 4.4857 25.0735 4.49836 25.0993 4.5138C25.1252 4.52923 25.1368 4.5272 25.1617 4.62098C25.1865 4.71477 25.2 4.9123 25.1322 5.22145L25.13 5.22801L21.4987 24.1521C21.4901 24.1711 21.4145 24.3462 21.2417 24.4868C21.0654 24.6302 20.8694 24.7421 20.3492 24.524L14.9143 20.2857L14.7612 20.1654L14.7579 20.1686L13.1326 18.9491L22.2665 8.20302C22.3367 8.12066 22.3815 8.01973 22.3956 7.91244C22.4096 7.80515 22.3923 7.69608 22.3457 7.59844C22.299 7.50079 22.2251 7.41874 22.1329 7.36221C22.0406 7.30568 21.9339 7.27709 21.8258 7.27989C21.7201 7.28264 21.6173 7.31525 21.5293 7.37395L8.31247 16.1852L3.3195 14.4757C3.3195 14.4757 2.8237 14.1998 2.79997 14.0075C2.79866 13.9969 2.7928 14.0065 2.81857 13.9682C2.84433 13.9298 2.90909 13.8651 2.99029 13.8085C3.15267 13.6953 3.3381 13.6269 3.3381 13.6269L3.35669 13.6204L3.37529 13.6127C3.37529 13.6127 8.47775 11.4238 13.6697 9.19942C16.2656 8.08722 18.8841 6.96636 20.8983 6.1052C22.9119 5.24427 24.3669 4.62457 24.4901 4.57505C24.6304 4.51888 24.7698 4.49596 24.8806 4.49083ZM18.8234 10.524L11.8967 18.6735L11.8934 18.6768C11.8826 18.6898 11.8724 18.7033 11.8628 18.7172C11.8518 18.7324 11.8416 18.7481 11.8322 18.7643C11.7932 18.8303 11.7683 18.9037 11.7589 18.9797C11.7589 18.9812 11.7589 18.9826 11.7589 18.9841L10.8565 23.0419C10.8415 22.9981 10.831 22.982 10.815 22.9304V22.9293C10.5284 22.0084 9.2217 17.6489 9.04091 17.046L18.8234 10.524ZM12.6787 20.009L13.9234 20.943L12.0947 22.6383L12.6787 20.009Z"/>
</symbol><symbol viewBox="0 0 24 24" id="user" xmlns="http://www.w3.org/2000/svg">
    <path d="M18.5588 19.5488C17.5654 16.8918 15.0036 15 12 15C8.99638 15 6.4346 16.8918 5.44117 19.5488M18.5588 19.5488C20.6672 17.7154 22 15.0134 22 12C22 6.47715 17.5228 2 12 2C6.47715 2 2 6.47715 2 12C2 15.0134 3.33285 17.7154 5.44117 19.5488M18.5588 19.5488C16.8031 21.0756 14.5095 22 12 22C9.49052 22 7.19694 21.0756 5.44117 19.5488M15 9C15 10.6569 13.6569 12 12 12C10.3431 12 9 10.6569 9 9C9 7.34315 10.3431 6 12 6C13.6569 6 15 7.34315 15 9Z" stroke-width="1.5" stroke-linejoin="round"/>
</symbol></svg>