<?xml version="1.0" encoding="utf-8"?><svg viewBox="0 0 184 78" xmlns="http://www.w3.org/2000/svg" xmlns:xlink="http://www.w3.org/1999/xlink"><style>:root>svg{display:none}:root>svg:target{display:block}</style><svg fill="none" viewBox="0 0 28 28" id="arrow-down" xmlns="http://www.w3.org/2000/svg">
    <path d="M9.473 10.838 14 15.365l4.527-4.527a1.162 1.162 0 0 1 1.645 0c.455.455.455 1.19 0 1.645l-5.355 5.355a1.162 1.162 0 0 1-1.645 0l-5.355-5.355a1.162 1.162 0 0 1 0-1.645 1.187 1.187 0 0 1 1.656 0Z" fill="#5BBA4B"/>
</svg><svg fill="none" viewBox="0 0 21 16" id="arrow-left" xmlns="http://www.w3.org/2000/svg">
    <path d="M.293 7.293a1 1 0 0 0 0 1.414l6.364 6.364a1 1 0 0 0 1.414-1.414L2.414 8l5.657-5.657A1 1 0 0 0 6.657.93L.293 7.293ZM21 7H1v2h20V7Z" fill="#003D5A"/>
</svg><svg fill="none" viewBox="0 0 21 16" id="arrow-right" xmlns="http://www.w3.org/2000/svg">
    <path d="M20.707 8.707a1 1 0 0 0 0-1.414L14.343.929a1 1 0 1 0-1.414 1.414L18.586 8l-5.657 5.657a1 1 0 0 0 1.414 1.414l6.364-6.364ZM0 9h20V7H0v2Z" fill="#003D5A"/>
</svg><svg fill="none" viewBox="0 0 28 28" id="arrow-up" xmlns="http://www.w3.org/2000/svg">
    <path d="M9.473 17.162 14 12.635l4.527 4.527c.455.455 1.19.455 1.645 0a1.162 1.162 0 0 0 0-1.645l-5.355-5.355a1.162 1.162 0 0 0-1.645 0l-5.355 5.355a1.162 1.162 0 0 0 0 1.645 1.187 1.187 0 0 0 1.656 0Z" fill="#5BBA4B"/>
</svg><svg fill="none" viewBox="0 0 24 24" id="cardiogram" xmlns="http://www.w3.org/2000/svg">
    <path d="M2.025 1.997a1.386 1.386 0 0 0-.384.3c-.3.38-.286-.117-.272 7.781l.014 7.195.103.188c.056.103.169.253.258.333.276.262.436.319.989.337l.501.019v.628c0 .511.02.67.094.877.131.356.37.61.731.787.291.145.343.155.938.174l.628.023v.305c0 .38.07.614.244.83.286.342.333.351 1.889.351 1.27 0 1.401-.01 1.56-.09.4-.205.573-.524.573-1.058v-.352H14.11v.352c0 .534.173.853.571 1.059.16.08.29.089 1.561.089 1.556 0 1.603-.01 1.89-.352.173-.215.243-.45.243-.83v-.304l.628-.023c.595-.02.647-.029.938-.174.351-.173.6-.44.736-.801.07-.188.089-.357.089-.863v-.628l.506-.019c.394-.014.544-.037.689-.117a1.49 1.49 0 0 0 .567-.576c.085-.16.09-.446.103-7.336.01-5.096 0-7.229-.037-7.36a1.275 1.275 0 0 0-.614-.745l-.249-.122H2.27l-.244.122Zm19.805.469a1.1 1.1 0 0 1 .225.257c.093.16.093.244.093 7.285 0 7.04 0 7.125-.093 7.28a.964.964 0 0 1-.258.257l-.164.103H2.367l-.164-.103a.962.962 0 0 1-.258-.258c-.093-.154-.093-.248-.108-7.176-.004-4.65.005-7.088.038-7.205.06-.225.21-.417.394-.497.122-.051 1.79-.06 9.787-.051l9.642.01.132.098Zm-1.533 16.218c0 .3-.024.628-.052.727-.075.244-.3.506-.53.61-.182.084-.496.088-7.715.088-7.219 0-7.533-.004-7.716-.089a1.079 1.079 0 0 1-.53-.61c-.027-.098-.05-.426-.05-.726v-.543h16.593v.543ZM9.422 20.911c0 .169-.033.351-.075.445-.136.29-.202.3-1.608.3H6.48l-.146-.122c-.16-.13-.24-.356-.24-.689v-.22H9.423v.286Zm8.484-.066c0 .333-.08.558-.239.69l-.145.121H16.26c-1.406 0-1.472-.01-1.608-.3a1.252 1.252 0 0 1-.075-.445v-.286h3.328v.22Z" fill="#2D3F48"/>
    <path d="M3.047 3.605C3.014 3.665 3 5.292 3 8.55c0 4.345.01 4.856.075 4.922.066.066.938.075 8.925.075 7.988 0 8.86-.01 8.925-.075.066-.066.075-.577.075-4.922 0-3.258-.014-4.884-.047-4.945-.051-.09-.197-.09-8.953-.09s-8.902 0-8.953.09Zm17.475 2.639-.014 2.264-.685.014c-.623.01-.689.005-.721-.07a66.791 66.791 0 0 1-.333-.947c-.164-.474-.324-.89-.352-.928-.07-.08-.253-.08-.337.004-.033.038-.207.478-.385.985l-.318.918h-1.36l-.45-.342c-.595-.45-.637-.473-.769-.403-.056.033-.304.211-.553.403l-.45.342h-2.583l-.623.82c-.44.587-.633.807-.66.76-.029-.052-.55-1.514-1.29-3.633-.08-.23-.192-.31-.356-.248-.094.037-.174.23-.572 1.36-.253.726-.474 1.316-.488 1.316-.014 0-.121-.267-.239-.6l-.21-.595-.165-.014c-.159-.014-.178.005-.464.39a7.604 7.604 0 0 1-.365.473c-.057.056-.263.065-1.177.056l-1.11-.014-.015-2.288-.01-2.283H20.532l-.01 2.26ZM9.052 9.066c.642 1.828.665 1.88.89 1.823.042-.014.399-.45.797-.98l.722-.956H13.983l.454-.351.455-.347.488.36.482.362.82.014c.6.009.859-.005.943-.047.094-.052.164-.192.352-.732.13-.365.248-.665.262-.665.019 0 .14.314.277.703.13.384.248.708.253.713 0 .004.394.018.872.032l.867.028v4.032H3.492l-.014-2.007-.01-2.001h2.49l.122-.131c.065-.07.183-.216.262-.329.08-.107.16-.182.174-.164.018.024.13.333.257.694.122.361.244.685.272.713.024.033.103.06.174.06.07 0 .15-.027.178-.06.023-.028.253-.643.506-1.36.272-.778.469-1.28.492-1.242.02.033.314.858.657 1.838ZM7.969 14.578c-.45.211-.675.553-.675 1.031 0 .202.028.361.084.47.366.702 1.261.866 1.805.322.51-.515.417-1.368-.192-1.743-.3-.188-.722-.22-1.022-.08Zm.618.422a.68.68 0 0 1 .441.492c.117.624-.656.994-1.092.52-.131-.14-.155-.201-.155-.403 0-.192.024-.258.146-.398a.812.812 0 0 1 .464-.253c.014-.005.103.018.196.042ZM11.592 14.564c-.38.131-.717.628-.717 1.045 0 .535.431 1.018.975 1.107.338.051.656-.061.923-.329.46-.464.474-1.045.038-1.528-.314-.351-.76-.459-1.219-.295Zm.675.478c.605.277.399 1.177-.267 1.177-.488 0-.773-.488-.544-.933.08-.145.38-.333.544-.333.037 0 .16.042.267.09ZM15.22 14.55c-.595.216-.91.938-.647 1.51.399.871 1.604.885 2.049.018.117-.234.112-.717-.014-.96-.267-.507-.863-.75-1.388-.568Zm.54.45a.789.789 0 0 1 .313.216c.122.136.146.201.146.393 0 .202-.024.263-.15.403-.338.361-.924.254-1.074-.201-.126-.39.132-.778.568-.853.014-.005.103.019.196.042ZM3.075 15.45c-.099.098-.094.22.01.314.074.07.243.08 1.396.08 1.402 0 1.425-.005 1.425-.235 0-.23-.023-.234-1.434-.234-1.144 0-1.336.01-1.397.075ZM18.15 15.431c-.033.033-.056.113-.056.178 0 .23.023.235 1.43.235 1.218 0 1.326-.005 1.396-.085.099-.107.103-.215.005-.309-.06-.066-.253-.075-1.397-.075-.965 0-1.336.014-1.378.056Z" fill="#2D3F48"/>
</svg><svg fill="none" viewBox="0 0 26 26" id="close" xmlns="http://www.w3.org/2000/svg">
    <path d="m6.908 6.636 12.728 12.728M19.636 6.636 6.908 19.364" stroke="#2D3F48" stroke-width="2" stroke-linecap="round"/>
</svg><svg fill="none" viewBox="0 0 24 24" id="diagnostic" xmlns="http://www.w3.org/2000/svg">
    <g clip-path="url(#aga)" fill="#2D3F48">
        <path d="M3.155.38c-.446.056-.905.422-1.069.848-.07.197-.094.216-.272.244-.783.127-1.584.947-1.762 1.8-.066.323-.07 4.434-.005 5.142a9.91 9.91 0 0 0 .984 3.469 7.834 7.834 0 0 0 1.407 2.006c.984 1.031 2.16 1.678 3.421 1.885.244.037.46.07.483.07.019 0 .033 1.228.033 2.733 0 3 0 2.99.29 3.58.544 1.107 1.918 1.721 3.132 1.402.881-.234 1.631-.956 1.931-1.856.099-.29.103-.408.127-2.648.033-2.592.018-2.494.342-2.766.436-.37 1.031-.337 1.434.075.22.225.29.516.29 1.19 0 .643.067.952.287 1.393.431.858 1.514 1.387 2.475 1.214a2.858 2.858 0 0 0 1.148-.525 2.98 2.98 0 0 0 .694-.97l.108-.268.023-3.656c.033-4.008.014-3.815.324-4.228.248-.328.66-.53 1.078-.53.173 0 .412.033.534.075.296.099.61.39.769.713l.131.267v8.372l-.281.098c-1.533.516-1.969 2.447-.802 3.544.357.333.694.502 1.14.577 1.471.244 2.756-1.163 2.38-2.597-.196-.75-.684-1.28-1.41-1.528l-.277-.094-.023-4.303c-.024-4.111-.028-4.313-.113-4.514-.23-.534-.576-.924-1.026-1.153-1.149-.586-2.503-.07-2.996 1.143l-.107.268-.024 3.703c-.019 3.033-.037 3.731-.089 3.867-.38.947-1.448 1.373-2.316.933a1.817 1.817 0 0 1-.839-.99c-.023-.084-.06-.524-.08-.974-.032-.797-.037-.83-.177-1.102-.76-1.481-2.92-1.214-3.296.408-.023.117-.047 1.11-.047 2.367 0 1.96-.009 2.19-.084 2.438a2.006 2.006 0 0 1-3.305.862 2.26 2.26 0 0 1-.375-.464c-.262-.483-.267-.548-.267-3.412v-2.635l.131-.028c.07-.014.244-.037.385-.056.38-.047.97-.225 1.425-.436 1.945-.9 3.454-2.864 4.083-5.32.295-1.158.323-1.496.323-4.2.005-2.372.005-2.42-.098-2.747-.127-.39-.408-.835-.685-1.078-.234-.202-.783-.479-1.026-.516-.16-.028-.188-.056-.286-.272-.164-.347-.328-.52-.661-.684A1.13 1.13 0 0 0 10.04.37c-.45 0-.74.127-1.036.455-.296.324-.399.619-.37 1.045a1.404 1.404 0 0 0 2.25 1.022c.164-.126.459-.52.515-.698.01-.024.136 0 .281.056.352.131.699.46.868.82l.13.282.015 2.18c.019 2.277-.019 2.98-.178 3.796-.333 1.64-1.06 3.07-2.11 4.13-1.439 1.453-3.23 1.983-5.001 1.467-1.59-.46-2.925-1.697-3.788-3.502a8.14 8.14 0 0 1-.633-1.771C.774 8.752.75 8.405.75 5.85c0-2.334.005-2.433.099-2.681a1.69 1.69 0 0 1 .759-.844c.408-.192.426-.192.497.005.094.258.497.637.773.731.924.314 1.842-.281 1.894-1.233C4.823.928 4.078.263 3.155.38Zm.586.792c.45.277.45.966 0 1.2-.474.244-1.022-.08-1.022-.6s.586-.867 1.022-.6Zm6.6-.019a.683.683 0 0 1 .164 1.116c-.385.37-1.064.14-1.153-.385-.029-.164-.014-.243.08-.417a.66.66 0 0 1 .909-.314Zm12.107 19.102c.263.112.488.323.652.6.094.164.127.286.14.595.02.338.005.417-.093.638-.483 1.054-1.913 1.11-2.508.098-.16-.276-.201-.783-.089-1.125.253-.76 1.148-1.139 1.898-.806Z"/>
        <path d="M21.656 21.281c-.122.122-.122.38-.01.483a.331.331 0 0 0 .474-.042c.127-.164.122-.277-.019-.417-.136-.14-.318-.15-.445-.024ZM3.197 12.155c-.136.145-.136.36.005.492.056.051.323.187.59.29 1.707.69 3.67.746 5.429.165 1.05-.352 1.345-.62 1.021-.938-.154-.16-.286-.15-.825.066-1.73.698-3.707.689-5.46-.014-.483-.197-.624-.207-.76-.061Z"/>
    </g>
    <defs>
        <clipPath id="aga">
            <path fill="#fff" d="M0 0h24v24H0z"/>
        </clipPath>
    </defs>
</svg><svg fill="none" viewBox="0 0 24 25" id="earth-globe" xmlns="http://www.w3.org/2000/svg">
    <g clip-path="url(#aha)">
        <path d="M4.617.617C4.5.73 4.5.74 4.5 1.625s0 .895.117 1.008c.113.112.131.117.844.117h.727v4.162l-.385.32a9.745 9.745 0 0 0-3.042 10.612A9.766 9.766 0 0 0 12 24.5a9.762 9.762 0 0 0 9.445-7.355c.225-.9.277-1.322.277-2.395s-.052-1.495-.277-2.395a9.869 9.869 0 0 0-3.271-5.147l-.361-.3V2.75h.937v2.77l.117.113c.15.154.366.154.516 0l.117-.113V.73l-.117-.113L19.27.5H4.73l-.113.117ZM18.75 1.625V2H5.25v-.75h13.5v.375Zm-1.688 3V6.5H6.938V2.75h10.125v1.875Zm-7.874 2.64c0 .004-.127.388-.282.852-.154.464-.281.89-.281.947 0 .061.14.455.31.877l.304.768-.403.807c-.394.787-.408.806-.53.773-.23-.056-1.298-.258-1.378-.258-.042 0-.473.314-.956.699l-.881.703-1.032.469c-.567.257-1.04.459-1.05.454-.004-.01.02-.286.057-.618a8.963 8.963 0 0 1 3.567-6.202l.375-.281L8.1 7.25c.595 0 1.088.005 1.088.014Zm4.453.098c0 .065.21.604.468 1.204.258.605.47 1.106.47 1.125 0 .019-.212.385-.47.816-.257.436-.468.825-.468.876 0 .193.707 2.546.787 2.63.066.061.328.122 1.013.24.506.084.942.173.96.196.024.023.16.398.305.84l.263.796-.338 1.008-.332 1.008.365 1.096.361 1.093.469.586c.534.67.534.58-.024 1.007a9.08 9.08 0 0 1-2.568 1.374c-.268.089-.488.164-.497.164-.01 0-.014-.122-.014-.272 0-.258.018-.3.492-1.087l.492-.82v-1.13c0-1.013-.01-1.144-.08-1.233-.046-.052-.515-.314-1.045-.582l-.956-.482-.333-.82-.328-.816-.74-.558c-.591-.45-.774-.563-.891-.563-.104.005-.502.202-1.308.666l-1.163.666H7.027c-.872 0-1.538.018-1.585.047-.103.051-.16.192-.286.703-.056.22-.117.478-.145.572-.038.135-.145.262-.53.6-.272.23-.501.421-.52.421-.108 0-.572-1.289-.745-2.062-.127-.577-.23-1.406-.178-1.463.018-.018.571-.276 1.223-.576 1.087-.497 1.237-.577 1.683-.928.267-.211.633-.497.81-.638l.324-.253.769.15c.422.08.81.145.858.145.051 0 .136-.046.187-.107.117-.127 1.14-2.157 1.14-2.264 0-.043-.146-.436-.324-.882l-.328-.81.31-.896.308-.9h3.643v.112Zm3.768.21a8.937 8.937 0 0 1 3.375 5.27c.6 2.68-.103 5.53-1.889 7.673-.183.22-.351.398-.375.398-.023 0-.225-.225-.44-.502l-.399-.501-.286-.858c-.159-.473-.286-.9-.286-.951 0-.052.136-.507.305-1.008.169-.502.305-.957.305-1.008 0-.052-.16-.577-.357-1.163-.262-.792-.38-1.082-.454-1.134-.056-.037-.516-.136-1.017-.22l-.914-.16-.268-.909c-.145-.502-.267-.952-.267-.998-.005-.047.207-.441.464-.872.263-.432.469-.835.469-.9 0-.061-.206-.6-.464-1.19-.44-1.032-.455-1.084-.384-1.182.075-.103.089-.103 1.265-.108h1.19l.427.323Zm-5.91 8.7.53.399.276.689c.431 1.097.3.951 1.378 1.49l.942.47v1.706l-.492.815-.492.82v.938l-.15.028c-1.735.314-3.718.033-5.372-.769a9.008 9.008 0 0 1-3.572-3.065l-.234-.352.6-.51c.328-.282.628-.554.67-.6.042-.052.136-.338.21-.643l.132-.548h2.817l1.102-.633a57.273 57.273 0 0 1 1.115-.633c.005 0 .249.178.54.398Z" fill="#2D3F48"/>
    </g>
    <defs>
        <clipPath id="aha">
            <path fill="#fff" transform="translate(0 .5)" d="M0 0h24v24H0z"/>
        </clipPath>
    </defs>
</svg><svg fill="none" viewBox="0 0 21 15" id="email" xmlns="http://www.w3.org/2000/svg">
    <path d="M20.482 13.92a.36.36 0 0 0 .018-.11V1.19a.356.356 0 0 0-.019-.11l-.004-.015a.355.355 0 0 0-.064-.109L20.409.95l-.004-.003a.35.35 0 0 0-.102-.076l-.009-.005a.336.336 0 0 0-.118-.03h-.012l-.012-.002H.848L.837.834.826.836a.34.34 0 0 0-.12.03C.702.865.7.867.698.868a.345.345 0 0 0-.104.078L.59.949.587.956a.358.358 0 0 0-.064.11l-.004.014a.358.358 0 0 0-.019.11v12.62a.36.36 0 0 0 .019.112l.004.014c.015.04.038.077.065.11.002.001.002.004.004.006l.005.004a.35.35 0 0 0 .037.033.325.325 0 0 0 .066.042l.011.007a.341.341 0 0 0 .137.029h19.304c.048 0 .094-.01.136-.03.007-.002.013-.006.02-.01a.363.363 0 0 0 .041-.024l.02-.017a.316.316 0 0 0 .034-.03l.006-.006.004-.007a.36.36 0 0 0 .064-.108l.005-.016ZM1.196 1.997l5.858 5.478-5.858 5.522v-11Zm12.006 5.21c-.024.016-.05.03-.07.052-.008.008-.01.02-.017.029L10.5 9.734 1.745 1.546h17.51l-6.053 5.661Zm-5.632.75 2.695 2.521a.343.343 0 0 0 .47 0l2.662-2.49 5.856 5.465H1.74l5.83-5.496Zm6.343-.451 5.891-5.51v11.007l-5.89-5.497Z" fill="#fff"/>
</svg><svg fill="none" viewBox="0 0 28 28" id="facebook" xmlns="http://www.w3.org/2000/svg">
    <path d="M14 1.68C7.202 1.68 1.68 7.203 1.68 14c0 6.17 4.551 11.278 10.48 12.168l.642.098v-9.709h-2.91v-1.97h2.91v-2.618c0-1.612.387-2.673 1.027-3.34.64-.665 1.587-1.001 2.903-1.001 1.053 0 1.462.064 1.852.112v1.613h-1.37a2.01 2.01 0 0 0-1.747 1.012c-.332.577-.435 1.267-.435 1.97v2.25h3.43l-.306 1.971h-3.124v9.725l.636-.087C21.68 25.38 26.32 20.231 26.32 14c0-6.797-5.523-12.32-12.32-12.32Zm0 1.12c6.192 0 11.2 5.008 11.2 11.2 0 5.449-3.9 9.93-9.048 10.939v-7.263h2.964l.651-4.21h-3.615v-1.13c0-.582.107-1.102.286-1.415.18-.312.352-.448.775-.448h2.49V6.726l-.485-.066c-.336-.045-1.102-.152-2.486-.152-1.514 0-2.813.412-3.71 1.345-.897.933-1.34 2.322-1.34 4.116v1.497h-2.91v4.211h2.91v7.227C6.617 23.83 2.8 19.39 2.8 14 2.8 7.808 7.808 2.8 14 2.8Z" fill="#5BBA4B"/>
</svg><svg fill="none" viewBox="0 0 30 30" id="hamburger-menu" xmlns="http://www.w3.org/2000/svg">
    <path d="M3.75 6.25a1.25 1.25 0 1 0 0 2.5h22.5a1.25 1.25 0 1 0 0-2.5H3.75Zm0 7.5a1.25 1.25 0 1 0 0 2.5h22.5a1.248 1.248 0 0 0 1.171-1.732 1.25 1.25 0 0 0-1.171-.768H3.75Zm0 7.5a1.25 1.25 0 1 0 0 2.5h22.5a1.248 1.248 0 0 0 1.171-1.732 1.25 1.25 0 0 0-1.171-.768H3.75Z" fill="#5BBA4B"/>
</svg><svg fill="none" viewBox="0 0 24 25" id="heart" xmlns="http://www.w3.org/2000/svg">
    <path fill-rule="evenodd" clip-rule="evenodd" d="M12.692 7.584a1 1 0 0 1-1.384 0l-.693-.665A4.5 4.5 0 0 0 3 10.166c0 2.383 1.29 4.35 3.152 5.967 1.863 1.618 4.091 2.691 5.423 3.239.278.114.572.114.85 0 1.332-.548 3.56-1.62 5.423-3.239C19.71 14.517 21 12.55 21 10.167a4.5 4.5 0 0 0-7.615-3.248l-.693.665ZM12 5.476a6.5 6.5 0 0 0-11 4.69c0 6.369 6.97 9.886 9.814 11.055a3.096 3.096 0 0 0 2.372 0C16.03 20.051 23 16.535 23 10.167a6.5 6.5 0 0 0-11-4.69Z" fill="#141718"/>
</svg><svg fill="none" viewBox="0 0 28 28" id="instagram" xmlns="http://www.w3.org/2000/svg">
    <path d="M8.96 1.68c-4.014 0-7.28 3.266-7.28 7.28v10.08c0 4.014 3.266 7.28 7.28 7.28h10.08c4.014 0 7.28-3.266 7.28-7.28V8.96c0-4.014-3.266-7.28-7.28-7.28H8.96Zm0 1.12h10.08a6.152 6.152 0 0 1 6.16 6.16v10.08a6.152 6.152 0 0 1-6.16 6.16H8.96a6.152 6.152 0 0 1-6.16-6.16V8.96A6.152 6.152 0 0 1 8.96 2.8Zm11.76 3.36a1.12 1.12 0 1 0 0 2.24 1.12 1.12 0 0 0 0-2.24ZM14 7.84A6.168 6.168 0 0 0 7.84 14 6.169 6.169 0 0 0 14 20.16 6.169 6.169 0 0 0 20.16 14 6.168 6.168 0 0 0 14 7.84Zm0 1.12c2.79 0 5.04 2.25 5.04 5.04s-2.25 5.04-5.04 5.04S8.96 16.79 8.96 14 11.21 8.96 14 8.96Z" fill="#5BBA4B"/>
</svg><svg fill="none" viewBox="0 0 21 21" id="location" xmlns="http://www.w3.org/2000/svg">
    <g clip-path="url(#ana)">
        <path d="M10.5 2.167C7 2.167 3.833 4.85 3.833 9c0 2.65 2.042 5.767 6.117 9.358a.848.848 0 0 0 1.108 0c4.067-3.591 6.109-6.708 6.109-9.358 0-4.15-3.167-6.833-6.667-6.833Zm0 8.333c-.917 0-1.667-.75-1.667-1.667 0-.916.75-1.666 1.667-1.666s1.667.75 1.667 1.666c0 .917-.75 1.667-1.667 1.667Z" fill="#fff"/>
    </g>
    <defs>
        <clipPath id="ana">
            <path fill="#fff" transform="translate(.5 .5)" d="M0 0h20v20H0z"/>
        </clipPath>
    </defs>
</svg><svg fill="none" viewBox="0 0 184 56" id="logo" xmlns="http://www.w3.org/2000/svg">
    <path fill-rule="evenodd" clip-rule="evenodd" d="M1.326.009c-.593.229.1 1.795.235 2.177.26.739.556 1.44.815 2.178.494 1.426 1.05 2.992 1.396 4.533.79 3.629 1.112 6.914.321 10.684-.667 3.221-1.84 6.048-2.767 9.091-1.494 4.903-1.964 10.34-.148 15.345.445 1.222 1.297 2.852 2.063 3.858.21.267.432.56.642.828.21.267.457.534.68.79.234.28.47.483.729.725 1.383 1.312 2.495 2.19 4.212 3.17 2.421 1.376 5.756 2.65 9.067 2.611 3.323-.038 6.386-.853 9.14-2.572 2.41-1.503 4.386-3.336 5.67-6.112 1.31-2.84 1.879-6.635 1.533-10.15-.322-3.17-1.742-6.43-3.052-8.785a46.059 46.059 0 0 0-2.26-3.642c-1.408-2.076-3.545-4.75-5.25-6.584a202.072 202.072 0 0 0-3.582-3.756c-1.013-1.044-3.645-3.502-4.732-4.431l-.605-.535c-1.05-.917-2.1-1.758-3.211-2.674-.976-.815-2.298-1.796-3.323-2.547C8.12 3.638 2.524-.411 1.363.034L1.326.01ZM19.51 26.71c1.89-.152 4.064.395 5.62 1.045 6.337 2.636 10.043 10.416 7.115 17.814a12.845 12.845 0 0 1-1.16 2.229c-1.335 2.011-3.015 3.629-5.288 4.75-6.683 3.297-14.588.381-17.738-6.278-2.063-4.368-1.705-9.41.852-13.447 1.198-1.898 3.125-3.719 5.275-4.75 1.766-.853 3.125-1.184 5.299-1.35l.025-.013Z" fill="#5BBA4B"/>
    <path fill-rule="evenodd" clip-rule="evenodd" d="M21.622 32.76c2.26-.204 4.645.713 6.386 2.1.235.192.408.37.63.561.655.56 1.557 1.783 2.051 2.84.531 1.12.89 2.457.976 3.883.16 2.878-.902 5.26-2.557 7.22-.186.23-.42.434-.618.612-.704.598-1.235 1.044-2.137 1.502-3.063 1.529-6.658 1.35-9.512-.56-.679-.458-.778-.586-1.346-1.07-.321-.28-.865-.942-1.149-1.324-2.335-3.081-2.544-8.073-.346-11.295.482-.713.494-.738 1.05-1.362.667-.764 1.643-1.541 2.767-2.101 1.26-.637 2.248-.853 3.805-.993v-.013Z" fill="#5BBA4B"/>
    <path d="M57.508 28.507h-.186l-.11.153a4.627 4.627 0 0 1-1.73 1.451 4.907 4.907 0 0 1-2.137.471c-1.581 0-2.854-.547-3.916-1.668-1.062-1.133-1.581-2.457-1.581-4.062 0-1.604.506-2.814 1.569-3.947 1.05-1.12 2.334-1.668 3.915-1.668.915 0 1.742.203 2.459.624.58.33 1.111.814 1.593 1.438l.111.14h4.386l-.223-.534c-.753-1.783-1.877-3.171-3.335-4.164-1.458-.98-3.138-1.477-5.015-1.477-2.916 0-5.3 1.095-7.09 3.26-1.533 1.859-2.31 3.985-2.31 6.328 0 2.343.777 4.559 2.322 6.444 1.778 2.164 4.138 3.26 7.028 3.26 1.89 0 3.595-.51 5.065-1.529 1.383-.955 2.483-2.279 3.236-3.96l.248-.547h-4.3v-.013ZM80.608 33.6 73.418 15.8l-.099-.23h-3.063l-.099.23-7.19 17.801-.21.535h4.337l.099-.242 1.68-4.355h5.842l1.68 4.355.1.242h4.335l-.21-.535h-.012Zm-7.4-8.035h-2.84l1.42-3.756 1.42 3.756ZM99.766 33.6l-6.83-17.789-.1-.242h-3.298l-.099.242-6.843 17.79-.198.522h4.324l.099-.242 4.36-12.263 4.373 12.262.087.242h4.323l-.198-.522ZM124.558 18.078c-1.791-1.872-4.027-2.827-6.658-2.827-2.174 0-4.139.688-5.831 2.05-1.705 1.363-2.804 3.17-3.273 5.361h-2.199V15.57h-3.941v18.566h3.941v-7.41h2.087c.396 2.393 1.52 4.329 3.36 5.767 1.717 1.363 3.694 2.05 5.843 2.05 2.607 0 4.843-.942 6.646-2.788 1.804-1.86 2.718-4.151 2.718-6.813 0-2.661-.902-4.979-2.693-6.85v-.013ZM117.9 19.21c1.519 0 2.816.56 3.854 1.656 1.05 1.107 1.569 2.419 1.569 3.998 0 1.579-.532 2.929-1.569 4.05-1.038 1.107-2.335 1.668-3.879 1.668s-2.779-.548-3.829-1.669c-1.038-1.108-1.569-2.47-1.569-4.049 0-1.579.506-2.878 1.569-3.998 1.05-1.108 2.31-1.643 3.854-1.643v-.013ZM143.853 15.57h-15.231V19.53H134.453v14.593H138.393V19.53H144.224V15.569h-.371ZM159.307 15.57h-12.279v18.553h12.65V30.162h-8.709V26.84h8.449V22.879h-8.449v-3.35h8.709V15.57h-.371ZM182.876 15.57h-4.608l-.086.241-4.459 12.632-4.46-12.632-.086-.242H164.211V34.123h3.928V22.637l3.879 11.243.086.242h3.237l.086-.242 3.879-11.243v11.486h3.941V15.569h-.371ZM50.798 44.602h-.728v-4.1l-1.668 4.1h-.63l-1.68-4.1v4.1h-.729v-5.157h1.075l1.643 4.24 1.655-4.24h1.075v5.157h-.013ZM62.064 42.272h-4.349c.037.535.223.955.532 1.26.32.306.74.46 1.26.46.79 0 1.346-.294 1.643-.88h.852c-.544 1.083-1.371 1.618-2.483 1.618-.754 0-1.371-.255-1.865-.777-.495-.522-.73-1.172-.73-1.948 0-.777.248-1.414.742-1.923.494-.522 1.124-.777 1.865-.777.803 0 1.433.293 1.89.892.433.547.643 1.247.643 2.088v-.013Zm-4.361-.688h3.558c-.111-1.03-.704-1.54-1.792-1.54-.469 0-.852.14-1.173.42a1.94 1.94 0 0 0-.605 1.12h.012ZM72.465 45.685h-.704v-1.083h-3.372v1.083h-.704v-1.796h.444l1.57-4.456h.716l1.58 4.456h.445v1.796h.025Zm-1.223-1.796-1.149-3.374h-.037l-1.136 3.374h2.322ZM82.594 44.602h-.753v-4.036l-2.718 4.036h-.778v-5.157h.753v4.024l2.73-4.024h.778v5.157h-.012ZM92.402 44.602h-.729V42.4c-.383.14-.827.216-1.309.216-.457 0-.828-.127-1.112-.395-.296-.267-.444-.624-.444-1.082v-1.706h.728v1.553c0 .624.284.93.853.93.494 0 .914-.077 1.284-.242v-2.241h.73v5.169ZM102.792 44.602h-.753v-2.304h-2.533v2.304h-.753v-5.157h.753v2.178h2.533v-2.178h.753v5.157ZM113.414 44.602h-.753v-4.036l-2.73 4.036h-.779v-5.157h.754v4.024l2.73-4.024h.778v5.157ZM124.026 44.603h-.754v-4.037l-2.73 4.037h-.766v-5.158h.729v4.037l2.743-4.037h.778v5.158Zm-.778-6.953c-.038.395-.186.7-.42.917-.235.229-.544.33-.927.33s-.667-.114-.914-.343c-.247-.23-.383-.535-.42-.917h.642c0 .191.062.357.21.484a.682.682 0 0 0 .482.191.711.711 0 0 0 .494-.19.646.646 0 0 0 .21-.485h.643v.013ZM142.777 45.685h-.716v-1.083h-3.718v-5.157h.753v4.457h2.409v-4.457h.729v4.457h.543v1.796-.013ZM153.537 42.272h-4.348c.037.535.222.955.531 1.26.321.306.741.46 1.26.46.791 0 1.347-.294 1.643-.88h.852c-.543 1.083-1.371 1.618-2.482 1.618-.754 0-1.372-.255-1.866-.777-.482-.522-.729-1.172-.729-1.948 0-.777.248-1.414.742-1.923.494-.522 1.124-.777 1.865-.777.803 0 1.433.293 1.89.892.432.547.642 1.247.642 2.088v-.013Zm-4.36-.688h3.557c-.111-1.03-.704-1.54-1.791-1.54-.469 0-.852.14-1.173.42-.322.28-.519.65-.606 1.12h.013ZM163.692 44.602h-.754v-2.304h-2.532v2.304h-.754v-5.157h.754v2.178h2.532v-2.178h.754v5.157ZM169.608 39.433h3.336v.7h-1.285v4.457h-.754v-4.457h-1.284v-.7h-.013ZM183.998 42.017c0 .764-.247 1.414-.741 1.923-.494.522-1.111.777-1.865.777s-1.322-.293-1.828-.891v3.005h-.729V39.42h.729v.815c.519-.624 1.136-.93 1.853-.93.716 0 1.346.268 1.84.79s.729 1.159.729 1.922h.012Zm-.778 0c0-.547-.173-1.006-.531-1.388-.346-.381-.791-.572-1.322-.572-.494 0-.926.203-1.284.598a2.005 2.005 0 0 0-.532 1.388c0 .522.186.955.544 1.363.358.407.791.61 1.272.61.519 0 .964-.19 1.322-.585.358-.395.531-.853.531-1.4v-.014Z" fill="#5BBA4B"/>
</svg><svg fill="none" viewBox="0 0 184 56" id="logo-footer" xmlns="http://www.w3.org/2000/svg">
    <path d="M184 0H0v56h184V0Z" fill="#5BBA4B"/>
    <path fill-rule="evenodd" clip-rule="evenodd" d="M10.714 4.2c-.526.2.088 1.567.208 1.9.23.645.493 1.257.724 1.901.438 1.245.93 2.612 1.238 3.957.7 3.167.986 6.034.284 9.324-.591 2.811-1.632 5.279-2.454 7.934-1.325 4.28-1.742 9.024-.131 13.392.394 1.067 1.15 2.49 1.819 3.367.186.234.383.49.57.723.186.233.405.466.602.689.208.244.416.422.646.633 1.227 1.145 2.213 1.912 3.736 2.767 2.147 1.2 5.105 2.312 8.041 2.279 2.948-.034 5.665-.745 8.108-2.245 2.136-1.312 3.889-2.912 5.028-5.335 1.162-2.478 1.665-5.79 1.359-8.857-.285-2.767-1.545-5.612-2.706-7.668a40.066 40.066 0 0 0-2.005-3.178c-1.26-1.812-3.144-4.146-4.656-5.746-1.085-1.156-2.06-2.145-3.177-3.278-.899-.912-3.232-3.057-4.196-3.868l-.537-.467c-.931-.8-1.863-1.533-2.849-2.333-.865-.712-2.038-1.567-2.947-2.223-.69-.5-5.653-4.034-6.683-3.645l-.022-.023Zm16.127 23.305c1.676-.133 3.604.345 4.985.911 5.62 2.3 8.907 9.091 6.31 15.548a11.14 11.14 0 0 1-1.03 1.945c-1.183 1.756-2.673 3.167-4.689 4.145-5.927 2.878-12.938.333-15.732-5.479-1.83-3.812-1.512-8.213.756-11.736 1.063-1.655 2.772-3.245 4.678-4.145 1.567-.744 2.772-1.033 4.7-1.178l.022-.01Zm1.873 5.279c2.005-.178 4.12.622 5.665 1.834.208.166.361.322.558.489.58.489 1.38 1.556 1.819 2.478.471.978.789 2.145.854 3.39.143 2.511-.8 4.59-2.267 6.3-.165.2-.373.379-.548.534-.625.522-1.096.911-1.906 1.312-2.717 1.333-5.906 1.177-8.436-.49-.603-.4-.69-.51-1.194-.933-.285-.245-.767-.822-1.02-1.156-2.07-2.69-2.256-7.046-.306-9.857.427-.623.438-.645.931-1.19.592-.666 1.457-1.344 2.454-1.833 1.118-.556 1.994-.745 3.374-.867l.023-.011Z" fill="#fff"/>
    <path d="M60.54 27.96h-.163l-.099.134a4.09 4.09 0 0 1-1.534 1.267 4.411 4.411 0 0 1-1.895.411c-1.38 0-2.553-.489-3.484-1.456-.942-.989-1.402-2.145-1.402-3.545s.449-2.456 1.391-3.445c.92-.967 2.093-1.456 3.473-1.456.81 0 1.545.178 2.18.545.515.289.986.711 1.413 1.256l.099.122h3.89l-.198-.467c-.668-1.556-1.665-2.767-2.958-3.634-1.293-.856-2.783-1.29-4.448-1.29-2.586 0-4.7.957-6.288 2.846-1.359 1.622-2.05 3.478-2.05 5.523 0 2.045.691 3.979 2.06 5.623 1.578 1.89 3.67 2.846 6.234 2.846 1.676 0 3.188-.445 4.492-1.334 1.227-.834 2.202-1.99 2.87-3.456l.22-.478H60.53l.01-.011ZM81.017 32.406 74.641 16.87l-.088-.2h-2.717l-.087.2-6.377 15.536-.186.467h3.845l.088-.211 1.49-3.8h5.182l1.49 3.8.088.211h3.845l-.186-.467h-.011Zm-6.551-7.012h-2.52l1.26-3.278 1.26 3.278ZM98.02 32.406l-6.07-15.525-.076-.211h-2.936l-.077.211-6.069 15.525-.175.456h3.834l.088-.211 3.867-10.702 3.867 10.702.088.211h3.835l-.176-.456ZM120.008 18.86c-1.589-1.634-3.572-2.468-5.905-2.468-1.928 0-3.67.6-5.171 1.79-1.523 1.189-2.498 2.767-2.904 4.678h-1.95v-6.19h-3.495v16.203h3.495v-6.468h1.852c.35 2.09 1.347 3.779 2.98 5.034a8.255 8.255 0 0 0 5.182 1.79c2.311 0 4.294-.823 5.894-2.434 1.599-1.612 2.399-3.623 2.399-5.946 0-2.322-.8-4.345-2.388-5.979l.011-.01Zm-5.905.988c1.347 0 2.498.49 3.418 1.445.931.967 1.391 2.112 1.391 3.49 0 1.378-.449 2.545-1.391 3.534-.92.966-2.071 1.456-3.44 1.456-1.37 0-2.465-.478-3.396-1.456-.921-.967-1.392-2.156-1.392-3.534 0-1.378.449-2.512 1.392-3.49.931-.967 2.048-1.445 3.418-1.445ZM137.121 16.67h-13.508V20.126h5.171v12.736H132.279V20.126H137.45V16.67h-.329ZM150.827 16.67h-10.89v16.192H151.156V29.406H143.432v-2.9h7.494V23.048h-7.494v-2.923H151.156V16.67h-.329ZM171.729 16.67h-4.086l-.077.211-3.955 11.024-3.955-11.024-.077-.211h-4.404v16.192h3.484V22.838l3.44 9.813.077.211h2.87l.077-.211 3.44-9.813v10.024H172.058V16.67h-.329ZM54.592 42.008h-.646V38.43l-1.48 3.578h-.558l-1.49-3.578v3.578h-.646v-4.5h.953l1.457 3.7 1.468-3.7h.953v4.5h-.011ZM64.572 39.975h-3.856c.033.466.197.833.47 1.1.286.267.658.4 1.118.4.702 0 1.195-.256 1.457-.767h.756c-.482.945-1.216 1.412-2.202 1.412-.668 0-1.216-.223-1.654-.678-.438-.456-.646-1.023-.646-1.7 0-.679.219-1.234.657-1.679.438-.456.997-.678 1.654-.678.712 0 1.271.256 1.676.778.384.478.57 1.09.57 1.823v-.011Zm-3.856-.6h3.155c-.099-.9-.624-1.345-1.589-1.345-.416 0-.755.122-1.04.367-.274.244-.46.566-.537.977h.01ZM73.808 42.953h-.624v-.944h-2.991v.944h-.625v-1.567h.395l1.391-3.89h.636l1.402 3.89h.394v1.567h.022Zm-1.095-1.567-1.02-2.945h-.032l-1.008 2.945h2.06ZM82.781 42.008h-.668v-3.523l-2.41 3.523h-.69v-4.5h.668v3.511l2.421-3.511h.69v4.5h-.01ZM91.49 42.009h-.647v-1.923c-.34.123-.734.19-1.16.19-.395 0-.735-.112-.987-.345-.262-.234-.394-.545-.394-.945v-1.49h.646v1.357c0 .544.252.81.756.81.438 0 .81-.066 1.14-.21v-1.956h.646v4.512ZM100.703 42.008h-.668v-2.011h-2.246v2.011h-.668v-4.5h.668v1.9h2.246v-1.9h.668v4.5ZM110.125 42.008h-.668v-3.523l-2.421 3.523h-.69v-4.5h.668v3.511l2.421-3.511h.69v4.5ZM119.537 42.008h-.668v-3.523l-2.411 3.523h-.679v-4.5h.646v3.523l2.433-3.523h.69v4.5h-.011Zm-.69-6.068c-.033.345-.154.612-.373.8-.208.2-.482.29-.822.29-.339 0-.591-.1-.81-.3-.219-.2-.34-.467-.373-.8h.57c0 .166.066.31.186.422a.61.61 0 0 0 .427.166.637.637 0 0 0 .439-.166.562.562 0 0 0 .186-.423h.57v.011ZM136.167 42.953h-.635v-.945h-3.298v-4.5h.668v3.89h2.137v-3.89h.646v3.89h.482v1.566-.01ZM145.71 39.975h-3.856c.033.466.197.833.471 1.1.285.267.657.4 1.118.4.701 0 1.194-.256 1.457-.767h.756c-.482.945-1.216 1.412-2.202 1.412-.669 0-1.217-.223-1.655-.678-.427-.456-.646-1.023-.646-1.7 0-.679.219-1.234.657-1.679.438-.456.997-.678 1.654-.678.713 0 1.271.256 1.677.778.383.478.569 1.09.569 1.823v-.011Zm-3.867-.6h3.155c-.098-.9-.624-1.345-1.588-1.345-.417 0-.756.122-1.03.367-.285.244-.46.566-.537.977ZM154.703 42.008h-.669v-2.011h-2.245v2.011h-.668v-4.5h.668v1.9h2.245v-1.9h.669v4.5ZM159.953 37.497h2.957v.611h-1.139v3.89h-.668v-3.89h-1.139v-.611h-.011ZM172.726 39.752c0 .667-.219 1.234-.657 1.678-.439.456-.986.678-1.655.678-.668 0-1.172-.255-1.621-.777v2.622h-.647v-6.468h.647v.712c.46-.545 1.008-.812 1.643-.812.636 0 1.194.234 1.633.69.438.455.646 1.01.646 1.677h.011Zm-.69 0c0-.477-.154-.878-.471-1.211-.307-.333-.701-.5-1.173-.5-.449 0-.821.178-1.139.522a1.736 1.736 0 0 0-.471 1.212c0 .455.164.833.482 1.189.318.355.701.533 1.128.533.461 0 .855-.166 1.173-.511.317-.345.471-.745.471-1.222v-.012Z" fill="#fff"/>
</svg><svg fill="none" viewBox="0 0 24 24" id="mind" xmlns="http://www.w3.org/2000/svg">
    <path d="M11.208 1.195a9.379 9.379 0 0 0-7.72 6.328C3.201 8.391 3 9.487 3 10.205c0 .159-.112.567-.375 1.35-.206.618-.375 1.162-.375 1.209 0 .047.056.145.127.21.103.104.262.16.792.287l.656.16.342 1.035c.192.572.39 1.083.44 1.14.057.06.287.168.559.257l.459.15v.999l.366.346a8.99 8.99 0 0 0 2.648 1.73l.361.16V22.626l.108.098c.136.127.36.131.506.014l.113-.09.014-1.574c.004-.867.018-1.575.032-1.575.01 0 .193.042.413.094.698.164 1.331.234 2.189.23.952 0 1.233-.038 1.369-.174.145-.145.131-.37-.033-.511-.122-.108-.15-.113-.544-.08l-.412.033-.014-1.772c-.014-1.753-.014-1.767-.118-1.847-.107-.093-1.56-.473-1.79-.473-.108 0-.178.047-.314.206a1.608 1.608 0 0 1-.403.333c-.202.113-.277.127-.549.108-.38-.019-.633-.164-.834-.469-.103-.155-.131-.258-.146-.525-.014-.31-.004-.351.141-.59a.852.852 0 0 1 .408-.385c.464-.244.942-.15 1.298.258.108.122.244.239.31.262.16.061 1.753-.332 1.889-.468.089-.09.094-.164.108-1.472l.014-1.383h2.32l.113.464.107.464-.164.202c-.239.309-.304.421-.393.721-.16.554-.015 1.215.375 1.683.356.432 1.064.699 1.603.605.632-.108 1.134-.473 1.406-1.022.122-.258.136-.323.136-.773 0-.44-.014-.52-.127-.75a2.514 2.514 0 0 0-.3-.46l-.168-.201.112-.455.113-.455 1.532-.014 1.533-.01v.17a8.655 8.655 0 0 1-5.414 7.448c-.23.09-.45.202-.478.244-.047.06-.061.534-.061 1.992 0 1.852.005 1.917.094 2.006.098.099.323.122.469.047.168-.089.187-.295.187-1.95v-1.608l.248-.107c2.279-.961 4.144-2.874 5.068-5.194a9.066 9.066 0 0 0 .637-3.413c0-1.143-.126-1.954-.469-2.98A9.374 9.374 0 0 0 14.92 1.48c-1.092-.314-2.587-.426-3.712-.286ZM12 3.628c0 1.598.01 1.763.084 1.852.061.08.277.154.92.314.463.117.89.201.946.187.056-.014.178-.122.277-.239.243-.3.487-.417.867-.422.52 0 .904.305 1.036.83.154.623-.375 1.27-1.036 1.27-.399 0-.567-.093-.952-.52-.08-.09-.178-.15-.248-.15-.244 0-1.683.389-1.786.483-.103.094-.108.112-.117 1.481l-.014 1.387-1.158.015-1.158.009-.047-.174c-.028-.098-.08-.318-.127-.492l-.075-.318.165-.17c.623-.641.614-1.79-.014-2.446-.408-.422-.84-.595-1.426-.563-.435.024-.726.136-1.045.394-.787.647-.876 1.856-.192 2.625l.164.183-.122.469-.122.469-1.533.014c-1.5.009-1.537.009-1.537-.08 0-.263.16-1.233.277-1.706.815-3.23 3.52-5.733 6.825-6.314a7.892 7.892 0 0 1 1.021-.132l.127-.01v1.754Zm1.64-1.655c1.444.197 2.987.882 4.196 1.87 1.744 1.426 2.93 3.676 3.098 5.883l.033.399H17.452l-.099.103c-.103.117-.478 1.5-.478 1.777 0 .117.052.192.253.38.29.267.403.496.403.838 0 .6-.45 1.046-1.054 1.046-.6 0-1.055-.45-1.055-1.05 0-.333.103-.549.403-.83.323-.295.323-.31.094-1.233-.202-.801-.249-.928-.361-.984-.047-.028-.661-.047-1.444-.047H12.75V7.786l.178-.047c.094-.023.305-.08.469-.122l.3-.075.178.164c.867.783 2.26.544 2.803-.478.624-1.167-.136-2.545-1.462-2.667a1.843 1.843 0 0 0-1.378.497l-.136.136-.474-.117-.478-.118V1.87l.272.028c.145.014.426.052.619.075Zm-5 4.791c.397.169.655.563.65.998-.004.338-.145.624-.435.868-.178.15-.23.22-.23.328 0 .131.267 1.27.38 1.626.089.277.164.29 1.66.29H12l-.01 1.159-.013 1.158-.474.117-.469.112-.267-.215a1.805 1.805 0 0 0-2.765.618c-.141.286-.15.343-.15.778 0 .418.014.502.13.75.174.37.535.732.896.9.253.118.338.132.755.132.408 0 .501-.014.731-.122.145-.07.352-.206.46-.3l.192-.174.318.075c.174.047.394.099.493.127l.173.047v3.056l-.408-.033c-1.687-.126-3.445-.858-4.805-1.997l-.412-.342v-.548c0-.46-.014-.567-.084-.656-.052-.066-.277-.17-.596-.277l-.515-.178-.361-1.074c-.23-.665-.399-1.101-.455-1.148-.051-.042-.276-.122-.506-.178-.225-.056-.488-.122-.586-.15l-.169-.042.263-.797.267-.797h1.79c1.791 0 1.791 0 1.913-.108.103-.084.155-.239.333-.937.122-.493.197-.882.178-.938-.019-.051-.155-.215-.3-.356-.277-.267-.375-.469-.375-.778 0-.39.267-.802.633-.966.22-.103.623-.112.834-.028Z" fill="#2D3F48"/>
</svg><svg fill="none" viewBox="0 0 24 24" id="network" xmlns="http://www.w3.org/2000/svg">
    <g clip-path="url(#ara)">
        <path d="M5.634.094a6.749 6.749 0 0 0-2.46.834c-.662.39-.812.6-.6.858.145.178.346.14.815-.16A5.579 5.579 0 0 1 5.864.787c2.044-.196 4.069.76 5.24 2.49.24.346.615 1.11.615 1.242 0 .056.042.187.094.3.243.539.328 1.832.168 2.643a5.826 5.826 0 0 1-1.35 2.766c-.286.328-.36.352-.365.108 0-.052-.061-.225-.136-.385-.263-.553-.778-.909-1.693-1.167-.243-.065-.487-.164-.534-.21-.089-.085-.089-.09.047-.188.248-.192.698-.67.881-.947.356-.548.497-1.055.497-1.838 0-1.275-.272-2.076-.937-2.746-.563-.572-1.214-.84-2.025-.84-1.416 0-2.564 1.022-2.827 2.508-.08.464-.094 1.524-.023 1.903.023.141.145.455.267.699.187.384.281.51.68.91.44.44.51.562.356.609-1.097.323-1.435.468-1.782.773-.239.216-.478.638-.53.947l-.032.192-.164-.16c-.225-.21-.68-.82-.881-1.18a6.123 6.123 0 0 1-.572-1.482C.75 7.308.73 7.14.73 6.492c-.004-1.303.281-2.24 1.008-3.31.319-.463.352-.632.155-.787a.439.439 0 0 0-.211-.098C1.402 2.297.73 3.319.38 4.294.117 5.02.028 5.554.028 6.445c0 .849.052 1.224.286 1.969.375 1.181 1.219 2.358 2.264 3.145a7.217 7.217 0 0 0 1.734.928l.352.118.014 2.301c.01 2.161.005 2.302-.07 2.33-.549.183-.924.501-1.144.965-.352.76-.131 1.641.544 2.152.328.248.623.342 1.078.342.323 0 .417-.023.689-.15.487-.23.802-.595.989-1.148.028-.08.183-.085 2.367-.085h2.335l.084.268c.469 1.49 1.744 2.953 3.21 3.693a6.482 6.482 0 0 0 4.417.47c2.32-.582 4.11-2.429 4.673-4.82.108-.464.122-.623.122-1.368 0-.75-.014-.905-.122-1.37-.474-2-1.758-3.585-3.61-4.443l-.506-.234V6.35l.23-.084c.342-.122.661-.36.863-.647.243-.342.328-.67.304-1.125-.065-1.097-1.078-1.837-2.175-1.594-.53.122-1.055.6-1.223 1.116l-.08.249h-5.255l-.182-.422C11.555 2.292 10.026.909 8.39.38 7.598.117 6.412-.005 5.634.094Zm1.407 2.723c.562.188.993.558 1.256 1.078.136.267.305.83.262.872-.014.014-.136-.084-.276-.216-.267-.253-.511-.38-.722-.38-.07 0-.328.052-.567.118-.544.145-.67.145-1.224 0a3.734 3.734 0 0 0-.567-.117c-.164 0-.464.164-.75.412-.267.235-.286.207-.16-.23.23-.763.755-1.317 1.473-1.546a2.311 2.311 0 0 1 1.275.01Zm12.754.806c.685.291.863 1.21.333 1.74-.417.417-1.055.412-1.477-.015a1.02 1.02 0 0 1-.154-1.303c.253-.408.862-.604 1.298-.422Zm-14.1 1.37c.525.144.82.144 1.383 0 .244-.067.46-.118.478-.118.019 0 .164.117.324.258.168.15.384.29.515.337l.23.085v.215c0 .896-.581 1.805-1.453 2.269-.338.178-.37.187-.774.187-.389 0-.45-.014-.75-.164-.478-.239-1.03-.796-1.265-1.289-.155-.318-.183-.422-.202-.792l-.019-.426.263-.113c.15-.06.38-.21.51-.337.137-.122.268-.225.292-.225.028-.005.234.046.468.112Zm11.977.032c0 .145.286.642.473.83.188.187.685.473.83.473.042 0 .056.53.056 2.49v2.493l-.173-.033c-.67-.108-1.266-.136-1.805-.084-.947.093-1.617.295-2.428.717-.59.31-.872.52-.9.67-.033.16.052.314.21.403.146.08.076.108.75-.304 1.707-1.036 3.962-1.074 5.682-.09 1.477.84 2.466 2.194 2.822 3.863.117.549.117 1.655 0 2.203a5.844 5.844 0 0 1-1.373 2.714l-.272.296-.075-.277c-.15-.548-.455-.919-.985-1.186-.206-.103-.651-.258-1.303-.45-.155-.047-.084-.169.352-.61.515-.515.797-.984.928-1.523.094-.398.094-1.453 0-1.987-.263-1.486-1.406-2.508-2.822-2.508-.516 0-.806.066-1.28.29-.698.333-1.242.98-1.495 1.772-.178.572-.244 1.608-.145 2.246.117.698.6 1.481 1.228 1.973.192.155.21.188.16.258-.034.047-.296.155-.596.244-.638.192-1.008.384-1.294.656-.206.202-.483.703-.483.881-.004.244-.08.22-.365-.108-1.294-1.504-1.735-3.365-1.247-5.25.145-.567.487-1.284.867-1.837.267-.39.286-.431.248-.572-.051-.178-.248-.295-.417-.253-.22.056-.82.97-1.12 1.716a6.65 6.65 0 0 0-.45 1.851c-.052.516-.047.774.028 1.392l.028.225h-4.5l-.08-.234c-.159-.474-.628-.942-1.101-1.102l-.234-.08.009-2.207.014-2.208.258.019c.14.014.534.019.867.014 1.645-.019 3.164-.67 4.36-1.866a6.342 6.342 0 0 0 1.785-3.408c.122-.693.099-1.842-.051-2.442L12.6 4.97h2.536c1.997 0 2.536.014 2.536.056ZM5.832 8.883c.295.089.838.089 1.129 0l.23-.066.15.174c.08.093.14.187.13.206-.009.019-.257.169-.552.342l-.53.31-.534-.315c-.296-.173-.544-.318-.553-.328-.01-.01.037-.08.107-.16a.637.637 0 0 0 .122-.191c0-.057.028-.052.3.028Zm-.563 1.12c.454.267.904.502.993.52a.827.827 0 0 0 .338-.028c.15-.047 1.355-.726 1.627-.914.135-.098.253-.08.609.09.562.271.773.59.773 1.185v.281l-.36.216c-.727.422-1.458.656-2.344.75a5.648 5.648 0 0 1-3.37-.75l-.371-.22.01-.347c.013-.408.13-.69.38-.895.163-.136.665-.37.805-.375.043 0 .45.22.91.487Zm12.923 3.9c.727.216 1.285.788 1.514 1.561.127.436.108.464-.16.23-.3-.258-.59-.413-.773-.413-.075 0-.328.052-.562.117-.52.146-.638.146-1.195 0a3.665 3.665 0 0 0-.577-.117c-.21 0-.455.127-.722.38-.14.131-.262.23-.276.216-.047-.047.117-.586.257-.863.47-.923 1.529-1.397 2.494-1.11Zm-1.27 2.199c.572.145.834.145 1.406-.005l.464-.127.267.24c.15.13.38.285.52.346l.25.103v.314c0 .844-.624 1.772-1.487 2.204-.286.145-.356.159-.722.159-.37 0-.426-.014-.764-.178-.876-.436-1.481-1.369-1.481-2.278v-.216l.234-.084c.146-.052.338-.178.502-.338.15-.14.295-.253.319-.253.028-.005.248.047.492.113ZM5.508 17.986c.375.187.595.544.595.951 0 1.055-1.369 1.463-1.931.577-.31-.483-.202-1.069.253-1.425.281-.22.755-.267 1.083-.103Zm11.526 2.006c.3.094.84.09 1.154-.005.182-.056.257-.06.271-.023.01.033.07.117.136.197.066.075.113.145.103.155-.009.009-.257.154-.553.328l-.53.31-.384-.217c-.206-.121-.46-.271-.558-.332l-.178-.113.155-.183c.084-.103.155-.187.155-.187s.103.033.23.07Zm-.59 1.092c.872.516 1.054.59 1.293.544.094-.014.54-.248.994-.516.455-.267.858-.487.89-.487.132 0 .662.244.826.375.244.201.37.502.38.905l.009.337-.37.22c-1.763 1.06-4.093 1.022-5.874-.093-.201-.127-.201-.127-.201-.408 0-.44.07-.628.347-.89.23-.221.637-.437.838-.441.043-.005.436.201.868.454Z" fill="#2D3F48"/>
    </g>
    <defs>
        <clipPath id="ara">
            <path fill="#fff" d="M0 0h24v24H0z"/>
        </clipPath>
    </defs>
</svg><svg fill="none" viewBox="0 0 20 20" id="open" xmlns="http://www.w3.org/2000/svg">
    <path d="M10 1v18M19 10H1" stroke="#8D8D8D" stroke-width="2" stroke-linecap="round"/>
</svg><svg fill="none" viewBox="0 0 16 16" id="phone" xmlns="http://www.w3.org/2000/svg">
    <g clip-path="url(#ata)">
        <path d="M4.914.8H2.11A1.31 1.31 0 0 0 .8 2.109c0 7.23 5.861 13.09 13.09 13.09a1.31 1.31 0 0 0 1.31-1.308v-2.806l-3.086-2.057-1.6 1.6c-.278.278-.693.365-1.042.184a11.018 11.018 0 0 1-2.5-1.784 8.666 8.666 0 0 1-1.824-2.524c-.16-.338-.067-.728.197-.992l1.626-1.626L4.914.8Z" stroke="#5BBA4B" stroke-width="1.35" stroke-linecap="round" stroke-linejoin="round"/>
    </g>
    <defs>
        <clipPath id="ata">
            <path fill="#fff" d="M0 0h16v16H0z"/>
        </clipPath>
    </defs>
</svg><svg fill="none" viewBox="0 0 28 28" id="phone2" xmlns="http://www.w3.org/2000/svg">
    <path d="M8.429 1H3.364A2.364 2.364 0 0 0 1 3.364C1 16.418 11.582 27 24.636 27A2.364 2.364 0 0 0 27 24.636v-5.065l-5.571-3.714-2.89 2.889c-.501.502-1.251.658-1.881.332a19.888 19.888 0 0 1-4.515-3.22A15.645 15.645 0 0 1 8.85 11.3c-.289-.61-.122-1.315.355-1.792l2.937-2.937L8.429 1Z" stroke="#5BBA4B" stroke-width="1.6" stroke-linecap="round" stroke-linejoin="round"/>
</svg><svg fill="none" viewBox="0 0 78 78" id="play-btn" xmlns="http://www.w3.org/2000/svg">
    <g filter="url(#ava)">
        <circle cx="39" cy="39" r="35" fill="#BCDEC1" fill-opacity=".6"/>
        <circle cx="39" cy="39" r="37" stroke="#fff" stroke-width="4"/>
    </g>
    <path fill-rule="evenodd" clip-rule="evenodd" d="M29 30.644c0-1.881 2.017-3.074 3.666-2.167l15.227 8.375c1.708.94 1.708 3.395 0 4.335l-15.225 8.376c-1.65.906-3.667-.287-3.667-2.168l-.002-16.75Z" fill="#fff"/>
    <defs>
        <filter id="ava" x="-10" y="-10" width="98" height="98" filterUnits="userSpaceOnUse" color-interpolation-filters="sRGB">
            <feFlood flood-opacity="0" result="BackgroundImageFix"/>
            <feGaussianBlur in="BackgroundImageFix" stdDeviation="5"/>
            <feComposite in2="SourceAlpha" operator="in" result="effect1_backgroundBlur_436_1094"/>
            <feBlend in="SourceGraphic" in2="effect1_backgroundBlur_436_1094" result="shape"/>
        </filter>
    </defs>
</svg><svg fill="none" viewBox="0 0 24 25" id="puzzle" xmlns="http://www.w3.org/2000/svg">
    <path d="M5.883 2.38a6.687 6.687 0 0 0-3.89 1.94A6.71 6.71 0 0 0 .107 7.845c-.127.624-.113 1.941.023 2.579.192.886.52 1.664 1.031 2.451.22.338.933 1.069 4.716 4.856 4.35 4.35 4.467 4.463 4.814 4.632a2.939 2.939 0 0 0 2.611 0c.31-.15.46-.268 1.031-.83.586-.581.666-.675.666-.811a.294.294 0 0 0-.122-.248c-.234-.183-.314-.146-.98.51-.628.62-.956.835-1.368.92l-.155.027v-3.159l.108.028c.23.07.834.084 1.12.033 1.036-.202 1.861-1.078 2.016-2.142.046-.324.042-.44-.024-.774-.187-.947-.787-1.636-1.701-1.945-.329-.108-.422-.122-.863-.103-.272.014-.53.037-.572.056-.08.038-.084-.019-.084-.74v-.779h1.912c2.04-.004 2.02 0 2.11-.239.033-.084.01-.197-.099-.464-.351-.886-.117-1.744.624-2.264.347-.239.675-.328 1.125-.305 1.293.075 2.076 1.402 1.523 2.602-.145.323-.145.412 0 .553l.113.117h2.629l-.173.244c-.094.136-1.631 1.716-3.422 3.506-2.953 2.963-3.248 3.277-3.248 3.413 0 .197.14.337.342.337.14 0 .426-.276 3.46-3.318 2.737-2.743 3.35-3.385 3.566-3.713.507-.773.84-1.56 1.032-2.451.145-.68.145-2.002 0-2.668-.305-1.387-.886-2.465-1.861-3.436-.703-.707-1.585-1.28-2.419-1.57-.234-.084-.408-.028-.483.15-.089.202-.019.39.174.469.459.192 1.18.576 1.485.792.193.136.535.427.755.647a6.054 6.054 0 0 1 1.346 6.506l-.155.39h-1.186c-1.088 0-1.19-.006-1.163-.076.075-.192.113-.694.075-.994a2.5 2.5 0 0 0-2.507-2.212c-1.435 0-2.616 1.275-2.49 2.686.015.187.043.394.057.464l.028.131h-3.14l-.02-.904c-.014-.97-.028-1.027-.262-1.116-.084-.033-.188-.01-.445.108-.305.136-.385.15-.783.154-.413 0-.473-.014-.76-.154-.75-.37-1.176-1.19-1.021-1.964.243-1.186 1.528-1.833 2.587-1.299.352.178.549.136.642-.126.028-.085.052-.399.052-.699v-.548l.192-.09c.108-.046.323-.2.483-.346 1.298-1.177 2.625-1.688 4.373-1.688.47 0 .54-.009.624-.093.117-.118.122-.347.005-.464-.136-.136-.366-.165-1.055-.132-1.552.066-2.944.6-4.074 1.566-.67.572-.68.576-.918.576-.254 0-.324-.042-.764-.445-.816-.75-1.96-1.326-3.122-1.57-.53-.113-1.72-.16-2.236-.09Zm2.062.769c1.102.23 2.03.703 2.888 1.467.206.187.482.393.61.454l.229.118v.253c0 .136-.014.258-.028.272-.014.018-.094.009-.174-.014-.084-.029-.351-.047-.595-.052-.675 0-1.177.192-1.697.656-1.402 1.261-.905 3.614.9 4.233.328.113 1.013.15 1.397.075l.197-.042v1.134h-1.463c-1.57.005-1.58.005-1.673.24-.033.093-.014.187.098.435.703 1.594-.858 3.146-2.437 2.419-.3-.136-.352-.145-.474-.094a.33.33 0 0 0-.182.455c.075.16.534.398.914.478.871.174 1.696-.075 2.31-.694.544-.548.783-1.181.732-1.926a3.678 3.678 0 0 0-.056-.507l-.029-.103h2.26v1.125c0 1.079.005 1.13.098 1.224.122.122.272.103.694-.075.267-.113.342-.122.726-.108.338.01.479.042.685.136.548.262.923.75 1.036 1.364.14.773-.286 1.58-1.036 1.931-.272.131-.352.145-.75.145-.39 0-.483-.018-.722-.13-.314-.146-.52-.16-.647-.048-.08.07-.084.197-.084 2.02v1.946l-.164-.028a2.48 2.48 0 0 1-.455-.155c-.277-.122-.567-.398-4.552-4.373-2.339-2.335-4.382-4.411-4.537-4.613l-.281-.36h1.453c.801 0 1.458.004 1.458.013 0 .005-.024.085-.047.174-.07.234-.061.975.01 1.195.107.324.454.403.627.14.061-.093.066-.168.033-.43-.051-.413 0-.802.15-1.126.145-.323.145-.412 0-.553l-.112-.117H1.289l-.155-.389a6.01 6.01 0 0 1-.417-2.517 6.044 6.044 0 0 1 3.338-5.123c.487-.244 1.167-.47 1.64-.544.183-.028.38-.061.446-.07.262-.047 1.448.014 1.804.089Z" fill="#2D3F48"/>
</svg><svg fill="none" viewBox="0 0 24 24" id="search" xmlns="http://www.w3.org/2000/svg">
    <path d="M18.5 18.5 22 22m-1-10.5a9.5 9.5 0 1 0-19 0 9.5 9.5 0 0 0 19 0Z" stroke="#141718" stroke-width="1.5" stroke-linecap="round" stroke-linejoin="round"/>
</svg><svg fill="none" viewBox="0 0 24 24" id="search-line" xmlns="http://www.w3.org/2000/svg">
    <path d="m18.031 16.617 4.283 4.282-1.415 1.415-4.282-4.283A8.96 8.96 0 0 1 11 20c-4.968 0-9-4.032-9-9s4.032-9 9-9 9 4.032 9 9a8.96 8.96 0 0 1-1.969 5.617Zm-2.006-.742A6.977 6.977 0 0 0 18 11c0-3.867-3.133-7-7-7s-7 3.133-7 7 3.133 7 7 7a6.977 6.977 0 0 0 4.875-1.975l.15-.15Z" fill="#000"/>
</svg><svg fill="none" viewBox="0 0 21 21" id="star-full" xmlns="http://www.w3.org/2000/svg">
    <mask id="aza" style="mask-type:luminance" maskUnits="userSpaceOnUse" x="0" y="0" width="21" height="21">
        <path d="M20.282.56H0v20.282h20.282V.561Z" fill="#fff"/>
    </mask>
    <g mask="url(#aza)">
        <path d="M4.577 20.136c-.49.25-1.045-.189-.946-.75l1.052-5.996L.218 9.136C-.2 8.738.018 8.01.576 7.93l6.209-.882 2.769-5.485a.65.65 0 0 1 1.175 0l2.768 5.485 6.209.882c.559.079.776.807.358 1.205L15.6 13.39l1.052 5.995c.099.562-.456 1.002-.946.75l-5.566-2.859-5.563 2.86Z" fill="#FFE595"/>
    </g>
</svg><svg fill="none" viewBox="0 0 28 28" id="telegram" xmlns="http://www.w3.org/2000/svg">
    <path d="M24.851 3.352a2.4 2.4 0 0 0-.778.184c-.237.095-1.6.678-3.616 1.539-2.014.861-4.633 1.983-7.23 3.095L2.934 12.584l.038-.015s-.308.103-.62.32c-.157.11-.325.25-.462.455a1.202 1.202 0 0 0-.2.801c.133 1.078 1.25 1.384 1.25 1.384l.004.002 4.986 1.706c.127.424 1.512 5.047 1.816 6.026.169.541.326.853.49 1.066.083.107.169.19.264.25a.723.723 0 0 0 .117.058h.002l.014.004-.013-.003c.01.003.018.01.027.013.018.006.03.006.052.01.57.2 1.043-.17 1.043-.17l.02-.015 3.063-2.84 4.97 3.875.062.028c.87.386 1.657.17 2.092-.184.436-.354.607-.811.607-.811l.019-.049 3.652-19.034c.093-.426.107-.794.018-1.127a1.309 1.309 0 0 0-.57-.782 1.45 1.45 0 0 0-.823-.2Zm.03 1.139a.513.513 0 0 1 .218.023c.026.015.038.013.063.107.024.094.038.291-.03.6l-.002.007-3.631 18.924c-.009.02-.084.194-.257.335-.177.143-.373.255-.893.037l-5.435-4.238-.153-.12-.003.003-1.625-1.22 9.134-10.746a.56.56 0 0 0-.738-.829L8.312 16.185l-4.992-1.71s-.496-.275-.52-.467c-.001-.011-.007-.001.019-.04a.734.734 0 0 1 .171-.16c.163-.113.348-.181.348-.181l.019-.007.018-.007s5.103-2.19 10.295-4.414c2.596-1.112 5.214-2.233 7.228-3.094 2.014-.86 3.469-1.48 3.592-1.53.14-.056.28-.079.39-.084Zm-6.058 6.033-6.926 8.15-.004.003a.571.571 0 0 0-.06.087.558.558 0 0 0-.074.216v.004l-.902 4.058c-.015-.044-.026-.06-.042-.112-.287-.922-1.593-5.281-1.774-5.884l9.782-6.522Zm-6.144 9.485 1.244.934-1.828 1.695.584-2.629Z" fill="#5BBA4B"/>
</svg><svg fill="none" viewBox="0 0 24 24" id="user" xmlns="http://www.w3.org/2000/svg">
    <path d="M18.559 19.549a7.003 7.003 0 0 0-13.118 0m13.118 0A9.976 9.976 0 0 0 22 12c0-5.523-4.477-10-10-10S2 6.477 2 12a9.977 9.977 0 0 0 3.441 7.549m13.118 0A9.961 9.961 0 0 1 12 22a9.961 9.961 0 0 1-6.559-2.451M15 9a3 3 0 1 1-6 0 3 3 0 0 1 6 0Z" stroke="#141718" stroke-width="1.5" stroke-linejoin="round"/>
</svg></svg>