<svg width="24" height="24" viewBox="0 0 24 24" fill="none" xmlns="http://www.w3.org/2000/svg">
<g clip-path="url(#clip0_2032_1017)">
<path d="M3.15475 0.37977C2.70944 0.43602 2.25006 0.801645 2.086 1.22821C2.01569 1.42508 1.99225 1.44383 1.81413 1.47196C1.03131 1.59852 0.22975 2.41883 0.0516252 3.27196C-0.0139998 3.5954 -0.0186873 7.70633 0.0469377 8.41415C0.164125 9.63758 0.496938 10.8048 1.03131 11.8829C1.42975 12.6751 1.84694 13.2704 2.43756 13.8891C3.42194 14.9204 4.5985 15.5673 5.85944 15.7735C6.10319 15.811 6.31881 15.8438 6.34225 15.8438C6.361 15.8438 6.37506 17.072 6.37506 18.5766C6.37506 21.5766 6.37506 21.5673 6.66569 22.1579C7.20944 23.2641 8.58288 23.8782 9.79694 23.5595C10.6782 23.3251 11.4282 22.6032 11.7282 21.7032C11.8266 21.4126 11.8313 21.2954 11.8547 19.0548C11.8876 16.4626 11.8735 16.561 12.1969 16.2891C12.6329 15.9188 13.2282 15.9516 13.6313 16.3641C13.8516 16.5891 13.9219 16.8798 13.9219 17.5548C13.9219 18.197 13.9876 18.5063 14.2079 18.947C14.6391 19.8048 15.7219 20.3345 16.6829 20.161C17.0579 20.0954 17.5501 19.8657 17.8313 19.636C18.0798 19.4251 18.3938 18.9891 18.5251 18.6657L18.6329 18.3985L18.6563 14.7423C18.6891 10.7345 18.6704 10.9266 18.9797 10.5141C19.2282 10.186 19.6407 9.98446 20.0579 9.98446C20.2313 9.98446 20.4704 10.0173 20.5922 10.0595C20.8876 10.1579 21.2016 10.4485 21.361 10.772L21.4922 11.0391V15.2251V19.411L21.211 19.5095C19.6782 20.0251 19.2422 21.9563 20.4094 23.0532C20.7657 23.386 21.1032 23.5548 21.5485 23.6298C23.0204 23.8735 24.3047 22.4673 23.9297 21.0329C23.7329 20.2829 23.2454 19.7532 22.5188 19.5048L22.2422 19.411L22.2188 15.1079C22.1954 10.997 22.1907 10.7954 22.1063 10.5938C21.8766 10.0595 21.5297 9.6704 21.0797 9.44071C19.9313 8.85477 18.5766 9.3704 18.0844 10.5845L17.9766 10.8516L17.9532 14.5548C17.9344 17.5876 17.9157 18.286 17.8641 18.422C17.4844 19.3688 16.4157 19.7954 15.5485 19.3548C15.1782 19.1626 14.836 18.7641 14.7094 18.3657C14.686 18.2813 14.6485 17.8407 14.6297 17.3907C14.5969 16.5938 14.5922 16.561 14.4516 16.2891C13.6922 14.8079 11.5313 15.0751 11.1563 16.697C11.1329 16.8141 11.1094 17.8079 11.1094 19.0641C11.1094 21.0235 11.1001 21.2532 11.0251 21.5016C10.5751 22.9313 8.80787 23.3954 7.72038 22.3641C7.57975 22.2329 7.411 22.022 7.34538 21.9001C7.08288 21.4173 7.07819 21.3516 7.07819 18.4876V15.8532L7.20944 15.8251C7.27975 15.811 7.45319 15.7876 7.59381 15.7688C7.9735 15.722 8.56413 15.5438 9.01881 15.3329C10.9641 14.4329 12.4735 12.4688 13.1016 10.0126C13.3969 8.85477 13.4251 8.51727 13.4251 5.81258C13.4297 3.44071 13.4297 3.39383 13.3266 3.06571C13.2001 2.67665 12.9188 2.23133 12.6423 1.98758C12.4079 1.78602 11.8594 1.50946 11.6157 1.47196C11.4563 1.44383 11.4282 1.41571 11.3298 1.20008C11.1657 0.853209 11.0016 0.679771 10.6688 0.515709C10.4204 0.393833 10.3173 0.370396 10.0407 0.370396C9.59069 0.370396 9.30006 0.496958 9.00475 0.825083C8.70944 1.14852 8.60631 1.44383 8.63444 1.8704C8.71412 2.98602 9.99381 3.56727 10.8844 2.89227C11.0485 2.76571 11.3438 2.37196 11.4001 2.19383C11.4094 2.17039 11.536 2.19383 11.6813 2.25008C12.0329 2.38133 12.3797 2.70946 12.5485 3.0704L12.6797 3.35165L12.6938 5.53133C12.7126 7.80946 12.6751 8.51258 12.5157 9.32821C12.1829 10.9688 11.4563 12.3985 10.4063 13.4579C8.96725 14.911 7.17663 15.4407 5.40475 14.9251C3.81569 14.4657 2.47975 13.2282 1.61725 11.4235C1.30319 10.7626 1.13913 10.2985 0.984438 9.65165C0.7735 8.75165 0.750063 8.40477 0.750063 5.85008C0.750063 3.51571 0.75475 3.41727 0.8485 3.16883C0.970375 2.83602 1.2985 2.47508 1.60788 2.32508C2.01569 2.1329 2.03444 2.1329 2.10475 2.32977C2.1985 2.58758 2.60162 2.96727 2.87819 3.06102C3.80163 3.37508 4.72038 2.77977 4.77194 1.82821C4.8235 0.928207 4.07819 0.262583 3.15475 0.37977ZM3.74069 1.17196C4.19069 1.44852 4.19069 2.13758 3.74069 2.37196C3.26725 2.61571 2.71881 2.29227 2.71881 1.77196C2.71881 1.25165 3.30475 0.90477 3.74069 1.17196ZM10.3407 1.15321C10.7719 1.35946 10.8563 1.93133 10.5048 2.26883C10.1204 2.63914 9.44069 2.40946 9.35162 1.88446C9.3235 1.7204 9.33756 1.64071 9.43131 1.46727C9.60944 1.11102 9.98444 0.984459 10.3407 1.15321ZM22.4485 20.2548C22.711 20.3673 22.936 20.5782 23.1001 20.8548C23.1938 21.0188 23.2266 21.1407 23.2407 21.4501C23.2594 21.7876 23.2454 21.8673 23.1469 22.0876C22.6641 23.1423 21.2344 23.1985 20.6391 22.186C20.4797 21.9095 20.4376 21.4032 20.5501 21.061C20.8032 20.3016 21.6985 19.922 22.4485 20.2548Z" fill="#2D3F48"/>
<path d="M21.6561 21.2813C21.5342 21.4031 21.5342 21.661 21.6467 21.7641C21.7827 21.886 22.0077 21.8672 22.1202 21.7219C22.2467 21.5578 22.242 21.4453 22.1014 21.3047C21.9655 21.1641 21.7827 21.1547 21.6561 21.2813Z" fill="#2D3F48"/>
<path d="M3.19708 12.1547C3.06114 12.3 3.06114 12.5157 3.20177 12.6469C3.25802 12.6985 3.5252 12.8344 3.79239 12.9375C5.49864 13.6266 7.4627 13.6828 9.22052 13.1016C10.2705 12.75 10.5658 12.4828 10.2424 12.1641C10.0877 12.0047 9.95645 12.0141 9.41739 12.2297C7.6877 12.9282 5.70958 12.9188 3.95645 12.2157C3.47364 12.0188 3.33302 12.0094 3.19708 12.1547Z" fill="#2D3F48"/>
</g>
<defs>
<clipPath id="clip0_2032_1017">
<rect width="24" height="24" fill="white"/>
</clipPath>
</defs>
</svg>
