<svg width="24" height="25" viewBox="0 0 24 25" fill="none" xmlns="http://www.w3.org/2000/svg">
<g clip-path="url(#clip0_2032_1010)">
<path d="M4.6172 0.617188C4.50002 0.729687 4.50002 0.739061 4.50002 1.625C4.50002 2.51094 4.50002 2.52031 4.6172 2.63281C4.7297 2.74531 4.74845 2.75 5.46095 2.75H6.18752V4.83125V6.9125L5.80314 7.23125C2.69064 9.79531 1.48127 14.0141 2.76095 17.8437C4.08752 21.8094 7.82345 24.5 12 24.5C14.8078 24.5 17.5172 23.2625 19.3453 21.1484C20.3578 19.9812 21.0703 18.6172 21.4453 17.1453C21.6703 16.2453 21.7219 15.8234 21.7219 14.75C21.7219 13.6766 21.6703 13.2547 21.4453 12.3547C20.9344 10.3531 19.7813 8.53437 18.1735 7.20781L17.8125 6.90781V4.83125V2.75H18.2813H18.75V4.13281V5.52031L18.8672 5.63281C19.0172 5.7875 19.2328 5.7875 19.3828 5.63281L19.5 5.52031V3.125V0.729687L19.3828 0.617188L19.2703 0.5H12H4.7297L4.6172 0.617188ZM18.75 1.625V2H12H5.25002V1.625V1.25H12H18.75V1.625ZM17.0625 4.625V6.5H12H6.93752V4.625V2.75H12H17.0625V4.625ZM9.18752 7.26406C9.18752 7.26875 9.06095 7.65312 8.90627 8.11719C8.75158 8.58125 8.62502 9.00781 8.62502 9.06406C8.62502 9.125 8.76564 9.51875 8.93439 9.94062L9.23908 10.7094L8.83595 11.5156C8.4422 12.3031 8.42814 12.3219 8.30627 12.2891C8.07658 12.2328 7.00783 12.0312 6.92814 12.0312C6.88595 12.0312 6.4547 12.3453 5.97189 12.7297L5.09064 13.4328L4.05939 13.9016C3.4922 14.1594 3.01877 14.3609 3.00939 14.3562C3.0047 14.3469 3.02814 14.0703 3.06564 13.7375C3.35627 11.2391 4.6172 9.05 6.63283 7.53594L7.00783 7.25469L8.10002 7.25C8.69533 7.25 9.18752 7.25469 9.18752 7.26406ZM13.6406 7.3625C13.6406 7.42812 13.8516 7.96719 14.1094 8.56719C14.3672 9.17187 14.5781 9.67344 14.5781 9.69219C14.5781 9.71094 14.3672 10.0766 14.1094 10.5078C13.8516 10.9437 13.6406 11.3328 13.6406 11.3844C13.6406 11.5766 14.3485 13.9297 14.4281 14.0141C14.4938 14.075 14.7563 14.1359 15.4406 14.2531C15.9469 14.3375 16.3828 14.4266 16.4016 14.45C16.425 14.4734 16.561 14.8484 16.7063 15.2891L16.9688 16.0859L16.6313 17.0937L16.2985 18.1016L16.6641 19.1984L17.025 20.2906L17.4938 20.8766C18.0281 21.5469 18.0281 21.4578 17.4703 21.8844C16.6969 22.475 15.7875 22.9625 14.9016 23.2578C14.6344 23.3469 14.4141 23.4219 14.4047 23.4219C14.3953 23.4219 14.3906 23.3 14.3906 23.15C14.3906 22.8922 14.4094 22.85 14.8828 22.0625L15.375 21.2422V20.1125C15.375 19.1 15.3656 18.9688 15.2953 18.8797C15.2485 18.8281 14.7797 18.5656 14.25 18.2984L13.2938 17.8156L12.961 16.9953L12.6328 16.1797L11.8922 15.6219C11.3016 15.1719 11.1188 15.0594 11.0016 15.0594C10.8985 15.0641 10.5 15.2609 9.69377 15.725L8.53127 16.3906H7.02658C6.1547 16.3906 5.48908 16.4094 5.4422 16.4375C5.33908 16.4891 5.28283 16.6297 5.15627 17.1406C5.10002 17.3609 5.03908 17.6187 5.01095 17.7125C4.97345 17.8484 4.86564 17.975 4.48127 18.3125C4.20939 18.5422 3.9797 18.7344 3.96095 18.7344C3.85314 18.7344 3.38908 17.4453 3.21564 16.6719C3.08908 16.0953 2.98595 15.2656 3.03752 15.2094C3.05627 15.1906 3.60939 14.9328 4.26095 14.6328C5.34845 14.1359 5.49845 14.0562 5.94377 13.7047C6.21095 13.4937 6.57658 13.2078 6.7547 13.0672L7.07814 12.8141L7.84689 12.9641C8.26877 13.0437 8.65783 13.1094 8.7047 13.1094C8.75627 13.1094 8.84064 13.0625 8.8922 13.0016C9.00939 12.875 10.0313 10.8453 10.0313 10.7375C10.0313 10.6953 9.88595 10.3016 9.70783 9.85625L9.3797 9.04531L9.68908 8.15L9.99845 7.25H11.8172H13.6406V7.3625ZM17.4094 7.57344C19.1391 8.87656 20.311 10.7047 20.7844 12.8422C21.3844 15.5234 20.6813 18.3734 18.8953 20.5156C18.7125 20.7359 18.5438 20.9141 18.5203 20.9141C18.4969 20.9141 18.2953 20.6891 18.0797 20.4125L17.6813 19.9109L17.3953 19.0531C17.236 18.5797 17.1094 18.1531 17.1094 18.1016C17.1094 18.05 17.2453 17.5953 17.4141 17.0937C17.5828 16.5922 17.7188 16.1375 17.7188 16.0859C17.7188 16.0344 17.5594 15.5094 17.3625 14.9234C17.1 14.1312 16.9828 13.8406 16.9078 13.7891C16.8516 13.7516 16.3922 13.6531 15.8906 13.5687L14.9766 13.4094L14.7094 12.5C14.5641 11.9984 14.4422 11.5484 14.4422 11.5016C14.4375 11.4547 14.6485 11.0609 14.9063 10.6297C15.1688 10.1984 15.375 9.79531 15.375 9.72969C15.375 9.66875 15.1688 9.12969 14.911 8.53906C14.4703 7.50781 14.4563 7.45625 14.5266 7.35781C14.6016 7.25469 14.6156 7.25469 15.7922 7.25H16.9828L17.4094 7.57344ZM11.4985 16.2734L12.0281 16.6719L12.3047 17.3609C12.736 18.4578 12.6047 18.3125 13.6828 18.8516L14.625 19.3203V20.1734V21.0266L14.1328 21.8422L13.6406 22.6625V23.1312V23.6L13.4906 23.6281C11.7563 23.9422 9.77345 23.6609 8.11877 22.8594C6.64689 22.1469 5.4422 21.1109 4.54689 19.7937L4.31252 19.4422L4.91252 18.9312C5.24064 18.65 5.54064 18.3781 5.58283 18.3312C5.62502 18.2797 5.71877 17.9937 5.79377 17.6891L5.92502 17.1406H7.33595H8.7422L9.84377 16.5078C10.4485 16.1609 10.95 15.875 10.9594 15.875C10.9641 15.875 11.2078 16.0531 11.4985 16.2734Z" fill="#2D3F48"/>
</g>
<defs>
<clipPath id="clip0_2032_1010">
<rect width="24" height="24" fill="white" transform="translate(0 0.5)"/>
</clipPath>
</defs>
</svg>
