<svg width="28" height="28" viewBox="0 0 28 28" fill="none" xmlns="http://www.w3.org/2000/svg">
<path d="M13.9999 1.68018C7.20241 1.68018 1.67993 7.20265 1.67993 14.0002C1.67993 20.1709 6.23135 25.2777 12.1592 26.1681L12.8023 26.2655V16.5574H9.89181V14.5864H12.8023V11.9691C12.8023 10.3574 13.189 9.29585 13.8293 8.62986C14.4696 7.96388 15.4156 7.62799 16.7321 7.62799C17.7848 7.62799 18.1943 7.69177 18.5838 7.73955V9.35283H17.2134C16.4358 9.35283 15.7978 9.78668 15.4667 10.3646C15.1355 10.9424 15.0324 11.6324 15.0324 12.3355V14.5853H18.4613L18.1562 16.5563H15.0324V26.2808L15.6679 26.1944C21.68 25.379 26.3199 20.2312 26.3199 14.0002C26.3199 7.20265 20.7975 1.68018 13.9999 1.68018ZM13.9999 2.80018C20.1922 2.80018 25.1999 7.80794 25.1999 14.0002C25.1999 19.4489 21.3 23.93 16.1524 24.9388V17.6763H19.1165L19.7673 13.4653H16.1524V12.3355C16.1524 11.7545 16.2587 11.2339 16.4379 10.9213C16.6171 10.6086 16.7898 10.4728 17.2134 10.4728H19.7038V6.72564L19.2182 6.66002C18.8823 6.61457 18.1155 6.50799 16.7321 6.50799C15.2184 6.50799 13.919 6.92035 13.0221 7.8533C12.1252 8.78625 11.6823 10.1754 11.6823 11.9691V13.4664H8.77181V17.6774H11.6823V24.9038C6.61745 23.8309 2.79993 19.3899 2.79993 14.0002C2.79993 7.80794 7.8077 2.80018 13.9999 2.80018Z" fill="#5BBA4B"/>
</svg>
