<svg width="24" height="24" viewBox="0 0 24 24" fill="none" xmlns="http://www.w3.org/2000/svg">
<path d="M11.2078 1.19525C7.62656 1.64994 4.62656 4.11088 3.4875 7.52338C3.20156 8.39056 3 9.48744 3 10.2046C3 10.364 2.8875 10.7718 2.625 11.5546C2.41875 12.1734 2.25 12.7171 2.25 12.764C2.25 12.8109 2.30625 12.9093 2.37656 12.9749C2.47969 13.0781 2.63906 13.1343 3.16875 13.2609L3.825 13.4203L4.16719 14.4562C4.35938 15.0281 4.55625 15.539 4.60781 15.5953C4.66406 15.6562 4.89375 15.764 5.16563 15.8531L5.625 16.0031V16.5046V17.0015L5.99063 17.3484C6.72188 18.0515 7.65469 18.6562 8.63906 19.0781L9 19.2374V20.9296V22.6265L9.10781 22.7249C9.24375 22.8515 9.46875 22.8562 9.61406 22.739L9.72656 22.6499L9.74063 21.0749C9.74531 20.2078 9.75938 19.4999 9.77344 19.4999C9.78281 19.4999 9.96563 19.5421 10.1859 19.5937C10.8844 19.7578 11.5172 19.8281 12.375 19.8234C13.3266 19.8234 13.6078 19.7859 13.7438 19.6499C13.8891 19.5046 13.875 19.2796 13.7109 19.139C13.5891 19.0312 13.5609 19.0265 13.1672 19.0593L12.7547 19.0921L12.7406 17.3203C12.7266 15.5671 12.7266 15.5531 12.6234 15.4734C12.5156 15.3796 11.0625 14.9999 10.8328 14.9999C10.725 14.9999 10.6547 15.0468 10.5188 15.2062C10.425 15.3234 10.2422 15.4687 10.1156 15.539C9.91406 15.6515 9.83906 15.6656 9.56719 15.6468C9.1875 15.6281 8.93438 15.4828 8.73281 15.1781C8.62969 15.0234 8.60156 14.9203 8.5875 14.6531C8.57344 14.3437 8.58281 14.3015 8.72813 14.0624C8.84531 13.8656 8.93906 13.7765 9.13594 13.6781C9.6 13.4343 10.0781 13.5281 10.4344 13.9359C10.5422 14.0578 10.6781 14.1749 10.7438 14.1984C10.9031 14.2593 12.4969 13.8656 12.6328 13.7296C12.7219 13.6406 12.7266 13.5656 12.7406 12.2578L12.7547 10.8749H13.9172H15.075L15.1875 11.339L15.2953 11.8031L15.1313 12.0046C14.8922 12.314 14.8266 12.4265 14.7375 12.7265C14.5781 13.2796 14.7234 13.9406 15.1125 14.4093C15.4688 14.8406 16.1766 15.1078 16.7156 15.014C17.3484 14.9062 17.85 14.5406 18.1219 13.9921C18.2438 13.7343 18.2578 13.6687 18.2578 13.2187C18.2578 12.7781 18.2438 12.6984 18.1313 12.4687C18.0609 12.3234 17.925 12.1171 17.8313 12.0093L17.6625 11.8078L17.775 11.3531L17.8875 10.8984L19.4203 10.8843L20.9531 10.8749V11.0437C20.9531 11.1374 20.9203 11.4374 20.8828 11.714C20.4375 14.7609 18.3984 17.3484 15.5391 18.4921C15.3094 18.5812 15.0891 18.6937 15.0609 18.7359C15.0141 18.7968 15 19.2703 15 20.7281C15 22.5796 15.0047 22.6453 15.0938 22.7343C15.1922 22.8328 15.4172 22.8562 15.5625 22.7812C15.7313 22.6921 15.75 22.4859 15.75 20.8312V19.2234L15.9984 19.1156C18.2766 18.1546 20.1422 16.2421 21.0656 13.9218C21.4969 12.8249 21.7031 11.7328 21.7031 10.5093C21.7031 9.36556 21.5766 8.55463 21.2344 7.52806C20.25 4.589 17.9016 2.339 14.9203 1.48119C13.8281 1.16713 12.3328 1.05463 11.2078 1.19525ZM12 3.62806C12 5.2265 12.0094 5.39056 12.0844 5.47963C12.1453 5.55931 12.3609 5.63431 13.0031 5.79369C13.4672 5.91088 13.8938 5.99525 13.95 5.98119C14.0063 5.96713 14.1281 5.85931 14.2266 5.74213C14.4703 5.44213 14.7141 5.32494 15.0938 5.32025C15.6141 5.32025 15.9984 5.62494 16.1297 6.14994C16.2844 6.77338 15.7547 7.42025 15.0938 7.42025C14.6953 7.42025 14.5266 7.3265 14.1422 6.89994C14.0625 6.81088 13.9641 6.74994 13.8938 6.74994C13.65 6.74994 12.2109 7.139 12.1078 7.23275C12.0047 7.3265 12 7.34525 11.9906 8.714L11.9766 10.1015L10.8188 10.1156L9.66094 10.1249L9.61406 9.9515C9.58594 9.85306 9.53438 9.63275 9.4875 9.45931L9.4125 9.14056L9.57656 8.97181C10.2 8.32963 10.1906 7.18119 9.5625 6.52494C9.15469 6.10306 8.72344 5.92963 8.1375 5.96244C7.70156 5.98588 7.41094 6.09838 7.09219 6.35619C6.30469 7.00306 6.21563 8.21244 6.9 8.98119L7.06406 9.164L6.94219 9.63275L6.82031 10.1015L5.2875 10.1156C3.7875 10.1249 3.75 10.1249 3.75 10.0359C3.75 9.77338 3.90938 8.80306 4.02656 8.32963C4.84219 5.09994 7.54688 2.59681 10.8516 2.01556C11.3344 1.93119 11.5547 1.90306 11.8734 1.88431L12 1.87494V3.62806ZM13.6406 1.97338C15.0844 2.17025 16.6266 2.85463 17.8359 3.84369C19.5797 5.26869 20.7656 7.51869 20.9344 9.7265L20.9672 10.1249H19.2094H17.4516L17.3531 10.2281C17.25 10.3453 16.875 11.7281 16.875 12.0046C16.875 12.1218 16.9266 12.1968 17.1281 12.3843C17.4188 12.6515 17.5313 12.8812 17.5313 13.2234C17.5313 13.8234 17.0813 14.2687 16.4766 14.2687C15.8766 14.2687 15.4219 13.8187 15.4219 13.2187C15.4219 12.8859 15.525 12.6703 15.825 12.389C16.1484 12.0937 16.1484 12.0796 15.9188 11.1562C15.7172 10.3546 15.6703 10.2281 15.5578 10.1718C15.5109 10.1437 14.8969 10.1249 14.1141 10.1249H12.75V8.95306V7.78588L12.9281 7.739C13.0219 7.71556 13.2328 7.65931 13.3969 7.61713L13.6969 7.54213L13.875 7.70619C14.7422 8.489 16.1344 8.24994 16.6781 7.22806C17.3016 6.06088 16.5422 4.68275 15.2156 4.56088C14.7328 4.51869 14.1797 4.72025 13.8375 5.05775L13.7016 5.19369L13.2281 5.0765L12.75 4.95931V3.41244V1.87025L13.0219 1.89838C13.1672 1.91244 13.4484 1.94994 13.6406 1.97338ZM8.63906 6.764C9.0375 6.93275 9.29531 7.3265 9.29063 7.76244C9.28594 8.09994 9.14531 8.38588 8.85469 8.62963C8.67656 8.77963 8.625 8.84994 8.625 8.95775C8.625 9.089 8.89219 10.2281 9.00469 10.5843C9.09375 10.8609 9.16875 10.8749 10.6641 10.8749H12L11.9906 12.0328L11.9766 13.1906L11.5031 13.3078L11.0344 13.4203L10.7672 13.2046C9.8625 12.4687 8.52188 12.7687 8.00156 13.8234C7.86094 14.1093 7.85156 14.1656 7.85156 14.6015C7.85156 15.0187 7.86563 15.1031 7.98281 15.3515C8.15625 15.7218 8.51719 16.0828 8.87813 16.2515C9.13125 16.3687 9.21563 16.3828 9.63281 16.3828C10.0406 16.3828 10.1344 16.3687 10.3641 16.2609C10.5094 16.1906 10.7156 16.0546 10.8234 15.9609L11.0156 15.7874L11.3344 15.8624C11.5078 15.9093 11.7281 15.9609 11.8266 15.989L12 16.0359V17.564V19.0921L11.5922 19.0593C9.90469 18.9328 8.14688 18.2015 6.7875 17.0624L6.375 16.7203V16.1718C6.375 15.7124 6.36094 15.6046 6.29063 15.5156C6.23906 15.4499 6.01406 15.3468 5.69531 15.239L5.17969 15.0609L4.81875 13.9874C4.58906 13.3218 4.42031 12.8859 4.36406 12.839C4.3125 12.7968 4.0875 12.7171 3.85781 12.6609C3.63281 12.6046 3.37031 12.539 3.27188 12.5109L3.10313 12.4687L3.36563 11.6718L3.63281 10.8749H5.42344C7.21406 10.8749 7.21406 10.8749 7.33594 10.7671C7.43906 10.6828 7.49063 10.5281 7.66875 9.82963C7.79063 9.33744 7.86563 8.94838 7.84688 8.89213C7.82812 8.84056 7.69219 8.6765 7.54688 8.53588C7.27031 8.26869 7.17188 8.06713 7.17188 7.75775C7.17188 7.36869 7.43906 6.95619 7.80469 6.79213C8.025 6.689 8.42813 6.67963 8.63906 6.764Z" fill="#2D3F48"/>
</svg>
