<svg width="24" height="24" viewBox="0 0 24 24" fill="none" xmlns="http://www.w3.org/2000/svg">
<g clip-path="url(#clip0_2032_1098)">
<path d="M5.63433 0.0936813C4.79526 0.201492 3.87651 0.510868 3.17339 0.928055C2.51245 1.31712 2.36245 1.52806 2.57339 1.78587C2.7187 1.96399 2.92026 1.92649 3.38901 1.62649C4.12495 1.15774 4.95933 0.876493 5.86401 0.78743C7.90776 0.590555 9.93276 1.5468 11.1046 3.27649C11.3437 3.62337 11.7187 4.38743 11.7187 4.51868C11.7187 4.57493 11.7609 4.70618 11.8125 4.81868C12.0562 5.35774 12.1406 6.65149 11.9812 7.46243C11.7796 8.50305 11.3437 9.39837 10.6312 10.2281C10.3453 10.5562 10.2703 10.5796 10.2656 10.3359C10.2656 10.2843 10.2046 10.1109 10.1296 9.95149C9.86714 9.39837 9.35151 9.04212 8.43745 8.7843C8.1937 8.71868 7.94995 8.62024 7.90308 8.57337C7.81401 8.48899 7.81401 8.48431 7.94995 8.38587C8.19839 8.19368 8.64839 7.71556 8.8312 7.43899C9.18745 6.89055 9.32808 6.38431 9.32808 5.60149C9.32808 4.32649 9.0562 3.52493 8.39058 2.85462C7.82808 2.28274 7.17651 2.01555 6.36558 2.01555C4.94995 2.01555 3.80151 3.03743 3.53901 4.52337C3.45933 4.98743 3.44526 6.0468 3.51558 6.42649C3.53901 6.56712 3.66089 6.88118 3.78276 7.12493C3.97026 7.50931 4.06401 7.63587 4.46245 8.0343C4.90308 8.47493 4.97339 8.5968 4.8187 8.64368C3.72183 8.96712 3.38433 9.11243 3.03745 9.41712C2.79839 9.63274 2.55933 10.0546 2.50776 10.364L2.47495 10.5562L2.31089 10.3968C2.08589 10.1859 1.6312 9.57649 1.42964 9.21556C1.18589 8.77493 0.993701 8.27806 0.857764 7.7343C0.749951 7.30774 0.731201 7.13899 0.731201 6.49212C0.726514 5.18899 1.01245 4.25149 1.73901 3.18274C2.05776 2.71868 2.09058 2.54993 1.8937 2.39524C1.82339 2.33899 1.72964 2.2968 1.68276 2.2968C1.40151 2.2968 0.731201 3.31868 0.379639 4.29368C0.117139 5.02024 0.0280762 5.55462 0.0280762 6.44524C0.0280762 7.29368 0.0796387 7.66868 0.314014 8.41399C0.689014 9.59524 1.53276 10.7718 2.57808 11.5593C3.03276 11.9062 3.80151 12.314 4.31245 12.4874L4.66401 12.6046L4.67808 14.9062C4.68745 17.0671 4.68276 17.2077 4.60776 17.2359C4.05933 17.4187 3.68433 17.7374 3.46401 18.2015C3.11245 18.9609 3.33276 19.8421 4.00776 20.3531C4.33589 20.6015 4.6312 20.6952 5.08589 20.6952C5.40933 20.6952 5.50308 20.6718 5.77495 20.5452C6.26245 20.3156 6.57651 19.9499 6.76401 19.3968C6.79214 19.3171 6.94683 19.3124 9.1312 19.3124H11.4656L11.55 19.5796C12.0187 21.0702 13.2937 22.5327 14.7609 23.2734C16.0921 23.939 17.6999 24.1124 19.1765 23.7421C21.4968 23.1609 23.2874 21.314 23.8499 18.9234C23.9578 18.4593 23.9718 18.2999 23.9718 17.5546C23.9718 16.8046 23.9578 16.6499 23.8499 16.1859C23.3765 14.1843 22.0921 12.5999 20.2406 11.7421L19.7343 11.5077V8.92962V6.35149L19.964 6.26712C20.3062 6.14524 20.625 5.90618 20.8265 5.62024C21.0703 5.27806 21.1546 4.94993 21.1312 4.49524C21.0656 3.39837 20.0531 2.65774 18.9562 2.90149C18.4265 3.02337 17.9015 3.50149 17.7328 4.01712L17.6531 4.26555H15.0281H12.3984L12.2156 3.84368C11.5546 2.29212 10.0265 0.909306 8.39058 0.379618C7.59839 0.117119 6.41245 -0.00475693 5.63433 0.0936813ZM7.04058 2.81712C7.60308 3.00462 8.03433 3.37493 8.29683 3.89524C8.43276 4.16243 8.60151 4.72493 8.55933 4.76712C8.54526 4.78118 8.42339 4.68274 8.28276 4.55149C8.01558 4.29837 7.77183 4.1718 7.56089 4.1718C7.49058 4.1718 7.23276 4.22337 6.9937 4.28899C6.44995 4.43431 6.32339 4.43431 5.77026 4.28899C5.52651 4.22337 5.2687 4.1718 5.20308 4.1718C5.03901 4.1718 4.73901 4.33587 4.45308 4.5843C4.18589 4.81868 4.16714 4.79056 4.2937 4.35462C4.52339 3.59056 5.04839 3.03743 5.76558 2.80774C6.1312 2.69056 6.67964 2.69524 7.04058 2.81712ZM19.7953 3.62337C20.4796 3.91399 20.6578 4.83274 20.1281 5.36243C19.7109 5.77962 19.0734 5.77493 18.6515 5.34837C18.2859 4.98743 18.2296 4.48118 18.4968 4.04524C18.75 3.63743 19.3593 3.44056 19.7953 3.62337ZM5.69526 4.99212C6.22026 5.13743 6.51558 5.13743 7.07808 4.99212C7.32183 4.92649 7.53745 4.87493 7.5562 4.87493C7.57495 4.87493 7.72026 4.99212 7.87964 5.13274C8.04839 5.28274 8.26401 5.42337 8.39526 5.47024L8.62495 5.55462V5.77024C8.62495 6.66556 8.0437 7.57493 7.17183 8.03899C6.83433 8.21712 6.80151 8.22649 6.39839 8.22649C6.00933 8.22649 5.94839 8.21243 5.64839 8.06243C5.17026 7.82337 4.61714 7.26555 4.38276 6.77337C4.22808 6.45462 4.19995 6.35149 4.1812 5.98118L4.16245 5.55462L4.42495 5.44212C4.57495 5.38118 4.80464 5.23118 4.93589 5.10462C5.07183 4.98274 5.20308 4.87962 5.22651 4.87962C5.25464 4.87493 5.46089 4.92649 5.69526 4.99212ZM17.6718 5.02493C17.6718 5.17024 17.9578 5.66712 18.1453 5.85462C18.3328 6.04212 18.8296 6.32805 18.975 6.32805C19.0171 6.32805 19.0312 6.85774 19.0312 8.81712V11.3109L18.8578 11.2781C18.1875 11.1702 17.5921 11.1421 17.0531 11.1937C16.1062 11.2874 15.4359 11.489 14.625 11.9109C14.0343 12.2202 13.7531 12.4312 13.725 12.5812C13.6921 12.7406 13.7765 12.8952 13.9359 12.9843C14.0812 13.064 14.0109 13.0921 14.6859 12.6796C16.3921 11.6437 18.6468 11.6062 20.3671 12.5906C21.8437 13.4296 22.8328 14.7843 23.189 16.4531C23.3062 17.0015 23.3062 18.1077 23.189 18.6562C22.964 19.6921 22.5 20.6156 21.8156 21.3702L21.5437 21.6656L21.4687 21.389C21.3187 20.8406 21.014 20.4702 20.4843 20.2031C20.2781 20.0999 19.8328 19.9452 19.1812 19.7531C19.0265 19.7062 19.0968 19.5843 19.5328 19.1437C20.0484 18.6281 20.3296 18.1593 20.4609 17.6202C20.5546 17.2218 20.5546 16.1671 20.4609 15.6327C20.1984 14.1468 19.0546 13.1249 17.639 13.1249C17.1234 13.1249 16.8328 13.1906 16.3593 13.4156C15.6609 13.7484 15.1171 14.3952 14.864 15.1874C14.6859 15.7593 14.6203 16.7952 14.7187 17.4327C14.8359 18.1312 15.3187 18.914 15.9468 19.4062C16.139 19.5609 16.1578 19.5937 16.1062 19.664C16.0734 19.7109 15.8109 19.8187 15.5109 19.9077C14.8734 20.0999 14.5031 20.2921 14.2171 20.564C14.0109 20.7656 13.7343 21.2671 13.7343 21.4452C13.7296 21.689 13.6546 21.6656 13.3687 21.3374C12.075 19.8327 11.6343 17.9718 12.1218 16.0874C12.2671 15.5202 12.6093 14.8031 12.989 14.2499C13.2562 13.8609 13.275 13.8187 13.2375 13.6781C13.1859 13.4999 12.989 13.3827 12.8203 13.4249C12.6 13.4812 12 14.3952 11.7 15.1406C11.4656 15.7077 11.3156 16.3452 11.25 16.9921C11.1984 17.5077 11.2031 17.7656 11.2781 18.3843L11.3062 18.6093H9.0562H6.8062L6.72651 18.3749C6.56714 17.9015 6.09839 17.4327 5.62495 17.2734L5.39058 17.1937L5.39995 14.9859L5.41401 12.7781L5.67183 12.7968C5.81245 12.8109 6.2062 12.8156 6.53901 12.8109C8.18433 12.7921 9.70308 12.1406 10.8984 10.9452C11.8406 10.0077 12.45 8.84056 12.6843 7.53743C12.8062 6.84368 12.7828 5.69524 12.6328 5.09524L12.6 4.96868H15.1359C17.1328 4.96868 17.6718 4.98274 17.6718 5.02493ZM5.8312 8.88274C6.12651 8.9718 6.67026 8.9718 6.96089 8.88274L7.19058 8.81712L7.34058 8.99055C7.42026 9.0843 7.4812 9.17805 7.47183 9.19681C7.46245 9.21556 7.21401 9.36555 6.9187 9.53899L6.38901 9.84837L5.85464 9.5343C5.55933 9.36087 5.31089 9.21556 5.30151 9.20618C5.29214 9.19681 5.33901 9.12649 5.40933 9.04681C5.47495 8.96712 5.5312 8.87805 5.5312 8.85462C5.5312 8.79837 5.55933 8.80305 5.8312 8.88274ZM5.2687 10.0031C5.72339 10.2702 6.17339 10.5046 6.26245 10.5234C6.3562 10.5374 6.5062 10.5281 6.59995 10.4952C6.74995 10.4484 7.95464 9.76868 8.22651 9.58118C8.36245 9.48274 8.47964 9.50149 8.83589 9.67024C9.39839 9.94212 9.60933 10.2609 9.60933 10.8562V11.1374L9.24839 11.3531C8.52183 11.7749 7.79058 12.0093 6.90464 12.1031C5.77495 12.2202 4.50464 11.939 3.53433 11.3531L3.16401 11.1327L3.17339 10.7859C3.18745 10.3781 3.30464 10.0968 3.55308 9.89055C3.71714 9.75462 4.2187 9.52024 4.35933 9.51556C4.40151 9.51556 4.80933 9.73587 5.2687 10.0031ZM18.1921 13.9031C18.9187 14.1187 19.4765 14.6906 19.7062 15.464C19.8328 15.8999 19.814 15.9281 19.5468 15.6937C19.2468 15.4359 18.9562 15.2812 18.7734 15.2812C18.6984 15.2812 18.4453 15.3327 18.2109 15.3984C17.6906 15.5437 17.5734 15.5437 17.0156 15.3984C16.7718 15.3327 16.5093 15.2812 16.439 15.2812C16.2281 15.2812 15.9843 15.4077 15.7171 15.6609C15.5765 15.7921 15.4546 15.8906 15.4406 15.8765C15.3937 15.8296 15.5578 15.2906 15.6984 15.014C16.1671 14.0906 17.2265 13.6171 18.1921 13.9031ZM16.9218 16.1015C17.4937 16.2468 17.7562 16.2468 18.3281 16.0968L18.7921 15.9702L19.0593 16.2093C19.2093 16.3406 19.439 16.4952 19.5796 16.5562L19.8281 16.6593V16.9734C19.8281 17.8171 19.2046 18.7452 18.3421 19.1765C18.0562 19.3218 17.9859 19.3359 17.6203 19.3359C17.25 19.3359 17.1937 19.3218 16.8562 19.1577C15.9796 18.7218 15.375 17.789 15.375 16.8796V16.664L15.6093 16.5796C15.7546 16.5281 15.9468 16.4015 16.1109 16.2421C16.2609 16.1015 16.4062 15.989 16.4296 15.989C16.4578 15.9843 16.6781 16.0359 16.9218 16.1015ZM5.50776 17.9859C5.88276 18.1734 6.10308 18.5296 6.10308 18.9374C6.10308 19.9921 4.73433 20.3999 4.17183 19.514C3.86245 19.0312 3.97026 18.4452 4.42495 18.089C4.7062 17.8687 5.17964 17.8218 5.50776 17.9859ZM17.0343 19.9921C17.3343 20.0859 17.8734 20.0812 18.1875 19.9874C18.3703 19.9312 18.4453 19.9265 18.4593 19.964C18.4687 19.9968 18.5296 20.0812 18.5953 20.1609C18.6609 20.2359 18.7078 20.3062 18.6984 20.3156C18.689 20.3249 18.4406 20.4702 18.1453 20.6437L17.6156 20.9531L17.2312 20.7374C17.025 20.6156 16.7718 20.4656 16.6734 20.4046L16.4953 20.2921L16.65 20.1093C16.7343 20.0062 16.8046 19.9218 16.8046 19.9218C16.8046 19.9218 16.9078 19.9546 17.0343 19.9921ZM16.4437 21.0843C17.3156 21.5999 17.4984 21.6749 17.7374 21.6281C17.8312 21.614 18.2765 21.3796 18.7312 21.1124C19.1859 20.8452 19.589 20.6249 19.6218 20.6249C19.7531 20.6249 20.2828 20.8687 20.4468 20.9999C20.6906 21.2015 20.8171 21.5015 20.8265 21.9046L20.8359 22.2421L20.4656 22.4624C18.7031 23.5218 16.3734 23.4843 14.5921 22.3687C14.3906 22.2421 14.3906 22.2421 14.3906 21.9609C14.3906 21.5202 14.4609 21.3327 14.7375 21.0702C14.9671 20.8499 15.375 20.6343 15.5765 20.6296C15.6187 20.6249 16.0125 20.8312 16.4437 21.0843Z" fill="#2D3F48"/>
</g>
<defs>
<clipPath id="clip0_2032_1098">
<rect width="24" height="24" fill="white"/>
</clipPath>
</defs>
</svg>
