<svg width="24" height="25" viewBox="0 0 24 25" fill="none" xmlns="http://www.w3.org/2000/svg">
<path d="M5.88273 2.37978C4.39679 2.58135 3.06554 3.24228 1.9921 4.32041C1.00773 5.3001 0.38429 6.46729 0.107728 7.84541C-0.0188346 8.46885 -0.00477205 9.78603 0.131165 10.4235C0.323353 11.3095 0.651478 12.0876 1.16242 12.8751C1.38273 13.2126 2.09523 13.9438 5.87804 17.7313C10.228 22.0813 10.3452 22.1938 10.6921 22.3626C11.5405 22.7704 12.4499 22.7704 13.303 22.3626C13.6124 22.2126 13.7624 22.0954 14.3343 21.5329C14.9202 20.9517 14.9999 20.8579 14.9999 20.722C14.9999 20.6142 14.9624 20.5438 14.878 20.4735C14.6437 20.2907 14.564 20.3282 13.8984 20.9845C13.2702 21.6032 12.9421 21.8188 12.5296 21.9032L12.3749 21.9313V20.3517V18.772L12.4827 18.8001C12.7124 18.8704 13.3171 18.8845 13.603 18.8329C14.639 18.6313 15.464 17.7548 15.6187 16.6907C15.6655 16.3673 15.6609 16.2501 15.5952 15.9173C15.4077 14.9704 14.8077 14.2813 13.8937 13.972C13.5655 13.8642 13.4718 13.8501 13.0312 13.8688C12.7593 13.8829 12.5015 13.9063 12.4593 13.9251C12.3796 13.9626 12.3749 13.9063 12.3749 13.1845V12.4063H14.2874C16.3265 12.4017 16.3077 12.4063 16.3968 12.1673C16.4296 12.0829 16.4062 11.9704 16.2984 11.7032C15.9468 10.8173 16.1812 9.95947 16.9218 9.43916C17.2687 9.2001 17.5968 9.11103 18.0468 9.13447C19.3405 9.20947 20.1234 10.536 19.5702 11.736C19.4249 12.0595 19.4249 12.1485 19.5702 12.2892L19.6827 12.4063H20.9999H22.3124L22.139 12.6501C22.0452 12.786 20.5077 14.3657 18.7171 16.1563C15.764 19.1188 15.4687 19.4329 15.4687 19.5688C15.4687 19.7657 15.6093 19.9063 15.8109 19.9063C15.9515 19.9063 16.2374 19.6298 19.2702 16.5876C22.0077 13.8454 22.6218 13.2032 22.8374 12.8751C23.3437 12.1017 23.6765 11.3142 23.8687 10.4235C24.014 9.74385 24.014 8.42197 23.8687 7.75635C23.564 6.36885 22.9827 5.29072 22.0077 4.32041C21.3046 3.6126 20.4234 3.04072 19.589 2.7501C19.3546 2.66572 19.1812 2.72197 19.1062 2.9001C19.0171 3.10166 19.0874 3.28916 19.2796 3.36885C19.739 3.56104 20.4609 3.94541 20.7655 4.16103C20.9577 4.29697 21.2999 4.5876 21.5202 4.80791C23.2265 6.51885 23.7515 9.06416 22.8655 11.3142L22.7109 11.7032H21.5249C20.4374 11.7032 20.3343 11.6985 20.3624 11.6282C20.4374 11.436 20.4749 10.9345 20.4374 10.6345C20.2734 9.3501 19.228 8.42666 17.9296 8.42197C16.4952 8.42197 15.314 9.69697 15.4405 11.1079C15.4546 11.2954 15.4827 11.5017 15.4968 11.572L15.5249 11.7032H13.9546H12.3843L12.3655 10.7985C12.3515 9.82822 12.3374 9.77197 12.103 9.68291C12.0187 9.6501 11.9155 9.67353 11.6577 9.79072C11.353 9.92666 11.2734 9.94072 10.8749 9.94541C10.4624 9.94541 10.4015 9.93135 10.1155 9.79072C9.36554 9.42041 8.93898 8.6001 9.09367 7.82666C9.33742 6.64072 10.6218 5.99385 11.6812 6.52822C12.0327 6.70635 12.2296 6.66416 12.3234 6.40166C12.3515 6.31728 12.3749 6.00322 12.3749 5.70322V5.15479L12.5671 5.06572C12.6749 5.01885 12.8905 4.86416 13.0499 4.71885C14.3484 3.54228 15.6749 3.03135 17.4234 3.03135C17.8921 3.03135 17.9624 3.02197 18.0468 2.9376C18.164 2.82041 18.1687 2.59072 18.0515 2.47353C17.9155 2.3376 17.6859 2.30947 16.9968 2.34229C15.4452 2.40791 14.053 2.94228 12.9234 3.90791C12.253 4.47978 12.2437 4.48447 12.0046 4.48447C11.7515 4.48447 11.6812 4.44228 11.2405 4.03916C10.4249 3.28916 9.28117 2.7126 8.11867 2.46885C7.58898 2.35635 6.39835 2.30947 5.88273 2.37978ZM7.94523 3.14853C9.04679 3.37822 9.97492 3.85166 10.8327 4.61572C11.039 4.80322 11.3155 5.00947 11.4421 5.07041L11.6718 5.1876V5.44072C11.6718 5.57666 11.6577 5.69853 11.6437 5.7126C11.6296 5.73135 11.5499 5.72197 11.4702 5.69853C11.3859 5.67041 11.1187 5.65166 10.8749 5.64697C10.1999 5.64697 9.69835 5.83916 9.17804 6.30322C7.77648 7.56416 8.27335 9.91728 10.078 10.536C10.4062 10.6485 11.0905 10.686 11.4749 10.611L11.6718 10.5688V11.136V11.7032H10.2093C8.63898 11.7079 8.6296 11.7079 8.53585 11.9423C8.50304 12.036 8.52179 12.1298 8.63429 12.3782C9.33742 13.972 7.77648 15.5235 6.19679 14.797C5.89679 14.661 5.84523 14.6517 5.72335 14.7032C5.53585 14.7782 5.45617 14.9798 5.54054 15.1579C5.61554 15.3173 6.07492 15.5563 6.4546 15.636C7.32648 15.8095 8.15148 15.561 8.76554 14.9423C9.30929 14.3938 9.54835 13.761 9.49679 13.0157C9.48273 12.7954 9.45929 12.5704 9.44054 12.5095L9.41242 12.4063H10.5421H11.6718V13.5313C11.6718 14.6095 11.6765 14.661 11.7702 14.7548C11.8921 14.8767 12.0421 14.8579 12.464 14.6798C12.7312 14.5673 12.8062 14.5579 13.1905 14.572C13.528 14.5813 13.6687 14.6142 13.8749 14.7079C14.4234 14.9704 14.7984 15.4579 14.9109 16.072C15.0515 16.8454 14.6249 17.6517 13.8749 18.0032C13.603 18.1345 13.5234 18.1485 13.1249 18.1485C12.7359 18.1485 12.6421 18.1298 12.403 18.0173C12.089 17.872 11.8827 17.8579 11.7562 17.9704C11.6765 18.0407 11.6718 18.1673 11.6718 19.9907V21.936L11.5077 21.9079C11.4187 21.8938 11.2124 21.8235 11.053 21.7532C10.7765 21.6313 10.4859 21.3548 6.50148 17.3798C4.16242 15.0454 2.11867 12.9688 1.96398 12.7673L1.68273 12.4063H3.13585C3.93742 12.4063 4.59367 12.411 4.59367 12.4204C4.59367 12.4251 4.57023 12.5048 4.54679 12.5938C4.47648 12.8282 4.48585 13.5688 4.55617 13.7892C4.66398 14.1126 5.01085 14.1923 5.18429 13.9298C5.24523 13.836 5.24992 13.761 5.2171 13.4985C5.16554 13.086 5.2171 12.697 5.3671 12.3735C5.51242 12.0501 5.51242 11.961 5.3671 11.8204L5.2546 11.7032H3.27179H1.28898L1.13429 11.3142C0.81554 10.5079 0.674915 9.65947 0.717103 8.79697C0.829603 6.59853 2.09054 4.65791 4.0546 3.67353C4.5421 3.42978 5.22179 3.20478 5.69523 3.12978C5.87804 3.10166 6.07492 3.06885 6.14054 3.05947C6.40304 3.0126 7.58898 3.07353 7.94523 3.14853Z" fill="#2D3F48"/>
</svg>
