<svg width="28" height="28" viewBox="0 0 28 28" fill="none" xmlns="http://www.w3.org/2000/svg">
<path d="M24.8511 3.35223C24.5783 3.3642 24.3128 3.44011 24.0734 3.53598C23.8364 3.63122 22.4721 4.21352 20.4575 5.07489C18.4428 5.93626 15.8239 7.05794 13.2278 8.1702C8.03561 10.3947 2.93341 12.5835 2.93341 12.5835L2.9706 12.5693C2.9706 12.5693 2.66265 12.6722 2.35044 12.8897C2.19434 12.9985 2.02639 13.1389 1.88888 13.3436C1.75137 13.5484 1.65084 13.8385 1.68872 14.1454C1.82179 15.2232 2.93888 15.529 2.93888 15.529L2.94325 15.5311L7.92857 17.2374C8.05567 17.6614 9.44063 22.2839 9.74529 23.2629C9.91354 23.8041 10.071 24.1163 10.2353 24.3293C10.3175 24.4358 10.4036 24.5183 10.4989 24.5786C10.5367 24.6026 10.5765 24.6206 10.6159 24.6366H10.6181C10.6229 24.6387 10.6275 24.6389 10.6323 24.641L10.6192 24.6377C10.6283 24.6414 10.6374 24.6476 10.6465 24.6508C10.6643 24.6571 10.6752 24.6568 10.6979 24.6618C11.2689 24.8611 11.7414 24.4911 11.7414 24.4911L11.7611 24.4758L14.8236 21.6354L19.7936 25.5105L19.8559 25.539C20.7258 25.9252 21.5126 25.7097 21.9483 25.3552C22.3839 25.0007 22.5553 24.5436 22.5553 24.5436L22.5739 24.4955L26.2259 5.46098C26.3194 5.03514 26.3326 4.66704 26.2445 4.33442C26.1564 4.0018 25.9422 3.71265 25.6736 3.55239C25.4049 3.39213 25.1238 3.34027 24.8511 3.35223ZM24.8806 4.49083C24.9914 4.4857 25.0735 4.49836 25.0993 4.5138C25.1252 4.52923 25.1368 4.5272 25.1617 4.62098C25.1865 4.71477 25.2 4.9123 25.1322 5.22145L25.13 5.22801L21.4987 24.1521C21.4901 24.1711 21.4145 24.3462 21.2417 24.4868C21.0654 24.6302 20.8694 24.7421 20.3492 24.524L14.9143 20.2857L14.7612 20.1654L14.7579 20.1686L13.1326 18.9491L22.2665 8.20302C22.3367 8.12066 22.3815 8.01973 22.3956 7.91244C22.4096 7.80515 22.3923 7.69608 22.3457 7.59844C22.299 7.50079 22.2251 7.41874 22.1329 7.36221C22.0406 7.30568 21.9339 7.27709 21.8258 7.27989C21.7201 7.28264 21.6173 7.31525 21.5293 7.37395L8.31247 16.1852L3.3195 14.4757C3.3195 14.4757 2.8237 14.1998 2.79997 14.0075C2.79866 13.9969 2.7928 14.0065 2.81857 13.9682C2.84433 13.9298 2.90909 13.8651 2.99029 13.8085C3.15267 13.6953 3.3381 13.6269 3.3381 13.6269L3.35669 13.6204L3.37529 13.6127C3.37529 13.6127 8.47775 11.4238 13.6697 9.19942C16.2656 8.08722 18.8841 6.96636 20.8983 6.1052C22.9119 5.24427 24.3669 4.62457 24.4901 4.57505C24.6304 4.51888 24.7698 4.49596 24.8806 4.49083ZM18.8234 10.524L11.8967 18.6735L11.8934 18.6768C11.8826 18.6898 11.8724 18.7033 11.8628 18.7172C11.8518 18.7324 11.8416 18.7481 11.8322 18.7643C11.7932 18.8303 11.7683 18.9037 11.7589 18.9797C11.7589 18.9812 11.7589 18.9826 11.7589 18.9841L10.8565 23.0419C10.8415 22.9981 10.831 22.982 10.815 22.9304V22.9293C10.5284 22.0084 9.2217 17.6489 9.04091 17.046L18.8234 10.524ZM12.6787 20.009L13.9234 20.943L12.0947 22.6383L12.6787 20.009Z" fill="#5BBA4B"/>
</svg>
